<?xml version="1.0" encoding="utf-8"?>
<!-- Generator: Adobe Illustrator 21.0.2, SVG Export Plug-In . SVG Version: 6.00 Build 0)  -->
<svg version="1.1" id="Слой_1" xmlns="http://www.w3.org/2000/svg" xmlns:xlink="http://www.w3.org/1999/xlink" x="0px" y="0px"
	 viewBox="0 0 102 58" style="enable-background:new 0 0 102 58;" xml:space="preserve">
<style type="text/css">
	.st0{fill:#FFFFFF;}
</style>
<g id="Layer_10_xA0_Изображение_1_">
</g>
<g id="_x32__1_">
	<g id="Layer_14_copy_xA0_Изображение_1_">
		
			<image style="overflow:visible;enable-background:new    ;" width="112" height="171" id="Layer_14_copy_xA0_Изображение" xlink:href="C340969F.png"  transform="matrix(0.7419 0 0 0.7419 -248.2354 -609.2405)">
		</image>
	</g>
	<g id="Layer_15_copy_xA0_Изображение_1_">
		
			<image style="overflow:visible;enable-background:new    ;" width="140" height="71" id="Layer_15_copy_xA0_Изображение" xlink:href="C3409694.png"  transform="matrix(0.7436 0 0 0.7436 198.0077 -554.5843)">
		</image>
	</g>
	<g id="big_data_x0D__3_">
		
			<text transform="matrix(1 0 0 1 -141.9387 -545.7721)" style="fill:#80472E; font-family:'SpaceCrusader'; font-size:141.7416px; letter-spacing:-4;">big</text>
		
			<text transform="matrix(1 0 0 1 -26.0387 -545.7721)" style="fill:#80472E; font-family:'SpaceCrusader'; font-size:141.7416px; letter-spacing:-16;"> </text>
		
			<text transform="matrix(1 0 0 1 -7.6387 -545.7721)" style="fill:#80472E; font-family:'SpaceCrusader'; font-size:141.7416px; letter-spacing:-4;">data</text>
	</g>
	<g id="key_3_">
		
			<text transform="matrix(1 0 0 1 -144.7971 -325.4176)" style="fill:#4A3329; font-family:'SpaceCrusader'; font-size:337.2549px; letter-spacing:-12;">key</text>
	</g>
</g>
<g id="_x32__copy_1_">
	<g id="Layer_14_copy_2_xA0_Изображение_1_">
		
			<image style="overflow:visible;enable-background:new    ;" width="112" height="171" id="Layer_14_copy_2_xA0_Изображение" xlink:href="C3409695.png"  transform="matrix(0.7419 0 0 0.7419 471.0146 -609.2405)">
		</image>
	</g>
	<g id="Layer_15_copy_2_xA0_Изображение_1_">
		
			<image style="overflow:visible;enable-background:new    ;" width="140" height="71" id="Layer_15_copy_2_xA0_Изображение" xlink:href="C3409696.png"  transform="matrix(0.7436 0 0 0.7436 917.2578 -554.5843)">
		</image>
	</g>
	<g id="big_data_x0D__2_">
		
			<text transform="matrix(1 0 0 1 578.0603 -545.7721)" style="fill:#096948; font-family:'SpaceCrusader'; font-size:141.7416px; letter-spacing:-4;">big</text>
		
			<text transform="matrix(1 0 0 1 693.9603 -545.7721)" style="fill:#096948; font-family:'SpaceCrusader'; font-size:141.7416px; letter-spacing:-16;"> </text>
		
			<text transform="matrix(1 0 0 1 712.3604 -545.7721)" style="fill:#096948; font-family:'SpaceCrusader'; font-size:141.7416px; letter-spacing:-4;">data</text>
	</g>
	<g id="key_2_">
		
			<text transform="matrix(1 0 0 1 575.2028 -325.4176)" style="fill:#033D29; font-family:'SpaceCrusader'; font-size:337.2549px; letter-spacing:-12;">key</text>
	</g>
</g>
<g id="_x32__copy_2_1_">
	<g id="Layer_14_copy_3_xA0_Изображение_1_">
		<g>
			<path class="st0" d="M1,13c0.9,0,1.8,0,2.7,0c0.4,0,0.6-0.2,0.6-0.6c0-0.7,0.1-1.4-0.1-2C4.1,9.9,4.3,9.8,4.8,9.8
				c0.7,0,1.4,0,2,0c0.6,0,0.7-0.2,0.7-0.7c0-0.8,0-1.7,0-2.6H17v3.5h-6.1v3.1H7.6v9.6h3.1v3.2H17v3.5H7.2v-3H4v-3.5H1V13z"/>
		</g>
	</g>
	<g id="Layer_15_copy_3_xA0_Изображение_1_">
		<g>
			<path class="st0" d="M92.2,26.7c-1.2,0-2.3,0-3.5,0c0-1.1,0-2.3,0-3.5c-1.2,0-2.3,0-3.4,0c0-1,0-2,0-3c-1.1,0-2.2,0-3.4,0
				c0-1.2,0-2.4,0-3.6c6.7,0,13.4,0,20.1,0c0,1.3,0,2.4,0,3.6c-1.1,0-2.2,0-3.3,0c0,2.2,0,4.4,0,6.5c-1.2,0-2.4,0-3.6,0
				c0-1.1,0-2.3,0-3.4c-0.9,0-1.8,0-2.6,0c0,1,0,1.9,0,2.8C92.5,26.3,92.3,26.5,92.2,26.7z"/>
		</g>
	</g>
	<g id="big_data_x0D__1_">
		<g>
			<path class="st0" d="M27,10.2v6.8h-8.6V0h5.1L27,3.4v3.4l-1.7,1.7L27,10.2z M23.6,6.8V3.4h-1.7v3.4H23.6z M23.6,13.7v-3.4h-1.7
				v3.4L23.6,13.7L23.6,13.7z"/>
			<path class="st0" d="M27.6,17.1V0H31v17.1H27.6z"/>
			<path class="st0" d="M31.6,17.1V3.4L35.1,0h5.1v3.4h-5.1v10.3h1.7V6.8h3.4v10.3C40.2,17.1,31.6,17.1,31.6,17.1z"/>
			<path class="st0" d="M44.4,17.1V0h5.1l3.4,3.4v10.3l-3.4,3.4C49.5,17.1,44.4,17.1,44.4,17.1z M49.5,13.7V3.4h-1.7v10.3H49.5z"/>
			<path class="st0" d="M53.5,17.1V3.4L56.9,0h5.1v17.1h-3.4v-6.9h-1.7v6.8L53.5,17.1L53.5,17.1z M58.7,6.8V3.4h-1.7v3.4H58.7z"/>
			<path class="st0" d="M65.2,17.1V3.4h-2.5V0h8.6v3.4h-2.6v13.7C68.6,17.1,65.2,17.1,65.2,17.1z"/>
			<path class="st0" d="M71.9,17.1V3.4L75.3,0h5.1v17.1H77v-6.9h-1.7v6.8L71.9,17.1L71.9,17.1z M77,6.8V3.4h-1.7v3.4H77z"/>
		</g>
	</g>
	<g id="key_1_">
		<g>
			<path class="st0" d="M38.2,42.2V58h-7.9V42.2h-3.9V58h-7.9V18.6h7.9v15.8h3.9V18.6h7.9v15.8l-3.9,3.9L38.2,42.2z"/>
			<path class="st0" d="M39.6,58V26.5l7.9-7.9h11.8v7.9H47.5v7.9h11.8v7.9H47.5v7.9h11.8V58H39.6z"/>
			<path class="st0" d="M72.6,42.2H60.8V18.6h7.9v15.8h3.9V18.6h7.9v31.6L72.6,58H60.8v-7.9h11.8V42.2z"/>
		</g>
	</g>
</g>
<g id="_x32__copy_3_1_">
	<g id="big_data_x0D_">
		
			<text transform="matrix(1 0 0 1 558.5603 -36.5221)" style="fill:#56014E; font-family:'SpaceCrusader'; font-size:141.7416px; letter-spacing:-4;">big</text>
		
			<text transform="matrix(1 0 0 1 674.4603 -36.5221)" style="fill:#56014E; font-family:'SpaceCrusader'; font-size:141.7416px; letter-spacing:-16;"> </text>
		
			<text transform="matrix(1 0 0 1 692.8604 -36.5221)" style="fill:#56014E; font-family:'SpaceCrusader'; font-size:141.7416px; letter-spacing:-4;">data</text>
	</g>
	<g id="key">
		
			<text transform="matrix(1 0 0 1 555.7028 183.8324)" style="fill:#2D0029; font-family:'SpaceCrusader'; font-size:337.2549px; letter-spacing:-12;">key</text>
	</g>
	<g id="Layer_14_xA0_Изображение_1_">
		
			<image style="overflow:visible;enable-background:new    ;" width="112" height="169" id="Layer_14_xA0_Изображение" xlink:href="C3409697.png"  transform="matrix(0.748 0 0 0.748 451.1724 -99.765)">
		</image>
	</g>
	<g id="Layer_15_xA0_Изображение_1_">
		
			<image style="overflow:visible;enable-background:new    ;" width="140" height="72" id="Layer_15_xA0_Изображение" xlink:href="C34096A7.png"  transform="matrix(0.7414 0 0 0.7414 897.9081 -45.6287)">
		</image>
	</g>
</g>
</svg>
