<?xml version="1.0" encoding="utf-8"?>
<!-- Generator: Adobe Illustrator 21.0.2, SVG Export Plug-In . SVG Version: 6.00 Build 0)  -->
<svg version="1.1" id="Capa_1" xmlns="http://www.w3.org/2000/svg" xmlns:xlink="http://www.w3.org/1999/xlink" x="0px" y="0px"
	 viewBox="0 0 95 95" style="enable-background:new 0 0 95 95;" xml:space="preserve">
<style type="text/css">
	.st0{fill:#212121;}
</style>
<g>
	<g>
		<g>
			<path class="st0" d="M95,29.1c0-2.5-2.1-4.6-4.6-4.6c-0.5,0-1,0.1-1.5,0.3L82,16.2c0.4-0.7,0.7-1.5,0.7-2.4
				c0-2.5-2.1-4.6-4.6-4.6c-1.3,0-2.5,0.5-3.3,1.4L62.8,5c0-0.1,0-0.3,0-0.4c0-2.5-2.1-4.6-4.6-4.6c-2,0-3.7,1.3-4.3,3.1H36.5
				C35.9,1.3,34.2,0,32.2,0c-2.5,0-4.6,2.1-4.6,4.6c0,0.2,0,0.4,0.1,0.6L20,9c-0.8-0.8-1.9-1.3-3.2-1.3c-2.5,0-4.6,2.1-4.6,4.6
				c0,0.9,0.3,1.7,0.7,2.4l-6.9,8.6c-0.5-0.2-1-0.3-1.5-0.3C2.1,23,0,25,0,27.6c0,2,1.3,3.7,3.1,4.3v9.8C1.3,42.3,0,44,0,46
				c0,2.5,2.1,4.6,4.6,4.6c1.7,0,3.2-0.9,4-2.3l8.4,1.5c0.4,2.2,2.2,3.9,4.5,3.9c0.1,0,0.1,0,0.2,0l2.9,7.3c-1,0.8-1.6,2.1-1.6,3.4
				c0,2.5,2.1,4.6,4.6,4.6c1.5,0,2.9-0.8,3.7-1.9l13.1,3.8c0.1,1.9,1.3,3.4,3,4v11.3c-1.8,0.6-3.1,2.3-3.1,4.3
				c0,2.5,2.1,4.6,4.6,4.6c2.5,0,4.6-2.1,4.6-4.6c0-2-1.3-3.7-3.1-4.3V74.8c1.8-0.6,3.1-2.3,3.1-4.3c0-1.5-0.7-2.8-1.8-3.6l1.8-5.5
				L67.4,66c0,2,1.3,3.6,3.1,4.2v15.9c-1.8,0.6-3.1,2.3-3.1,4.3c0,2.5,2.1,4.6,4.6,4.6s4.6-2.1,4.6-4.6c0-2-1.3-3.7-3.1-4.3V70.2
				c1.8-0.6,3.1-2.3,3.1-4.3c0-0.6-0.1-1.1-0.3-1.6l11.8-9.8c0.7,0.4,1.5,0.7,2.3,0.7c2.5,0,4.6-2.1,4.6-4.6c0-2-1.3-3.7-3.1-4.3
				V33.4C93.7,32.8,95,31.1,95,29.1z M78.1,12.3c0.8,0,1.5,0.7,1.5,1.5c0,0.8-0.7,1.5-1.5,1.5c-0.8,0-1.5-0.7-1.5-1.5
				C76.6,12.9,77.3,12.3,78.1,12.3z M76,17.8c0.7,0.4,1.4,0.6,2.2,0.6c0.5,0,1-0.1,1.5-0.3l6.9,8.6c-0.4,0.7-0.7,1.5-0.7,2.4
				c0,0.2,0,0.5,0.1,0.7L75,35.8l-7.9-6.6c0.2-0.5,0.3-1,0.3-1.6c0-0.6-0.1-1.2-0.4-1.8L76,17.8z M56.7,42.9c-0.7,0-1.4,0.2-2,0.5
				l-6.5-6.5l11.5-5.9c0.8,0.8,1.9,1.2,3.1,1.2c0.9,0,1.6-0.2,2.3-0.7l7,5.8l-12.4,6.8C58.9,43.4,57.9,42.9,56.7,42.9z M58.2,47.5
				c0,0.8-0.7,1.5-1.5,1.5c-0.8,0-1.5-0.7-1.5-1.5s0.7-1.5,1.5-1.5C57.5,46,58.2,46.7,58.2,47.5z M35.1,30.6l2.6,8.3l-13.1,6.8
				c-0.5-0.5-1.2-0.9-2-1.1l-2.1-16.3L31,27.8C31.7,29.4,33.2,30.6,35.1,30.6z M33.7,26c0-0.8,0.7-1.5,1.5-1.5s1.5,0.7,1.5,1.5
				s-0.7,1.5-1.5,1.5S33.7,26.9,33.7,26z M38.6,41.9l3.9,12.5L26,48.9c0-0.2,0-0.4-0.1-0.5L38.6,41.9z M38.5,31.5l4.6,4.6l-2.7,1.4
				L38.5,31.5z M39.4,28c0.3-0.6,0.5-1.3,0.5-2c0-0.7-0.1-1.3-0.4-1.8l7.3-6.8l11.7,8.8c-0.1,0.4-0.2,0.9-0.2,1.4
				c0,0.2,0,0.4,0.1,0.6L46,34.6L39.4,28z M61.3,27.6c0-0.8,0.7-1.5,1.5-1.5c0.8,0,1.5,0.7,1.5,1.5s-0.7,1.5-1.5,1.5
				C62,29.1,61.3,28.4,61.3,27.6z M74.7,39.4l11,9.1l-23.8-2.2L74.7,39.4z M58.2,3.1c0.8,0,1.5,0.7,1.5,1.5s-0.7,1.5-1.5,1.5
				s-1.5-0.7-1.5-1.5S57.4,3.1,58.2,3.1z M56.1,8.7c0.6,0.3,1.3,0.5,2.1,0.5c1.3,0,2.5-0.5,3.3-1.4l12.1,5.6c0,0.1,0,0.3,0,0.4
				c0,0.6,0.1,1.2,0.4,1.8l-8.9,8c-0.7-0.4-1.4-0.6-2.2-0.6c-0.9,0-1.8,0.3-2.5,0.8L49,15.3L56.1,8.7z M53.9,6.1
				c0,0.1,0.1,0.2,0.1,0.3l-7.5,7l-9.7-7.3H53.9z M32.2,3.1c0.8,0,1.5,0.7,1.5,1.5S33,6.1,32.2,6.1c-0.8,0-1.5-0.7-1.5-1.5
				S31.3,3.1,32.2,3.1z M21.5,12.3c0-0.2,0-0.4-0.1-0.6L29,7.9c0.8,0.8,1.9,1.3,3.2,1.3c0.9,0,1.8-0.3,2.5-0.8l9.5,7.1L37.3,22
				c-0.6-0.3-1.3-0.5-2.1-0.5c-2.1,0-3.8,1.4-4.4,3.3l-10.8,0.5l-1.2-8.9C20.4,15.6,21.5,14,21.5,12.3z M16.9,10.7
				c0.8,0,1.5,0.7,1.5,1.5c0,0.8-0.7,1.5-1.5,1.5c-0.8,0-1.5-0.7-1.5-1.5C15.3,11.4,16,10.7,16.9,10.7z M15.4,16.6
				c0.2,0.1,0.4,0.1,0.5,0.2l1.1,8.7l-8.2,0.4c-0.1-0.2-0.2-0.5-0.4-0.7L15.4,16.6z M4.6,26c0.8,0,1.5,0.7,1.5,1.5s-0.7,1.5-1.5,1.5
				s-1.5-0.7-1.5-1.5S3.8,26,4.6,26z M4.6,47.5c-0.8,0-1.5-0.7-1.5-1.5s0.7-1.5,1.5-1.5s1.5,0.7,1.5,1.5S5.4,47.5,4.6,47.5z
				 M17.5,46.8l-8.4-1.5c-0.3-1.7-1.4-3-3-3.6v-9.8c1.4-0.5,2.4-1.6,2.9-3l8.4-0.4l2.1,16.4C18.7,45.3,18,45.9,17.5,46.8z
				 M21.5,50.6c-0.8,0-1.5-0.7-1.5-1.5s0.7-1.5,1.5-1.5c0.8,0,1.5,0.7,1.5,1.5S22.3,50.6,21.5,50.6z M27.6,65.9
				c-0.8,0-1.5-0.7-1.5-1.5s0.7-1.5,1.5-1.5s1.5,0.7,1.5,1.5S28.4,65.9,27.6,65.9z M45.3,67.8l-13.1-3.8c-0.2-2.4-2.1-4.3-4.6-4.3
				c-0.1,0-0.1,0-0.2,0l-2.9-7.3c0.2-0.2,0.4-0.4,0.6-0.6L43.6,58l2.7,8.8C45.9,67.1,45.6,67.4,45.3,67.8z M49,91.9
				c-0.8,0-1.5-0.7-1.5-1.5s0.7-1.5,1.5-1.5s1.5,0.7,1.5,1.5S49.9,91.9,49,91.9z M49,72c-0.8,0-1.5-0.7-1.5-1.5
				c0-0.8,0.7-1.5,1.5-1.5s1.5,0.7,1.5,1.5C50.6,71.3,49.9,72,49,72z M49.1,65.5l-1.9-6.3l3.6,1.2L49.1,65.5z M51.7,57.5L46,55.6
				l-4.7-15.1l4.1-2.1l7.2,7.2c-0.3,0.6-0.5,1.3-0.5,2c0,1.5,0.7,2.8,1.8,3.6L51.7,57.5z M72,91.9c-0.8,0-1.5-0.7-1.5-1.5
				s0.7-1.5,1.5-1.5s1.5,0.7,1.5,1.5S72.9,91.9,72,91.9z M72,67.4c-0.8,0-1.5-0.7-1.5-1.5s0.7-1.5,1.5-1.5s1.5,0.7,1.5,1.5
				S72.9,67.4,72,67.4z M74.3,61.9c-0.7-0.4-1.5-0.7-2.3-0.7c-1.5,0-2.8,0.7-3.6,1.8l-13.8-4.6l2.1-6.4c1.8,0,3.4-1.1,4.1-2.7
				L86,51.7c0,0.2,0.1,0.3,0.1,0.5L74.3,61.9z M77.6,37.9l9.8-5.3c0.4,0.4,1,0.7,1.5,0.9v12.8c-0.3,0.1-0.5,0.2-0.8,0.4L77.6,37.9z
				 M90.4,52.1c-0.8,0-1.5-0.7-1.5-1.5c0-0.8,0.7-1.5,1.5-1.5c0.8,0,1.5,0.7,1.5,1.5C91.9,51.4,91.2,52.1,90.4,52.1z M90.4,30.6
				c-0.8,0-1.5-0.7-1.5-1.5s0.7-1.5,1.5-1.5c0.8,0,1.5,0.7,1.5,1.5S91.2,30.6,90.4,30.6z"/>
			<rect x="3.1" y="0" class="st0" width="3.1" height="3.1"/>
			<rect x="3.1" y="6.1" class="st0" width="3.1" height="3.1"/>
			<rect x="6.1" y="3.1" class="st0" width="3.1" height="3.1"/>
			<rect x="0" y="3.1" class="st0" width="3.1" height="3.1"/>
			<rect x="79.7" y="70.5" class="st0" width="3.1" height="3.1"/>
			<rect x="79.7" y="76.6" class="st0" width="3.1" height="3.1"/>
			<rect x="82.7" y="73.5" class="st0" width="3.1" height="3.1"/>
			<rect x="76.6" y="73.5" class="st0" width="3.1" height="3.1"/>
			<rect x="88.9" y="6.1" class="st0" width="3.1" height="3.1"/>
			<rect x="88.9" y="12.3" class="st0" width="3.1" height="3.1"/>
			<rect x="91.9" y="9.2" class="st0" width="3.1" height="3.1"/>
			<rect x="85.8" y="9.2" class="st0" width="3.1" height="3.1"/>
			<rect x="18.4" y="73.5" class="st0" width="3.1" height="3.1"/>
			<rect x="18.4" y="79.7" class="st0" width="3.1" height="3.1"/>
			<rect x="21.5" y="76.6" class="st0" width="3.1" height="3.1"/>
			<rect x="15.3" y="76.6" class="st0" width="3.1" height="3.1"/>
			<rect x="9.2" y="56.7" class="st0" width="3.1" height="3.1"/>
			<rect x="9.2" y="62.8" class="st0" width="3.1" height="3.1"/>
			<rect x="12.3" y="59.8" class="st0" width="3.1" height="3.1"/>
			<rect x="6.1" y="59.8" class="st0" width="3.1" height="3.1"/>
		</g>
	</g>
</g>
</svg>
