<?xml version="1.0" encoding="utf-8"?>
<!-- Generator: Adobe Illustrator 21.0.2, SVG Export Plug-In . SVG Version: 6.00 Build 0)  -->
<svg version="1.1" id="Capa_1" xmlns="http://www.w3.org/2000/svg" xmlns:xlink="http://www.w3.org/1999/xlink" x="0px" y="0px"
	 viewBox="0 0 71 71" style="enable-background:new 0 0 71 71;" xml:space="preserve">
<style type="text/css">
	.st0{fill:#01BB17;}
</style>
<g>
	<path class="st0" d="M4.8,30.7c0.6,0,1-0.5,1-1v-8.4c0-2.3,1.5-4.1,3.6-4.1h12.2c0.6,0,1-0.5,1-1c0-0.6-0.5-1-1-1H9.4
		c-3.2,0-5.7,2.6-5.7,6.1v8.4C3.7,30.2,4.2,30.7,4.8,30.7z"/>
	<path class="st0" d="M9.4,19.3L9.4,19.3c-1-0.1-1.6,0.7-1.6,2v32.1c0,0.2,0.1,0.5,0.2,0.7c0.3,0.3,0.8,0.6,1.4,0.6h52.2
		c0.6,0,1.1-0.3,1.4-0.6c0.2-0.2,0.2-0.4,0.2-0.7V48c0-0.6-0.5-1-1-1c-0.6,0-1,0.5-1,1v4.6H9.9V21.3H22c0.6,0,1-0.5,1-1
		c0-0.6-0.5-1-1-1H9.4z"/>
	<path class="st0" d="M62.2,44.9c0.6,0,1-0.5,1-1V21.3c0-1.2-0.6-2.1-1.6-2.1H49.3c-0.6,0-1,0.5-1,1c0,0.6,0.5,1,1,1h11.8v22.6
		C61.1,44.4,61.6,44.9,62.2,44.9z"/>
	<path class="st0" d="M69,59h-1.8V21.3c0-3.5-2.4-6.1-5.7-6.1H49.4c-0.6,0-1,0.5-1,1c0,0.6,0.5,1,1,1h12.2c2.1,0,3.6,1.7,3.6,4.1V59
		H42.7c-1.1,0-2,0.9-2,2v1H30.3v-1c0-1.1-0.9-2-2-2H5.8V33.8c0-0.6-0.5-1-1-1s-1,0.5-1,1V59H2c-1.1,0-2,0.9-2,2v2.4
		c0,2.5,2,4.5,4.5,4.5h62.1c2.5,0,4.5-2,4.5-4.5V61C71,59.9,70.1,59,69,59z M68.9,63.5c0,1.3-1.1,2.4-2.4,2.4h-62
		c-1.3,0-2.4-1.1-2.4-2.4v-2.3h2.7h23.4v1c0,1.1,0.9,2,2,2h10.6c1.1,0,2-0.9,2-2v-1h23.4h2.7V63.5z"/>
	<path class="st0" d="M35.5,23.5c2.6,0,4.7-2.1,4.7-4.7s-2.1-4.7-4.7-4.7s-4.7,2.1-4.7,4.7S32.9,23.5,35.5,23.5z M35.5,16.2
		c1.4,0,2.6,1.2,2.6,2.6s-1.2,2.6-2.6,2.6s-2.6-1.2-2.6-2.6C32.9,17.4,34.1,16.2,35.5,16.2z"/>
	<path class="st0" d="M20.7,31.1c0,0.3,0,0.7,0,1c0.1,1.4,1.2,2.5,2.6,2.5h5.5c0.1,0.3,0.2,0.6,0.3,0.9c0.4,1.1,1.5,1.8,2.7,1.8h7.3
		c1.2,0,2.2-0.7,2.7-1.8c0.1-0.3,0.2-0.6,0.3-0.9h5.5c1.4,0,2.5-1.1,2.6-2.5c0-0.3,0-0.6,0-1c0-4-1.6-7.8-4.5-10.6
		c0.3-1.9,0.5-3.7,0.5-5.1C46.2,8.1,37,2.8,36,2.2h-0.1h-0.1h-0.1h-0.1c-0.1,0-0.2,0-0.2,0h-0.1h-0.1c0,0-0.1,0-0.1,0.1
		c-0.1,0-1.5,0.8-3.2,2.1c-0.5,0.3-0.5,1-0.2,1.5s1,0.5,1.5,0.2c1-0.8,1.9-1.4,2.5-1.7c1.1,0.7,4,2.6,6.1,5.1
		c0.1,0.1,0.1,0.1,0.2,0.2l0.1,0.1c0,0,0.1,0.1,0.1,0.2c0,0,0,0,0,0.1H28.9C29.3,9.4,29.6,9,30,8.6s0.4-1.1,0-1.5s-1.1-0.4-1.5,0
		c-0.5,0.6-1,1.2-1.5,1.8c0,0,0,0,0,0.1s-0.1,0.1-0.1,0.2c0,0,0,0,0,0.1c-0.1,0.1-0.2,0.2-0.2,0.3c0,0,0,0,0,0.1
		c-0.1,0.1-0.1,0.2-0.2,0.3c0,0,0,0.1-0.1,0.1c-0.1,0.1-0.1,0.2-0.2,0.3c0,0,0,0,0,0.1c-0.9,1.7-1.4,3.3-1.4,5
		c-0.1,1.3,0.1,3.1,0.4,5C22.3,23.3,20.7,27.1,20.7,31.1z M48.2,31.1c0,0.3,0,0.6,0,0.8c0,0.3-0.3,0.5-0.5,0.5h-4.8
		c1-3.1,1.9-6.3,2.5-9.4C47.2,25.4,48.2,28.2,48.2,31.1z M27.9,12c-0.3,0,15.5,0,15.5,0c0.7,1.4,0.9,2.5,0.9,3.4
		c0,4.6-1.9,13-4.3,19.3c-0.1,0.3-0.4,0.5-0.7,0.5H32c-0.3,0-0.6-0.2-0.7-0.5C28.9,28.4,27,20,27,15.4C27,14.3,27.3,13.1,27.9,12z
		 M28.2,32.6h-4.9v-0.1c-0.3,0-0.5-0.2-0.5-0.5s0-0.6,0-0.8c0-2.9,1-5.8,2.9-8C26.3,26.2,27.2,29.5,28.2,32.6z"/>
	<path class="st0" d="M34,45.2c-0.1-0.6-0.6-1-1.1-0.9c-0.6,0.1-1,0.6-0.9,1.1c0.2,2,1.3,3.8,3,5c0.2,0.1,0.4,0.2,0.6,0.2
		c0.2,0,0.4-0.1,0.6-0.2c1.9-1.3,3.1-3.4,3.1-5.7s-1.1-4.4-3.1-5.7c-0.3-0.2-0.8-0.2-1.1,0c-0.6,0.4-1.2,0.9-1.6,1.5
		C33,41,33,41.7,33.5,42c0.5,0.4,1.1,0.3,1.5-0.2c0.2-0.2,0.4-0.4,0.6-0.6c1,0.9,1.6,2.1,1.6,3.5c-0.1,1.4-0.7,2.7-1.7,3.5
		C34.6,47.4,34.1,46.4,34,45.2z"/>
</g>
</svg>
