<?xml version="1.0" encoding="utf-8"?>
<!-- Generator: Adobe Illustrator 21.0.2, SVG Export Plug-In . SVG Version: 6.00 Build 0)  -->
<svg version="1.1" id="Layer_1" xmlns="http://www.w3.org/2000/svg" xmlns:xlink="http://www.w3.org/1999/xlink" x="0px" y="0px"
	 viewBox="0 0 100 62" style="enable-background:new 0 0 100 62;" xml:space="preserve">
<style type="text/css">
	.st0{fill:#01BB17;}
</style>
<g>
	<g>
		<path class="st0" d="M39.8,19.7h7.9v8.1h3.2v-8.1h8.3c1.8,0,3-1.6,3-3.4v-13c0-1.8-1.3-3-3-3H39.8c-1.8,0-3.4,1.2-3.4,3v12.9
			C36.4,18,38,19.7,39.8,19.7z M39.6,3.3L39.6,3.3h19.5L59,16.2H39.5L39.6,3.3L39.6,3.3z M89.9,42.3h-6.7V34c0-0.9-0.5-1.4-1.4-1.4
			h-63c-0.9,0-1.8,0.5-1.8,1.4v8.3H9.1c-1.8,0-3.4,1.2-3.4,3v12.9c0,1.8,1.7,3.4,3.4,3.4h19.4c1.8,0,3-1.6,3-3.4V45.3
			c0-1.8-1.3-3-3-3h-8.3v-6.5h27.5v6.5h-7.9c-1.8,0-3.4,1.2-3.4,3v12.9c0,1.8,1.7,3.4,3.4,3.4h19.4c1.8,0,3-1.6,3-3.4V45.3
			c0-1.8-1.3-3-3-3h-8.3v-6.5H80v6.5h-9.5c-1.8,0-3.4,1.2-3.4,3v12.9c0,1.8,1.7,3.4,3.4,3.4h19.4c1.8,0,3-1.6,3-3.4V45.3
			C93,43.6,91.7,42.3,89.9,42.3z M28.5,45.3l-0.1,12.9H8.9V45.3H9h9.7l0,0l0,0H28.5z M59.2,45.3l-0.1,12.9H39.6V45.3h0.1H59.2z
			 M89.8,58.3H70.3v-13h0.1h11.3l0,0l0,0h8L89.8,58.3z"/>
	</g>
</g>
</svg>
