<?xml version="1.0" encoding="utf-8"?>
<!-- Generator: Adobe Illustrator 21.0.2, SVG Export Plug-In . SVG Version: 6.00 Build 0)  -->
<svg version="1.1" id="Layer_1" xmlns="http://www.w3.org/2000/svg" xmlns:xlink="http://www.w3.org/1999/xlink" x="0px" y="0px"
	 viewBox="0 0 76 70" style="enable-background:new 0 0 76 70;" xml:space="preserve">
<style type="text/css">
	.st0{fill:#212121;}
</style>
<g>
	<g>
		<path class="st0" d="M76.2,58.9V0.2H0v58.7h23.8v7.9h-6.3V70h41.3v-3.2h-6.3v-7.9L76.2,58.9L76.2,58.9z M3.2,3.3H73v42.9H3.2V3.3z
			 M49.2,66.8H27v-7.9h22.2V66.8z M3.2,55.7v-6.3H73v6.3H3.2z"/>
	</g>
</g>
<g>
	<g>
		<rect x="47.6" y="6.5" class="st0" width="20.6" height="3.2"/>
	</g>
</g>
<g>
	<g>
		<rect x="36.5" y="6.5" class="st0" width="7.9" height="3.2"/>
	</g>
</g>
<g>
	<g>
		<rect x="30.2" y="6.5" class="st0" width="3.2" height="3.2"/>
	</g>
</g>
<g>
	<g>
		<rect x="23.8" y="6.5" class="st0" width="3.2" height="3.2"/>
	</g>
</g>
<g>
	<g>
		<rect x="49.2" y="30.3" class="st0" width="19" height="3.2"/>
	</g>
</g>
<g>
	<g>
		<rect x="42.9" y="30.3" class="st0" width="3.2" height="3.2"/>
	</g>
</g>
<g>
	<g>
		<rect x="36.5" y="30.3" class="st0" width="3.2" height="3.2"/>
	</g>
</g>
<g>
	<g>
		<rect x="52.4" y="22.4" class="st0" width="15.9" height="3.2"/>
	</g>
</g>
<g>
	<g>
		<rect x="30.2" y="22.4" class="st0" width="19" height="3.2"/>
	</g>
</g>
<g>
	<g>
		<rect x="34.9" y="14.5" class="st0" width="6.3" height="3.2"/>
	</g>
</g>
<g>
	<g>
		<rect x="44.4" y="14.5" class="st0" width="23.8" height="3.2"/>
	</g>
</g>
<g>
	<g>
		<rect x="7.9" y="14.5" class="st0" width="23.8" height="3.2"/>
	</g>
</g>
<g>
	<g>
		<rect x="38.1" y="38.3" class="st0" width="30.2" height="3.2"/>
	</g>
</g>
<g>
	<g>
		<polygon class="st0" points="27.3,28.4 25.1,30.7 29.5,35.1 25.1,39.5 27.3,41.8 34,35.1 		"/>
	</g>
</g>
<g>
	<g>
		<polygon class="st0" points="14.6,30.7 12.4,28.4 5.7,35.1 12.4,41.8 14.6,39.5 10.2,35.1 		"/>
	</g>
</g>
<g>
	<g>
		
			<rect x="11.3" y="33.5" transform="matrix(0.3711 -0.9286 0.9286 0.3711 -20.1037 40.4885)" class="st0" width="17.1" height="3.2"/>
	</g>
</g>
</svg>
