<?xml version="1.0" encoding="utf-8"?>
<!-- Generator: Adobe Illustrator 21.0.2, SVG Export Plug-In . SVG Version: 6.00 Build 0)  -->
<svg version="1.1" id="Capa_1" xmlns="http://www.w3.org/2000/svg" xmlns:xlink="http://www.w3.org/1999/xlink" x="0px" y="0px"
	 viewBox="0 0 73 73" style="enable-background:new 0 0 73 73;" xml:space="preserve">
<style type="text/css">
	.st0{fill:#212121;}
	.st1{fill:#FFFFFF;}
</style>
<g>
	<g>
		<g>
			<path class="st0" d="M61.9,34.1h-5.8c-0.8,0-1.4,0.6-1.4,1.4v2.9h-4.3v-9.7l18.3-18.3c0.6-0.6,0.6-1.5,0-2l-4.1-4.1
				c-0.6-0.6-1.5-0.6-2,0L50.4,16.4v-2.5c0-2.4-1.9-4.3-4.3-4.3H7.8L2.5,4.3C2.2,4,1.8,3.9,1.4,3.9C0.6,3.9,0,4.5,0,5.3v34.6
				c0,0.8,0.6,1.4,1.4,1.4h10.1V50c0,0.8,0.6,1.4,1.4,1.4h41.8v20.2c0,0.8,0.6,1.4,1.4,1.4h11.5c0.8,0,1.4-0.6,1.4-1.4V41.3
				C69.1,37.3,65.9,34.1,61.9,34.1z M63.6,7.3l2.1,2.1L47,28.1L44.9,26L63.6,7.3z M46.1,12.5c0.8,0,1.4,0.6,1.4,1.4v5.3L41.8,25
				c-0.2,0.2-0.3,0.5-0.4,0.7l0,0l-0.8,4h-7.5v2.9h8.6c0.1,0,0.2,0,0.3,0l5.1-1c0.1,0,0.2-0.1,0.3-0.1v6.9H36.6L10.7,12.5
				C10.7,12.5,46.1,12.5,46.1,12.5z M2.9,8.8l29.7,29.7H13H2.9V8.8z M50.4,48.5v-2.9h-2.9v2.9h-2.9v-2.9h-2.9v2.9h-2.9v-2.9H36v2.9
				h-2.9v-2.9h-2.9v2.9h-2.9v-2.9h-2.9v2.9h-2.9v-2.9h-2.9v2.9h-4.3v-7.2H36h18.7v7.2H50.4z M66.3,70.1h-8.6V50V39.9V37h4.3
				c2.4,0,4.3,1.9,4.3,4.3V70.1z"/>
			<circle class="st0" cx="61.9" cy="64.4" r="2.9"/>
			<path class="st0" d="M19.7,35.1c0.6-0.6,0.6-1.5,0-2L8.2,21.6c-0.3-0.3-0.6-0.4-1-0.4c-0.8,0-1.4,0.6-1.4,1.4v11.5
				c0,0.8,0.6,1.4,1.4,1.4h11.5C19.1,35.5,19.5,35.4,19.7,35.1z M8.6,32.7v-6.6l6.6,6.6H8.6z"/>
			<path class="st0" d="M47.5,68.7c0,0.8-0.6,1.4-1.4,1.4H4.3c-0.8,0-1.4-0.6-1.4-1.4V44.2H0v24.5C0,71.1,1.9,73,4.3,73h41.8
				c2.4,0,4.3-1.9,4.3-4.3V54.3h-2.9V68.7z"/>
			<path class="st0" d="M5.8,60v5.8c0,0.8,0.6,1.4,1.4,1.4H13v-2.9H8.6V60L5.8,60L5.8,60z"/>
			<rect x="15.8" y="64.4" class="st0" width="2.9" height="2.9"/>
		</g>
	</g>
</g>
<rect x="50.4" y="0.3" class="st1" width="19.4" height="31.8"/>
<rect x="31.8" y="17.4" class="st1" width="15.7" height="15.7"/>
<rect x="47.5" y="16.8" class="st0" width="2.9" height="14.9"/>
<path class="st0" d="M31,24c0.2,0.2,0.4,0.2,0.6,0.2c0.2,0,0.4-0.1,0.6-0.2c0.3-0.3,0.3-0.9,0-1.2L29.3,20l2.9-2.9
	c0.3-0.3,0.3-0.9,0-1.2c-0.3-0.3-0.9-0.3-1.2,0l-3.5,3.5c-0.3,0.3-0.3,0.9,0,1.2L31,24z"/>
<path class="st0" d="M40.3,22.3l-0.6,0.6c-0.3,0.3-0.3,0.9,0,1.2c0.2,0.2,0.4,0.2,0.6,0.2c0.2,0,0.4-0.1,0.6-0.2l3.5-3.5
	c0.3-0.3,0.3-0.9,0-1.2l-3.5-3.5c-0.3-0.3-0.9-0.3-1.2,0c-0.3,0.3-0.3,0.9,0,1.2l0.6,0.6l2.3,2.3L40.3,22.3z"/>
<path class="st0" d="M34.2,24.2c0.1,0,0.2,0.1,0.3,0.1c0.3,0,0.6-0.2,0.8-0.5l2.9-7c0.2-0.4,0-0.9-0.4-1.1c-0.4-0.2-0.9,0-1.1,0.4
	l-2.9,7C33.6,23.5,33.8,24,34.2,24.2z"/>
</svg>
