<?xml version="1.0" encoding="utf-8"?>
<!-- Generator: Adobe Illustrator 21.0.2, SVG Export Plug-In . SVG Version: 6.00 Build 0)  -->
<svg version="1.1" id="Capa_1" xmlns="http://www.w3.org/2000/svg" xmlns:xlink="http://www.w3.org/1999/xlink" x="0px" y="0px"
	 viewBox="0 0 72 70" style="enable-background:new 0 0 72 70;" xml:space="preserve">
<style type="text/css">
	.st0{fill:#212121;}
</style>
<g>
	<g>
		<path class="st0" d="M68.6,0.1H3.4C1.5,0.1,0,1.6,0,3.5V53c0,0.6,0.5,1.1,1.1,1.1h25.6l-1.8,9h-2.5c-0.6,0-1.1,0.5-1.1,1.1v3.4
			h-2.3v2.3h33.8v-2.3h-2.3v-3.4c0-0.6-0.5-1.1-1.1-1.1H47l-1.8-9h25.6c0.6,0,1.1-0.5,1.1-1.1V3.5C72,1.6,70.5,0.1,68.6,0.1z
			 M46.1,65.4h2.3v2.3H23.6v-2.3h2.3H46.1z M27.2,63.1l1.8-9H43l1.8,9H27.2z M69.8,51.9H2.3V41.8H18h6.8h6.8h6.8H45h9h15.8V51.9z
			 M54,10.3h-9c-0.6,0-1.1,0.5-1.1,1.1v10.1h2.3v-9h6.8V17h-4.5v2.3h4.5v5.6h-4.5v2.3h4.5v5.6h-4.5V35h4.5v4.5h-6.8v-9h-2.3v9h-4.5
			v-5.6c0-4.6,5.6-5.6,5.8-5.6c0.1,0,0.3-0.1,0.4-0.1c0.5-0.3,0.7-1,0.4-1.5L35.8,9.7c-0.1-0.1-0.2-0.2-0.3-0.3
			C35,9,34.3,9.1,33.9,9.7L23.8,26.5c-0.1,0.1-0.1,0.3-0.1,0.4c-0.1,0.6,0.3,1.2,0.9,1.3c0.2,0,5.8,1,5.8,5.6v5.6h-4.5v-9h-2.3v9
			h-1.1V19.3h1.1v2.3h2.3v-3.4c0-0.2,0-0.3-0.1-0.4l-3.4-7.9c-0.1-0.3-0.3-0.5-0.6-0.6c-0.6-0.2-1.2,0-1.5,0.6L17,17.7
			c-0.1,0.1-0.1,0.3-0.1,0.4v21.4h-9V8h56.3v31.5h-9V11.4C55.1,10.8,54.6,10.3,54,10.3z M32.6,36.1V35h4.5v1.1H32.6z M37.1,38.4v1.1
			h-4.5v-1.1H37.1z M32.5,32.8c-0.5-3.6-3.6-5.5-6.1-6.3l7.3-12.1v9.4H36v-9.4l7.3,12.1c-2.5,0.8-5.5,2.8-6.1,6.3L32.5,32.8
			L32.5,32.8z M19.7,17l1.7-3.9L23,17H19.7z M20.3,19.3v20.3h-1.1V19.3H20.3z M69.8,39.5h-3.4V6.9c0-0.6-0.5-1.1-1.1-1.1H6.8
			c-0.6,0-1.1,0.5-1.1,1.1v32.6H2.3v-36c0-0.6,0.5-1.1,1.1-1.1h65.3c0.6,0,1.1,0.5,1.1,1.1V39.5z"/>
	</g>
</g>
<g>
	<g>
		<path class="st0" d="M36,42.9c-1.9,0-3.4,1.5-3.4,3.4c0,1.9,1.5,3.4,3.4,3.4s3.4-1.5,3.4-3.4C39.4,44.4,37.9,42.9,36,42.9z
			 M36,47.4c-0.6,0-1.1-0.5-1.1-1.1s0.5-1.1,1.1-1.1s1.1,0.5,1.1,1.1S36.6,47.4,36,47.4z"/>
	</g>
</g>
</svg>
