<?xml version="1.0" encoding="utf-8"?>
<!-- Generator: Adobe Illustrator 21.0.2, SVG Export Plug-In . SVG Version: 6.00 Build 0)  -->
<svg version="1.1" id="Layer_1" xmlns="http://www.w3.org/2000/svg" xmlns:xlink="http://www.w3.org/1999/xlink" x="0px" y="0px"
	 viewBox="0 0 77 49" style="enable-background:new 0 0 77 49;" xml:space="preserve">
<style type="text/css">
	.st0{fill:#212121;}
</style>
<g>
	<g>
		<path class="st0" d="M60.8,33c-1.5-3.2-6.9-7.5-12.1-11.7c-2.9-2.4-5.7-4.6-7.4-6.3c-0.4-0.4-1.1-0.6-1.7-0.4
			c-1.1,0.4-1.7,0.7-2.3,0.9c-0.8,0.4-1.1,0.5-2.2,0.6c-0.5,0-0.9,0.3-1.2,0.7c-2.3,3.4-4.6,3.1-6.2,2.6c-0.5-0.2-0.6-0.4-0.6-0.6
			c-0.3-1.4,1.4-4.7,3.5-6.9c5.2-5.2,7.9-6.5,13.6-4c6.4,2.9,12.9,5.1,13,5.2c0.8,0.3,1.8-0.2,2-1c0.3-0.8-0.2-1.8-1-2
			c-0.1,0-6.4-2.2-12.7-5.1c-7.4-3.3-11.4-1.1-17.2,4.6c-2.2,2.2-5.2,6.6-4.4,9.9c0.3,1.4,1.3,2.4,2.8,2.9c3.6,1.2,7,0.1,9.4-3.2
			c1-0.2,1.6-0.4,2.4-0.8c0.3-0.1,0.7-0.3,1.1-0.5c1.8,1.7,4.3,3.7,6.9,5.8c4.7,3.8,10.1,8.1,11.3,10.6c0.6,1.2,0,2-0.5,2.4
			c-0.6,0.5-1.5,0.7-2,0.4c-0.5-0.4-1.2-0.4-1.7-0.1c-0.5,0.3-0.8,0.9-0.8,1.5c0.1,1-0.8,1.6-1.2,1.8c-1,0.5-2.1,0.4-2.5,0.1
			c-0.4-0.4-1.1-0.5-1.7-0.3c-0.6,0.2-1,0.7-1,1.4c-0.1,1.1-0.9,2.1-1.9,2.5c-0.5,0.2-1.2,0.3-1.8-0.3c-0.4-0.4-0.9-0.5-1.5-0.4
			c-0.5,0.1-0.9,0.5-1.1,1c-0.1,0.2-0.2,0.5-1.7,0.5c-1.1,0-3-0.7-3.9-1.3c-1.1-0.7-8.2-6-14.3-11.1c-0.9-0.7-2.3-2.3-3.6-3.6
			c-1.2-1.2-2.2-2.3-2.8-2.8c-0.7-0.6-1.7-0.5-2.3,0.2c-0.6,0.7-0.5,1.7,0.2,2.3c0.5,0.4,1.5,1.4,2.5,2.5c1.4,1.5,2.9,3,3.9,3.9
			c6,5,13.2,10.4,14.6,11.3c1.2,0.8,3.7,1.9,5.7,1.9c1.6,0,2.8-0.4,3.6-1.1c1.1,0.4,2.4,0.4,3.6,0c1.5-0.6,2.7-1.7,3.3-3.1
			c1.3,0.3,2.7,0.1,4-0.6c1.3-0.6,2.2-1.6,2.7-2.8c1.3,0.1,2.6-0.4,3.7-1.3C61.4,37.7,61.9,35.2,60.8,33z"/>
	</g>
</g>
<g>
	<g>
		<path class="st0" d="M32.1,6.4H17.6C16.8,6.4,16,7.1,16,8c0,0.9,0.7,1.6,1.6,1.6h14.4c0.9,0,1.6-0.7,1.6-1.6
			C33.7,7.1,33,6.4,32.1,6.4z"/>
	</g>
</g>
<g>
	<g>
		<path class="st0" d="M65.5,29.6c-0.5-0.7-1.5-0.9-2.2-0.4l-4.7,3.2c-0.7,0.5-0.9,1.5-0.4,2.2c0.3,0.5,0.8,0.7,1.3,0.7
			c0.3,0,0.6-0.1,0.9-0.3l4.7-3.2C65.8,31.3,66,30.3,65.5,29.6z"/>
	</g>
</g>
<g>
	<g>
		<path class="st0" d="M55.5,37.2c-1.1-0.9-6.3-6.2-9.5-9.5c-0.6-0.6-1.6-0.7-2.3,0c-0.6,0.6-0.7,1.6,0,2.3c0.8,0.9,8.1,8.4,9.8,9.8
			c0.3,0.2,0.6,0.3,1,0.3c0.5,0,0.9-0.2,1.3-0.6C56.4,38.8,56.2,37.8,55.5,37.2z"/>
	</g>
</g>
<g>
	<g>
		<path class="st0" d="M49.1,40.5c-1.9-1.5-6.8-6.7-7.8-7.9c-0.6-0.7-1.6-0.7-2.3-0.1c-0.7,0.6-0.7,1.6-0.1,2.3
			c0.1,0.1,5.8,6.3,8.2,8.2c0.3,0.2,0.7,0.3,1,0.3c0.5,0,0.9-0.2,1.3-0.6C49.9,42,49.8,41,49.1,40.5z"/>
	</g>
</g>
<g>
	<g>
		<path class="st0" d="M42.7,43.7c-2.3-1.9-7-6.9-7.9-7.9c-0.6-0.6-1.6-0.7-2.3-0.1c-0.6,0.6-0.7,1.6-0.1,2.3
			c1.3,1.4,5.8,6.2,8.2,8.2c0.3,0.3,0.7,0.4,1,0.4c0.5,0,0.9-0.2,1.2-0.6C43.5,45.3,43.4,44.3,42.7,43.7z"/>
	</g>
</g>
<g>
	<g>
		<path class="st0" d="M18.7,3.6C16,1,5,0.2,1.7,0C1.2,0,0.8,0.1,0.5,0.4C0.2,0.7,0,1.2,0,1.6v28.9c0,0.9,0.7,1.6,1.6,1.6h9.6
			c0.7,0,1.3-0.4,1.5-1.1c0.2-0.7,5.8-17.7,6.5-26C19.3,4.5,19.1,4,18.7,3.6z M10.1,28.9H3.2V3.3c5.2,0.4,10.7,1.3,12.7,2.3
			C15.1,12.6,11.3,25.1,10.1,28.9z"/>
	</g>
</g>
<g>
	<g>
		<path class="st0" d="M75.4,3.2c-12.6,0-19.6,3.2-19.9,3.4c-0.4,0.2-0.7,0.6-0.9,1c-0.1,0.4-0.1,0.9,0.2,1.3
			c2,3.2,8.2,20.9,9.4,25.2c0.2,0.7,0.8,1.2,1.5,1.2h9.6c0.9,0,1.6-0.7,1.6-1.6V4.8C77,3.9,76.3,3.2,75.4,3.2z M73.8,32.1H67
			c-1.5-5-6-17.9-8.5-23.2c2.4-0.8,7.7-2.3,15.3-2.4V32.1z"/>
	</g>
</g>
</svg>
