<?xml version="1.0" encoding="utf-8"?>
<!-- Generator: Adobe Illustrator 21.0.2, SVG Export Plug-In . SVG Version: 6.00 Build 0)  -->
<svg version="1.1" id="Capa_1" xmlns="http://www.w3.org/2000/svg" xmlns:xlink="http://www.w3.org/1999/xlink" x="0px" y="0px"
	 viewBox="0 0 73 73" style="enable-background:new 0 0 73 73;" xml:space="preserve">
<style type="text/css">
	.st0{fill:#212121;}
</style>
<g>
	<g>
		<path class="st0" d="M57.7,45.3c-1.5-1.6-3.3-2.4-5.2-2.4c-1.9,0-3.7,0.8-5.3,2.4l-4.9,4.9c-0.4-0.2-0.8-0.4-1.2-0.6
			c-0.6-0.3-1.1-0.5-1.5-0.8C35.1,45.8,31,42,27,37.1c-1.9-2.4-3.2-4.5-4.2-6.6c1.3-1.2,2.4-2.4,3.6-3.5c0.4-0.4,0.9-0.9,1.3-1.3
			c3.2-3.2,3.2-7.4,0-10.7l-4.2-4.2c-0.5-0.5-1-1-1.4-1.5c-0.9-1-1.9-1.9-2.9-2.9C17.6,5,15.9,4.2,14,4.2S10.3,5,8.7,6.5
			c0,0,0,0,0,0l-5.2,5.3c-2,2-3.1,4.4-3.3,7.2c-0.4,4.5,1,8.7,2,11.4c2.5,6.7,6.2,13,11.8,19.7C20.6,58.2,28.8,64.5,38,69
			c3.5,1.7,8.3,3.7,13.6,4c0.3,0,0.7,0,1,0c3.6,0,6.6-1.3,8.9-3.8c0,0,0,0,0.1-0.1c0.8-1,1.7-1.9,2.7-2.8c0.7-0.6,1.3-1.3,2-2
			c1.5-1.6,2.3-3.4,2.3-5.3c0-1.9-0.8-3.7-2.4-5.3L57.7,45.3z M63.3,61.5C63.2,61.5,63.2,61.5,63.3,61.5c-0.6,0.6-1.2,1.2-1.9,1.9
			c-1,1-2,2-3,3.1c-1.6,1.7-3.4,2.5-5.8,2.5c-0.2,0-0.5,0-0.7,0c-4.6-0.3-8.8-2.1-12-3.6c-8.7-4.2-16.4-10.2-22.8-17.8
			C11.8,41.1,8.3,35.3,6,29c-1.4-3.8-2-6.8-1.7-9.7c0.2-1.8,0.8-3.3,2.1-4.6l5.3-5.3c0.8-0.7,1.6-1.1,2.3-1.1c1,0,1.8,0.6,2.3,1.1
			c0,0,0,0,0,0c0.9,0.9,1.8,1.8,2.8,2.8c0.5,0.5,1,1,1.5,1.5l4.2,4.2c1.6,1.6,1.6,3.1,0,4.8c-0.4,0.4-0.9,0.9-1.3,1.3
			c-1.3,1.3-2.5,2.6-3.9,3.8c0,0-0.1,0-0.1,0.1c-1.3,1.3-1.1,2.6-0.8,3.5c0,0,0,0.1,0,0.1c1.1,2.7,2.6,5.1,5,8.1l0,0
			c4.3,5.2,8.7,9.3,13.7,12.5c0.6,0.4,1.3,0.7,1.9,1c0.6,0.3,1.1,0.5,1.5,0.8c0.1,0,0.1,0.1,0.2,0.1c0.5,0.3,1,0.4,1.5,0.4
			c1.3,0,2.1-0.8,2.3-1.1l5.3-5.3c0.5-0.5,1.4-1.2,2.3-1.2c1,0,1.7,0.6,2.2,1.1c0,0,0,0,0,0l8.5,8.5C64.8,58.2,64.8,59.9,63.3,61.5z
			"/>
		<path class="st0" d="M39.5,17.4c4,0.7,7.7,2.6,10.6,5.5s4.8,6.6,5.5,10.6c0.2,1,1,1.7,2.1,1.7c0.1,0,0.2,0,0.4,0
			c1.1-0.2,1.9-1.3,1.7-2.4c-0.8-4.9-3.1-9.3-6.7-12.9c-3.5-3.5-8-5.8-12.9-6.7c-1.1-0.2-2.2,0.6-2.4,1.7S38.3,17.2,39.5,17.4z"/>
		<path class="st0" d="M73,32.2c-1.4-8-5.2-15.4-11-21.2S48.8,1.4,40.8,0c-1.1-0.2-2.2,0.6-2.4,1.7c-0.2,1.1,0.6,2.2,1.7,2.4
			C47.3,5.4,53.8,8.8,59,14c5.2,5.2,8.6,11.8,9.8,18.9c0.2,1,1,1.7,2.1,1.7c0.1,0,0.2,0,0.4,0C72.4,34.4,73.2,33.4,73,32.2z"/>
	</g>
</g>
</svg>
