<?xml version="1.0" encoding="utf-8"?>
<!-- Generator: Adobe Illustrator 21.0.2, SVG Export Plug-In . SVG Version: 6.00 Build 0)  -->
<svg version="1.1" id="Layer_1" xmlns="http://www.w3.org/2000/svg" xmlns:xlink="http://www.w3.org/1999/xlink" x="0px" y="0px"
	 viewBox="0 0 85 85" style="enable-background:new 0 0 85 85;" xml:space="preserve">
<style type="text/css">
	.st0{fill:#00769D;}
</style>
<g>
	<path class="st0" d="M25.5,26.2h-4.7l12.8,36.2l7.2-20.5l-5.6-15.7h-5v-3.4h21.9v3.4h-5.1l12.8,36.2l4.6-13.1
		c6-16.8-4.9-22.1-4.9-25.8s3-6.8,6.8-6.8c0.2,0,0.4,0,0.6,0c-6.4-6-15-9.7-24.4-9.7c-12.3,0-23.2,6.3-29.6,15.8h12.6L25.5,26.2
		L25.5,26.2L25.5,26.2z"/>
	<path class="st0" d="M6.9,42.5c0,13.6,7.7,25.4,18.9,31.4l-16-45.4C8,32.8,6.9,37.5,6.9,42.5z"/>
	<path class="st0" d="M73.4,25c0.5,3,0.4,6.4-0.4,9.7h0.1l-0.5,1.5l0,0c-0.3,1.1-0.7,2.2-1.2,3.4L59.2,73.9
		c11.2-6,18.8-17.8,18.8-31.4C78.1,36.1,76.4,30.1,73.4,25z"/>
	<path class="st0" d="M31.5,76.3c3.5,1.1,7.1,1.7,11,1.7c3.7,0,7.2-0.6,10.5-1.6L42.6,47.1L31.5,76.3z"/>
	<path class="st0" d="M72.6,12.4C64.5,4.4,53.9,0,42.5,0s-22,4.4-30.1,12.4S0,31.1,0,42.5c0,11.4,4.4,22,12.4,30.1S31.1,85,42.5,85
		s22-4.4,30.1-12.4c8-8,12.4-18.7,12.4-30.1C85,31.1,80.6,20.5,72.6,12.4z M42.5,82C20.7,82,3,64.3,3,42.5S20.7,3,42.5,3
		S82,20.7,82,42.5S64.3,82,42.5,82z"/>
</g>
</svg>
