<?xml version="1.0" encoding="utf-8"?>
<!-- Generator: Adobe Illustrator 21.0.2, SVG Export Plug-In . SVG Version: 6.00 Build 0)  -->
<svg version="1.1" id="Слой_1" xmlns="http://www.w3.org/2000/svg" xmlns:xlink="http://www.w3.org/1999/xlink" x="0px" y="0px"
	 viewBox="0 0 73 73" style="enable-background:new 0 0 73 73;" xml:space="preserve">
<style type="text/css">
	.st0{fill:#F9AE41;}
	.st1{fill:#EE4035;}
	.st2{fill:#4F91CD;}
	.st3{fill:#7AC043;}
</style>
<g>
	<path class="st0" d="M73,9.9c0-5.3-4.3-9.6-9.6-9.6c-4.8,0-8.8,3.6-9.5,8.2c-0.1,0-0.1-0.1-0.1-0.1C46,5,39.4,11.3,39.4,11.3
		L22,28.8l6.9,6.6l14-13.8c6.6-6.6,10.1-2.1,10.1-2.1c4.9,4.2,0.2,9.1,0.2,9.1l7.1,6.8c5.8-6.2,6.1-11.7,4.3-16
		C69.3,18.8,73,14.8,73,9.9"/>
	<path class="st1" d="M64.7,54C64.8,53.9,64.8,53.9,64.7,54C68.3,46,62,39.4,62,39.4L44.5,22l-6.6,6.9l13.8,14
		c6.6,6.6,2.1,10.1,2.1,10.1c-4.2,4.9-9.1,0.2-9.1,0.2l-6.8,7.1c6.2,5.8,11.7,6.1,16,4.3c0.6,4.7,4.6,8.4,9.5,8.4
		c5.3,0,9.6-4.3,9.6-9.6C72.9,58.6,69.4,54.6,64.7,54"/>
	<path class="st2" d="M44.7,37.6l-14,13.8c-6.6,6.6-10.1,2.1-10.1,2.1c-4.9-4.2-0.2-9.1-0.2-9.1l-7.1-6.8c-5.8,6.2-6.1,11.7-4.3,16
		c-4.7,0.6-8.4,4.6-8.4,9.5c0,5.3,4.3,9.6,9.6,9.6c4.8,0,8.8-3.6,9.5-8.2c0.1,0,0.1,0.1,0.1,0.1c7.8,3.5,14.4-2.7,14.4-2.7
		l17.4-17.5L44.7,37.6"/>
	<path class="st3" d="M21.9,30.1C15.3,23.6,19.8,20,19.8,20c4.2-4.9,9.1-0.2,9.1-0.2l6.8-7.1C29.5,7,24,6.7,19.7,8.4
		c-0.6-4.7-4.6-8.4-9.5-8.4c-5.3,0-9.6,4.3-9.6,9.6c0,4.8,3.6,8.8,8.2,9.5c0,0.1-0.1,0.1-0.1,0.1c-3.5,7.8,2.7,14.4,2.7,14.4
		L29,51.1l6.6-6.9L21.9,30.1"/>
</g>
</svg>
