<?xml version="1.0" encoding="utf-8"?>
<!-- Generator: Adobe Illustrator 21.0.2, SVG Export Plug-In . SVG Version: 6.00 Build 0)  -->
<svg version="1.1" id="Capa_1" xmlns="http://www.w3.org/2000/svg" xmlns:xlink="http://www.w3.org/1999/xlink" x="0px" y="0px"
	 viewBox="0 0 65 57" style="enable-background:new 0 0 65 57;" xml:space="preserve">
<style type="text/css">
	.st0{fill:#01BB17;}
</style>
<g>
	<g>
		<g>
			<path class="st0" d="M61.9,0.5H3.7C2,0.5,0.6,1.9,0.6,3.6v36.5c0,1.7,1.4,3.1,3.1,3.1h21.7v7.1H17c-1.6,0-2.9,1.3-2.9,2.9
				c0,1.6,1.3,2.9,2.9,2.9h31.6c1.6,0,2.9-1.3,2.9-2.9c0-1.6-1.3-2.9-2.9-2.9h-8.5v-7.1h21.7c1.7,0,3.1-1.4,3.1-3.1V3.6
				C65,1.9,63.6,0.5,61.9,0.5z M60.3,38.5h-55V5.1h55V38.5z"/>
			<path class="st0" d="M15.4,23.6l9.8,4.6c0.3,0.1,0.5,0.2,0.8,0.2c0.4,0,0.7-0.1,1-0.3c0.6-0.4,0.9-1,0.9-1.6v-0.1
				c0-0.7-0.4-1.4-1.1-1.7l-6.2-2.9l6.2-2.9c0.7-0.3,1.1-1,1.1-1.7v0c0-0.7-0.3-1.3-0.9-1.6c-0.3-0.2-0.7-0.3-1-0.3
				c-0.3,0-0.6,0.1-0.8,0.2L15.4,20c-0.7,0.3-1.1,1-1.1,1.7v0.1C14.3,22.6,14.7,23.3,15.4,23.6z"/>
			<path class="st0" d="M28,32.9c0.4,0.5,0.9,0.8,1.5,0.8h0c0.8,0,1.6-0.5,1.8-1.3l6.5-20.1c0.2-0.6,0.1-1.2-0.3-1.7
				c-0.4-0.5-0.9-0.8-1.5-0.8h0c-0.8,0-1.6,0.5-1.8,1.3l-6.5,20.1C27.5,31.8,27.6,32.4,28,32.9z"/>
			<path class="st0" d="M37.7,17.2c0,0.7,0.4,1.4,1.1,1.7l6.2,2.9l-6.2,2.9c-0.7,0.3-1.1,1-1.1,1.7v0.1c0,0.7,0.3,1.3,0.9,1.6
				c0.3,0.2,0.7,0.3,1,0.3c0.3,0,0.5-0.1,0.8-0.2l9.8-4.6c0.7-0.3,1.1-1,1.1-1.7v-0.1c0-0.7-0.4-1.4-1.1-1.7l-9.8-4.6
				c-0.2-0.1-0.5-0.2-0.8-0.2c-0.4,0-0.7,0.1-1,0.3C38,15.9,37.7,16.5,37.7,17.2L37.7,17.2L37.7,17.2z"/>
		</g>
	</g>
</g>
</svg>
