<?xml version="1.0" encoding="utf-8"?>
<!-- Generator: Adobe Illustrator 21.0.2, SVG Export Plug-In . SVG Version: 6.00 Build 0)  -->
<svg version="1.1" id="Слой_1" xmlns="http://www.w3.org/2000/svg" xmlns:xlink="http://www.w3.org/1999/xlink" x="0px" y="0px"
	 viewBox="0 0 67 80" style="enable-background:new 0 0 67 80;" xml:space="preserve">
<style type="text/css">
	.st0{fill:#EE4323;}
</style>
<g>
	<path class="st0" d="M21.8,80c-4.8-2.1-9.3-7.3-9.3-12.7c0-5.9,3.7-10.9,8.3-14.1c-0.6,2.1-0.9,4,0.5,5.9c1.3,1.8,3.5,2.6,5.7,2.1
		c5-1.1,5.2-6.5,2.2-9.7c-2.9-3.1-5.7-6.7-4.6-11.3c0.6-2.3,2-4.4,3.7-6c-1.4,3.6,2.5,7.1,5.1,8.9c4.4,3.1,9.3,5.4,13.4,9
		c4.3,3.8,7.5,8.9,6.8,14.8C53,73.3,47.9,77.7,42.2,80C54.3,77.3,66.7,68,67,54.6c0.2-11-7.3-19.5-16.7-24.3L49.8,30
		c0.3,0.6,0.3,1.2,0.3,1.6c0.1-0.4,0.1-0.7,0.2-1.1c0,0.5-0.1,0.9-0.2,1.3l0-0.2c-0.1,0.6-0.4,1.1-0.7,1.7l0.1-0.1
		c-1.9,3.1-6.9,3.8-9.4,0.6c-4-5.2,0.1-10.7,0.7-16.2C41.5,10.6,37.2,4,31.9,0c2.9,4.7-0.9,11-4,14.5c-3,3.4-6.6,6.2-10,9.3
		c-3.6,3.3-7,6.8-9.9,10.7c-5.8,7.8-9.4,17.6-6.8,27.3C3.9,71.6,12.3,77.8,21.8,80L21.8,80z"/>
</g>
</svg>
