<?xml version="1.0" encoding="utf-8"?>
<!-- Generator: Adobe Illustrator 21.0.2, SVG Export Plug-In . SVG Version: 6.00 Build 0)  -->
<svg version="1.1" id="Layer_1" xmlns="http://www.w3.org/2000/svg" xmlns:xlink="http://www.w3.org/1999/xlink" x="0px" y="0px"
	 viewBox="0 0 76 88" style="enable-background:new 0 0 76 88;" xml:space="preserve">
<style type="text/css">
	.st0{fill-rule:evenodd;clip-rule:evenodd;fill:#034673;}
	.st1{fill-rule:evenodd;clip-rule:evenodd;fill:#0173BA;}
	.st2{fill-rule:evenodd;clip-rule:evenodd;fill:#94C5E5;}
	.st3{fill-rule:evenodd;clip-rule:evenodd;fill:#005A8E;}
	.st4{fill-rule:evenodd;clip-rule:evenodd;fill:#046DB6;}
	.st5{fill-rule:evenodd;clip-rule:evenodd;fill:#FCFDFB;}
	.st6{fill-rule:evenodd;clip-rule:evenodd;fill:#0373BA;}
	.st7{fill-rule:evenodd;clip-rule:evenodd;fill:#FDFEFD;}
</style>
<g>
	<path class="st0" d="M34.9,0.4c2.2,2.4,4,5,6.3,7.3c1.7,1.8,3.7,3.2,5.8,4.4c1.4,0.8,2.9,1.3,4.3,1.9c5.2,2,9.8,5.3,13.6,9.3
		c5,5.1,8.6,11.6,10.3,18.6c2.1,8.3,1.1,17.4-2.7,25.1c-1.2,2.8-3,5.2-4.9,7.6c-8.3,10-22,15-34.8,13.1c-7.6-1.1-15-4.4-20.6-9.6
		C4.6,71.2,0.1,61.2,0,51c-0.2-6.5,1.5-13,4.6-18.7c3.2-6,8.2-10.9,13.9-14.5c2.9-1.8,6.1-3.1,9-5c1.5-1,3-2,4.3-3.3
		C34,7,34.4,3.5,34.9,0.4L34.9,0.4z M35.3,2.1c0,0.1,0.1,0.3,0.1,0.3c-0.2,1.2-0.3,2.4-0.7,3.5c-0.6,1.9-1.6,3.6-3.2,4.8
		c-1.3,1.1-2.6,2-4,2.9c-2.3,1.5-4.8,2.6-7.2,3.9c-4.5,2.6-8.6,5.9-11.7,10.1c-1,1.1-1.8,2.4-2.4,3.7C5.3,32,5,33,4.6,33.9
		c-0.9,1.7-1.6,3.5-2.2,5.4c-2.8,8.4-2.2,17.8,1.4,25.9c0.8,1.6,1.4,3.2,2.6,4.5c0.2,0.9,0.8,1.7,1.4,2.4c0.6,0.8,1.1,1.7,1.8,2.4
		c1.2,1.2,2.3,2.4,3.6,3.5c0.8,0.7,1.5,1.5,2.4,2c1.5,0.9,2.9,1.8,4.4,2.7c1,0.5,2.1,1.1,3.1,1.5c1.7,0.6,3.4,1.4,5.2,1.7
		c2.3,0.4,4.6,1.1,6.9,1.2c1.4,0,2.8,0.2,4.3,0.1c1.6-0.2,3.4,0.3,4.9-0.5c8.7-1.4,17-5.9,22.6-12.7c0.6-0.8,1.5-1.4,1.6-2.5
		c1.9-1.9,3-4.3,3.8-6.8c0.7-0.6,0.9-1.7,1.3-2.5c0.7-2.3,1.4-4.7,1.6-7.1c0.4-1,0.3-2.1,0.4-3.1c0.2-2.2-0.4-4.4-0.5-6.7
		c-0.3-1.8-0.7-3.7-1.2-5.5c-0.8-1.8-1.1-3.7-2.1-5.4c-0.5-0.8-0.6-1.8-1.2-2.6c-1-1.3-1.6-2.9-2.8-4.1c-0.1-0.1-0.3-0.2-0.4-0.2
		c-0.4-1.3-1.4-2.2-2.3-3.2c-3.8-4.2-8.5-7.7-13.8-9.8c-2-0.8-4.1-1.6-5.9-2.8c-3.2-1.9-5.7-4.6-8.1-7.5C36.8,3.6,36.1,2.8,35.3,2.1
		L35.3,2.1z"/>
	<path class="st1" d="M35.3,2.1c0.8,0.7,1.5,1.5,2.1,2.3c2.3,2.9,4.9,5.6,8.1,7.5c1.8,1.2,3.9,1.9,5.9,2.8c5.3,2.1,10,5.6,13.8,9.8
		c0.9,1,1.9,1.9,2.3,3.2c0.7,4.2,0.1,8.6-1.7,12.4c-2.2,4.7-5.8,8.5-9.6,11.9c-2.7,2.3-5.5,4.6-8.4,6.6c-2.7-1.9-5.5-3.7-8.3-5.4
		c-2.3-1.3-4.9-2.4-7.6-2.4c-1.4,0-2.9,0.1-4.3,0.4c-1.9,0.4-3.6,1.4-5.2,2.5c-2.6,1.8-4.4,4.7-5.1,7.7c-0.6,2.4-0.3,5,0.9,7.1
		c0.6,1.4,1.8,2.3,2.9,3.1c-1.3,0.4-2.7,0.5-4.1,0.6c-3.6,0.3-7.5-0.2-10.4-2.6c-1.2-1.3-1.9-2.9-2.6-4.5
		c-3.6-8.1-4.1-17.5-1.4-25.9c0.6-1.9,1.3-3.7,2.2-5.4C5,33,5.3,32,6.2,31.4c-0.1,0.8-0.2,1.7,0.3,2.4c0.6,0.6,1.5,0.5,2.2,0.5
		c1.8-0.2,3.4-0.9,5-1.6c4.6-2.1,8.9-4.8,12.9-8c2.7-2.2,5.2-4.7,7.1-7.5c0.5-0.8,1.1-1.7,1.1-2.7c-0.2-0.5-0.5-1-0.7-1.5
		c0.7-0.9,1.7-1.5,2.1-2.6c0.6-1.5,0.4-3.1-0.1-4.6c-0.2-1.1-0.4-2.2-0.8-3.2C35.4,2.4,35.3,2.2,35.3,2.1L35.3,2.1z"/>
	<path class="st2" d="M36.2,5.6c0.5,1.5,0.8,3.1,0.1,4.6C36,11.4,35,12,34.3,12.9c0.2,0.5,0.5,1,0.7,1.5c0,1-0.6,1.9-1.1,2.7
		c-2,2.9-4.5,5.3-7.1,7.5c-3.9,3.2-8.3,5.9-12.9,8c-1.6,0.7-3.3,1.4-5,1.6c-0.7,0.1-1.7,0.1-2.2-0.5c-0.6-0.6-0.4-1.6-0.3-2.4
		c0.6-1.4,1.4-2.6,2.4-3.7c-0.3,0.7-0.6,1.4-0.6,2.2c0,0.6,0.5,1.1,1,1.1c1.5,0.1,3-0.5,4.4-1.1c3-1.4,5.9-3,8.6-4.9
		c3-2.1,5.9-4.3,8.3-7.1c0.7-0.9,1.4-1.8,1.6-2.9c0.1-0.8-0.9-1.1-1.4-1.4c1.2-1,2.7-1.4,3.8-2.5c0.8-0.8,1.5-1.7,1.6-2.8
		C36.2,7.4,36.2,6.5,36.2,5.6L36.2,5.6z"/>
	<path class="st3" d="M67.5,27.7c0.2,0.1,0.3,0.1,0.4,0.2c1.2,1.2,1.8,2.8,2.8,4.1c0.6,0.8,0.7,1.8,1.2,2.6c1,1.7,1.3,3.6,2.1,5.4
		c0.5,1.8,0.9,3.6,1.2,5.5c0.1,2.2,0.7,4.4,0.5,6.7c-0.1,1,0,2.2-0.4,3.1c0-0.1-0.1-0.4-0.1-0.5c-0.5,1.9-0.9,3.8-1.6,5.7
		c-0.1-0.1-0.2-0.3-0.3-0.3c0.1-2.2-0.2-4.5-1.6-6.3c-0.9-1.3-2.6-1.8-4.1-1.8c-1.5,0.2-2.9,1-4.1,1.7c-2.6,1.7-5.2,3.6-7.9,5.2
		c-1.4,0.8-2.9,1.5-4.5,1.3c-1.3-0.3-2.4-0.9-3.5-1.6c2.9-2,5.7-4.3,8.4-6.6c3.8-3.4,7.4-7.3,9.6-11.9
		C67.5,36.3,68.2,31.9,67.5,27.7L67.5,27.7z M47.4,64.7c1.3-0.7,2.8-1.4,4.4-1.5c2,0.2,3.7,1.5,5.2,2.9c2.2,1.9,4,4.2,6.2,6
		c0.9,0.8,2.2,0.9,3.4,0.8c-1.3,1.1-2.3,2.4-3.5,3.5c-4.3,3.9-9.4,7.1-14.9,9.1c-1.4,0.4-2.8,0.7-4.1,1.2c0.1,0,0.4,0,0.5,0
		c-1.5,0.8-3.3,0.3-4.9,0.5c-1.4,0.1-2.8-0.1-4.3-0.1c-2.4-0.1-4.6-0.7-6.9-1.2c-1.8-0.3-3.5-1.2-5.2-1.7c-1.1-0.5-2.1-1-3.1-1.5
		c-1.4-1-2.9-1.8-4.4-2.7c-0.9-0.5-1.6-1.4-2.4-2c-1.3-1.1-2.4-2.3-3.6-3.5c-0.7-0.7-1.2-1.6-1.8-2.4c-0.5-0.8-1.2-1.5-1.4-2.4
		c2.9,2.4,6.8,2.8,10.4,2.6c1.4-0.1,2.8-0.2,4.1-0.6c1.3,0.8,2.7,1.4,4.3,1.6c2.4,0.2,5,0.2,7.3-0.6c2.9-0.9,5.5-2.4,8.1-3.9
		C42.9,67.4,45.1,66,47.4,64.7L47.4,64.7z M48.7,69.1c-2.1,0.2-3.9,1.5-5.4,2.8c-0.5,0.4-1,0.9-1.2,1.5c-0.3,0.7,0.5,1.7,1.3,1.3
		c1.2-0.7,2-2,3.4-2.6c1.9-0.8,4.1-1,6-0.1c0.7,0.4,0.9,1.2,1.3,1.8c0.2,0.3,0.3,0.8,0.8,0.7c0.6-0.1,1.1-0.6,1.1-1.1
		c0.1-0.8-0.4-1.4-0.8-2.1c-0.5-0.8-1.1-1.6-2-2C51.8,68.9,50.2,68.9,48.7,69.1L48.7,69.1z M57,78c-0.8,0.4-1.6,1-2.4,1.4
		c-2.5,1.1-5.2,1.4-7.9,1.5c-2.6,0-5.2-0.1-7.7-0.9c-0.9-0.3-1.7-0.9-2.5-1.5c-0.8-0.7-2,0.1-2.3,0.9c-0.1,1.4,1.3,2,2.3,2.6
		c3.4,1.8,7.5,1.6,11.2,1.4c3.3-0.2,6.4-1.3,9.1-3.1c0.5-0.4,1.2-0.9,1-1.6C57.8,78.4,57.5,77.7,57,78L57,78z"/>
	<path class="st4" d="M73.6,60.5c0.7-1.8,1.1-3.8,1.6-5.7c0,0.1,0.1,0.4,0.1,0.5c-0.2,2.4-0.9,4.8-1.6,7.1c-0.3,0.9-0.5,1.9-1.3,2.5
		c0.5-1.6,0.8-3.2,0.9-4.8C73.4,60.2,73.6,60.4,73.6,60.5L73.6,60.5z"/>
	<path class="st5" d="M48.7,69.1c1.5-0.2,3.1-0.2,4.5,0.3c0.9,0.3,1.5,1.2,2,2c0.4,0.6,0.8,1.3,0.8,2.1c0,0.6-0.5,1.1-1.1,1.1
		c-0.4,0.1-0.6-0.4-0.8-0.7c-0.4-0.6-0.6-1.5-1.3-1.8c-1.9-0.9-4.1-0.7-6,0.1c-1.3,0.6-2.1,1.9-3.4,2.6c-0.8,0.4-1.6-0.6-1.3-1.3
		c0.2-0.6,0.8-1,1.2-1.5C44.8,70.6,46.6,69.2,48.7,69.1L48.7,69.1z"/>
	<path class="st6" d="M66.5,73c0.8-0.3,1.6-0.7,2.2-1.3c-0.1,1-1,1.7-1.6,2.5c-5.6,6.8-13.9,11.3-22.6,12.7c-0.1,0-0.4,0-0.5,0
		c1.4-0.5,2.8-0.8,4.1-1.2c5.5-1.9,10.6-5.1,14.9-9.1C64.2,75.3,65.2,74,66.5,73L66.5,73z"/>
	<path class="st7" d="M57,78c0.6-0.4,0.8,0.3,0.9,0.8c0.2,0.7-0.5,1.2-1,1.6c-2.7,1.8-5.9,2.9-9.1,3.1c-3.8,0.3-7.8,0.4-11.2-1.4
		c-1-0.6-2.4-1.2-2.3-2.6c0.3-0.8,1.5-1.6,2.3-0.9c0.8,0.6,1.6,1.1,2.5,1.5c2.5,0.8,5.1,1,7.7,0.9c2.7-0.1,5.4-0.5,7.9-1.5
		C55.4,79,56.1,78.5,57,78L57,78z"/>
</g>
</svg>
