<?xml version="1.0" encoding="utf-8"?>
<!-- Generator: Adobe Illustrator 21.0.2, SVG Export Plug-In . SVG Version: 6.00 Build 0)  -->
<svg version="1.1" id="Capa_1" xmlns="http://www.w3.org/2000/svg" xmlns:xlink="http://www.w3.org/1999/xlink" x="0px" y="0px"
	 viewBox="0 0 60 72" style="enable-background:new 0 0 60 72;" xml:space="preserve">
<style type="text/css">
	.st0{fill:#FFFFFF;}
</style>
<g>
	<g>
		<path class="st0" d="M59,33.3c-0.6-1-1.6-1.7-2.7-2v-6.2C56.3,11.3,44.5,0,30,0S3.7,11.3,3.7,25.1v6.2c-1.1,0.3-2.1,1-2.7,2
			c-0.4,0.9-0.7,1.8-0.6,2.8v13.7c0,1,0.2,1.9,0.6,2.7c0.9,1.5,2.6,2.4,4.4,2.3h2.1c0.1,1.4,1.3,2.5,2.7,2.5h2.4
			c1.5,0,2.7-1.2,2.7-2.7V31c0-1.5-1.2-2.7-2.7-2.7H10c-1.5,0-2.7,1.2-2.7,2.7v0.1H6.3v-6c0-12.4,10.6-22.4,23.6-22.4
			s23.6,10.1,23.6,22.4v6h-1.1V31c0-1.5-1.2-2.7-2.7-2.7h-2.2c-1.5,0-2.7,1.2-2.7,2.7v23.7c0,1.3,1.1,2.4,2.4,2.6
			c-0.3,1.7-1,3.3-2.2,4.6c-2.1,2.3-5.5,3.7-10.1,4v-0.6c-0.1-1.5-1.4-2.7-2.9-2.7h-5.7c-1.5-0.1-2.8,1.1-2.9,2.7v4
			c0.1,1.5,1.4,2.7,2.9,2.7h5.8c1.5,0.1,2.8-1.1,2.9-2.7v-0.7c5.4-0.4,9.5-2,12.1-4.9c1.6-1.8,2.7-4,2.9-6.4
			c1.4-0.1,2.4-1.2,2.5-2.5h2.1c1.8,0.2,3.5-0.7,4.4-2.3c0.4-0.8,0.7-1.8,0.6-2.7V36.1C59.7,35.1,59.4,34.2,59,33.3z M10.1,52.2
			V33.7c0-0.2,0-0.3,0-0.5v-2.2l2.2-0.1v23.7h-2.2V52.2z M7.4,33.7v18.4H5.4c-1.6,0-1.9-0.7-2-0.9c-0.2-0.5-0.3-1-0.3-1.5V36.1
			c0-0.5,0.1-1,0.3-1.5c0.1-0.2,0.5-0.9,2-0.9L7.4,33.7z M32.4,67.3v1.8c-0.1,0.1-0.2,0.2-0.3,0.2h-5.8c-0.1,0-0.1,0-0.2,0v-3.9
			c0.1-0.1,0.2-0.1,0.3-0.1h5.8c0.1,0,0.2,0,0.2,0L32.4,67.3L32.4,67.3z M49.9,33.7v20.9h-1.1h-0.2h-0.1h-0.9V31h2.3L49.9,33.7z
			 M56.6,51.3c-0.1,0.2-0.5,0.9-2,0.9h-2.1V33.8h2.1c1.6,0,1.9,0.7,2,0.9c0.2,0.5,0.3,1,0.3,1.5v13.7C56.9,50.3,56.8,50.8,56.6,51.3
			z"/>
	</g>
</g>
</svg>
