<?xml version="1.0" encoding="utf-8"?>
<!-- Generator: Adobe Illustrator 21.0.2, SVG Export Plug-In . SVG Version: 6.00 Build 0)  -->
<svg version="1.1" id="Capa_1" xmlns="http://www.w3.org/2000/svg" xmlns:xlink="http://www.w3.org/1999/xlink" x="0px" y="0px"
	 viewBox="0 0 62 62" style="enable-background:new 0 0 62 62;" xml:space="preserve">
<style type="text/css">
	.st0{fill:#FFFFFF;}
</style>
<g>
	<g>
		<path class="st0" d="M52.9,9.1C47.1,3.2,39.3,0,31,0C22.7,0,14.9,3.2,9.1,9.1C3.2,14.9,0,22.7,0,31s3.2,16.1,9.1,21.9
			S22.7,62,31,62c8.3,0,16.1-3.2,21.9-9.1S62,39.3,62,31S58.8,14.9,52.9,9.1z M31,58.4C15.9,58.4,3.6,46.1,3.6,31S15.9,3.6,31,3.6
			S58.4,15.9,58.4,31S46.1,58.4,31,58.4z"/>
	</g>
</g>
<g>
	<g>
		<path class="st0" d="M45.8,21.1c-0.7-0.7-1.9-0.7-2.6,0l-16,16l-8.4-8.4c-0.7-0.7-1.9-0.7-2.6,0c-0.7,0.7-0.7,1.9,0,2.6l9.7,9.7
			c0.4,0.4,0.8,0.5,1.3,0.5c0.5,0,0.9-0.2,1.3-0.5l17.3-17.3C46.5,22.9,46.5,21.8,45.8,21.1z"/>
	</g>
</g>
</svg>
