<?xml version="1.0" encoding="utf-8"?>
<!-- Generator: Adobe Illustrator 21.0.2, SVG Export Plug-In . SVG Version: 6.00 Build 0)  -->
<svg version="1.1" id="Layer_1" xmlns="http://www.w3.org/2000/svg" xmlns:xlink="http://www.w3.org/1999/xlink" x="0px" y="0px"
	 viewBox="0 0 67 65" style="enable-background:new 0 0 67 65;" xml:space="preserve">
<style type="text/css">
	.st0{fill:#FFFFFF;}
</style>
<g>
	<g>
		<g>
			<path class="st0" d="M66.6,38.4L57.6,29c-0.3-0.4-0.7-0.7-1.3-0.7c-0.1,0-0.1,0-0.2,0c0,0-0.1,0-0.1,0h0
				c-0.4,0.1-0.7,0.3-0.9,0.6L47.7,40c-0.4,0.6-0.3,1.5,0.4,1.9c0.6,0.4,1.5,0.3,1.9-0.4l5.6-8.4c1.7,13.1-6.8,25.5-19.7,28.6
				c-0.8,0.2-1.2,0.9-1,1.7c0.2,0.6,0.7,1,1.3,1.1c0.1,0,0.2,0,0.3,0C50.4,61.1,59.7,48.2,58.5,34l6.1,6.4c0.5,0.6,1.4,0.6,2,0
				C67.1,39.8,67.1,39,66.6,38.4z"/>
			<path class="st0" d="M52,18c0.5,0.6,1.4,0.7,2,0.2c0.6-0.5,0.7-1.4,0.2-2c-4.8-5.9-11.9-9.6-19.5-10.2
				c-7.5-0.6-14.8,1.7-20.7,6.4l3.9-10.2c0.3-0.7-0.1-1.5-0.8-1.8c-0.7-0.3-1.5,0.1-1.8,0.8l-5.4,14c-0.3,0.7,0.1,1.5,0.8,1.8
				c0.1,0,0.2,0.1,0.4,0.1l14,1.4c0,0,0.1,0,0.1,0c0.8,0,1.4-0.6,1.5-1.3c0-0.8-0.6-1.4-1.3-1.5l-9.8-0.9c5.4-4.4,12-6.5,18.9-6
				C41.3,9.4,47.6,12.7,52,18z"/>
			<path class="st0" d="M22.2,60.3l-5.6-13c-0.3-0.7-1.1-1-1.8-0.7c-0.7,0.3-1,1.1-0.7,1.8l4.3,10C6.1,53-0.2,38.8,4.2,26
				c0.3-0.7-0.1-1.5-0.9-1.8c-0.7-0.3-1.5,0.1-1.8,0.9c-4.8,13.7,1.6,28.8,14.3,35.2l-9.1,1.5C6,62,5.5,62.7,5.6,63.4
				c0.1,0.7,0.7,1.2,1.4,1.2c0.1,0,0.2,0,0.2,0l14-2.3c0.8-0.1,1.3-0.9,1.1-1.6C22.3,60.5,22.3,60.4,22.2,60.3z"/>
		</g>
	</g>
</g>
</svg>
