<?xml version="1.0" encoding="utf-8"?>
<!-- Generator: Adobe Illustrator 21.0.2, SVG Export Plug-In . SVG Version: 6.00 Build 0)  -->
<svg version="1.1" id="Capa_1" xmlns="http://www.w3.org/2000/svg" xmlns:xlink="http://www.w3.org/1999/xlink" x="0px" y="0px"
	 viewBox="0 0 63 57" style="enable-background:new 0 0 63 57;" xml:space="preserve">
<style type="text/css">
	.st0{fill:#FFFFFF;}
</style>
<g>
	<path class="st0" d="M61.6,54.9V14.5H49.1v40.4H46V22.8H33.6v32.1h-3.1V31.1H18v23.8h-3.1V40.4H2.5v14.5h-1c-0.6,0-1,0.5-1,1
		s0.5,1,1,1h1h12.4H18h12.4h3.1H46h3.1h12.4c0.6,0,1-0.5,1-1S62.1,54.9,61.6,54.9z M4.6,54.9V42.5h8.3v12.4H4.6z M20.1,54.9V33.2
		h8.3v21.8H20.1z M35.6,54.9V24.9h8.3v30.1H35.6z M51.2,54.9V16.6h8.3v38.3H51.2z"/>
	<path class="st0" d="M8.7,26.3c0.2,0,0.4,0,0.5-0.1L46.8,4.4l-2.4,5.2c-0.2,0.5,0,1.1,0.5,1.4c0.1,0.1,0.3,0.1,0.4,0.1
		c0.4,0,0.8-0.2,0.9-0.6l3.7-8.1c0,0,0-0.1,0-0.1c0-0.1,0-0.1,0-0.2c0,0,0-0.1,0-0.1c0,0,0,0,0,0c0,0,0-0.1,0-0.1c0-0.1,0-0.1,0-0.2
		c0,0,0-0.1,0-0.1c0,0,0-0.1-0.1-0.1c0,0,0-0.1,0-0.1c0,0,0,0-0.1-0.1c0,0,0-0.1-0.1-0.1c0,0-0.1-0.1-0.1-0.1c0,0-0.1-0.1-0.1-0.1
		c0,0-0.1,0-0.1-0.1c0,0,0,0,0,0c0,0-0.1,0-0.1,0c-0.1,0-0.1,0-0.2,0c0,0,0,0-0.1,0L40.3,0c-0.6-0.1-1.1,0.4-1.1,0.9
		c-0.1,0.6,0.4,1.1,0.9,1.1l5.7,0.5L8.2,24.3c-0.5,0.3-0.7,0.9-0.4,1.4C8,26.1,8.4,26.3,8.7,26.3z"/>
</g>
</svg>
