<?xml version="1.0" encoding="utf-8"?>
<!-- Generator: Adobe Illustrator 21.0.2, SVG Export Plug-In . SVG Version: 6.00 Build 0)  -->
<svg version="1.1" id="Capa_1" xmlns="http://www.w3.org/2000/svg" xmlns:xlink="http://www.w3.org/1999/xlink" x="0px" y="0px"
	 viewBox="0 0 95 95" style="enable-background:new 0 0 95 95;" xml:space="preserve">
<style type="text/css">
	.st0{fill:#212121;}
</style>
<g>
	<g>
		<path class="st0" d="M18.3,33.7h3.1c0-1.7,1.3-3.1,3.1-3.1v-3.1C21.1,27.6,18.3,30.4,18.3,33.7z M95,59.3V51l-3.9-1.3
			c-0.3-1.1-0.7-2-1.2-2.9l1.9-3.7l-5.9-5.9L82,38.8c-0.9-0.5-2-0.9-2.9-1.2l-1.3-3.9h-2.7V7.6c0-4.3-3.5-7.6-7.6-7.6H27.6
			c-4.3,0-7.6,3.5-7.6,7.6v7.6H0v39.9h19.9v32.1c0,4.3,3.5,7.6,7.6,7.6h39.9c4.3,0,7.6-3.5,7.6-7.6V76.6h2.7l1.3-3.9
			c1.1-0.3,2-0.7,2.9-1.2l3.7,1.9l5.9-5.9l-1.9-3.7c0.5-0.9,0.9-2,1.2-2.9L95,59.3z M23,7.6c0-2.5,2-4.5,4.5-4.5h39.9
			c2.5,0,4.5,2,4.5,4.5v1.5H23V7.6z M3.1,52.1V18.3h43v33.7H3.1z M72,87.4c0,2.5-2,4.5-4.5,4.5H27.6c-2.5,0-4.5-2-4.5-4.5v-4.5h49
			V87.4z M72,79.6H23V55.1h26.1V15.4H23v-3.1h49v21.4h-2.7L68,37.6c-1.1,0.3-2,0.7-2.9,1.2l-3.7-1.9l-5.9,5.9l1.9,3.7
			c-0.5,0.9-0.9,2-1.2,2.9l-3.9,1.3v8.3l3.9,1.3c0.3,1.1,0.7,2,1.2,2.9l-1.9,3.7l5.9,5.9l3.7-1.9c0.9,0.5,2,0.9,2.9,1.2l1.3,3.9H72
			V79.6z M88.6,58.4l-0.3,0.8c-0.4,1.3-0.9,2.5-1.6,3.7l-0.4,0.7l1.6,3.2l-2.8,2.8L81.9,68l-0.7,0.4c-1.2,0.7-2.4,1.2-3.7,1.6
			l-0.8,0.3l-1.2,3.3h-4l-1.2-3.3L69.6,70c-1.3-0.4-2.5-0.9-3.7-1.6L65.2,68L62,69.6l-2.8-2.8l1.6-3.2l-0.4-0.7
			c-0.7-1.2-1.2-2.4-1.6-3.7l-0.3-0.8l-3.3-1.2v-3.9l3.3-1.2l0.3-0.8c0.4-1.3,0.9-2.5,1.6-3.7l0.4-0.7l-1.6-3.2l2.8-2.8l3.2,1.6
			l0.7-0.4c1.2-0.7,2.4-1.2,3.7-1.6l0.8-0.3l1.2-3.3h4l1.2,3.3l0.8,0.3c1.3,0.4,2.5,0.9,3.7,1.6l0.7,0.4l3.2-1.6l2.8,2.8l-1.6,3.2
			l0.4,0.7c0.7,1.2,1.2,2.4,1.6,3.7l0.3,0.8l3.3,1.2v3.9L88.6,58.4z M73.6,52.1c1.7,0,3.1,1.3,3.1,3.1h3.1c0-3.3-2.8-6.2-6.2-6.2
			c-3.3,0-6.2,2.8-6.2,6.2s2.8,6.2,6.2,6.2v-3.1c-1.7,0-3.1-1.3-3.1-3.1C70.5,53.5,71.9,52.1,73.6,52.1z M36.5,31.1
			c-1.2-5.5-6.2-9.6-11.9-9.6s-10.7,4-11.9,9.6c-3.7,1.2-6.4,4.7-6.4,8.7c0,5.1,4.1,9.2,9.2,9.2h18.3c5.1,0,9.2-4.1,9.2-9.2
			C43,35.7,40.1,32.3,36.5,31.1z M33.7,46H15.4c-3.3,0-6.2-2.8-6.2-6.2c0-2.9,2.1-5.5,5-6l1.1-0.4l0.1-1.1c0.7-4.5,4.5-7.9,9.1-7.9
			c3.9,0,7.4,2.5,8.7,6.2c-1.9,0.1-3.5,0.7-5,1.9l1.9,2.4c1.1-0.8,2.3-1.2,3.6-1.2c3.3,0,6.2,2.8,6.2,6.2C39.9,43.2,37.1,46,33.7,46
			z M53.7,85.8H41.3v3.1h12.3V85.8z M73.6,43c-6.8,0-12.3,5.5-12.3,12.3c0,6.8,5.5,12.3,12.3,12.3c3.2,0,6.3-1.3,8.7-3.6l-2.1-2.1
			c-1.7,1.7-4,2.7-6.6,2.7c-5.1,0-9.2-4.1-9.2-9.2s4.1-9.2,9.2-9.2c5.1,0,9.2,4.1,9.2,9.2c0,1.6-0.4,3.2-1.2,4.5l2.7,1.5
			c1.1-1.9,1.6-4,1.6-6.2C85.8,48.5,80.3,43,73.6,43z"/>
	</g>
</g>
</svg>
