<?xml version="1.0" encoding="utf-8"?>
<!-- Generator: Adobe Illustrator 21.0.2, SVG Export Plug-In . SVG Version: 6.00 Build 0)  -->
<svg version="1.1" id="Capa_1" xmlns="http://www.w3.org/2000/svg" xmlns:xlink="http://www.w3.org/1999/xlink" x="0px" y="0px"
	 viewBox="0 0 95 93" style="enable-background:new 0 0 95 93;" xml:space="preserve">
<style type="text/css">
	.st0{fill:#212121;}
</style>
<g>
	<g>
		<path class="st0" d="M88.4,0.6H6.3C2.8,0.6,0,3.4,0,6.9V59c0,0.9,0.7,1.6,1.6,1.6h91.6c0.9,0,1.6-0.7,1.6-1.6V6.9
			C94.7,3.4,91.9,0.6,88.4,0.6z M91.6,57.4H3.2V6.9c0-1.7,1.4-3.2,3.2-3.2h82.1c1.7,0,3.2,1.4,3.2,3.2V57.4z"/>
	</g>
</g>
<g>
	<g>
		<path class="st0" d="M93.2,57.4H1.6C0.7,57.4,0,58.1,0,59v7.9c0,3.5,2.8,6.3,6.3,6.3h82.1c3.5,0,6.3-2.8,6.3-6.3V59
			C94.7,58.1,94,57.4,93.2,57.4z M91.6,66.9c0,1.7-1.4,3.2-3.2,3.2H6.3c-1.7,0-3.2-1.4-3.2-3.2v-6.3h88.4L91.6,66.9L91.6,66.9z"/>
	</g>
</g>
<g>
	<g>
		<path class="st0" d="M52.1,63.7h-9.5c-0.9,0-1.6,0.7-1.6,1.6c0,0.9,0.7,1.6,1.6,1.6h9.5c0.9,0,1.6-0.7,1.6-1.6
			C53.7,64.5,53,63.7,52.1,63.7z"/>
	</g>
</g>
<g>
	<g>
		<path class="st0" d="M86.8,6.9h-79C7,6.9,6.3,7.6,6.3,8.5V59c0,0.9,0.7,1.6,1.6,1.6h79c0.9,0,1.6-0.7,1.6-1.6V8.5
			C88.4,7.6,87.7,6.9,86.8,6.9z M85.3,57.4H9.5V10.1h75.8L85.3,57.4L85.3,57.4z"/>
	</g>
</g>
<g>
	<g>
		<path class="st0" d="M67.9,82.7H26.8c-2.6,0-4.7,2.1-4.7,4.7c0,2.6,2.1,4.7,4.7,4.7h41.1c2.6,0,4.7-2.1,4.7-4.7
			C72.6,84.8,70.5,82.7,67.9,82.7z M67.9,89H26.8c-0.9,0-1.6-0.7-1.6-1.6c0-0.9,0.7-1.6,1.6-1.6h41.1c0.9,0,1.6,0.7,1.6,1.6
			C69.5,88.3,68.8,89,67.9,89z"/>
	</g>
</g>
<g>
	<g>
		<path class="st0" d="M64.7,82.7c-5.2,0-7.9-3.7-7.9-11.1c0-0.9-0.7-1.6-1.6-1.6H39.5c-0.9,0-1.6,0.7-1.6,1.6
			c0,7.3-2.7,11.1-7.9,11.1c-0.9,0-1.6,0.7-1.6,1.6s0.7,1.6,1.6,1.6h34.7c0.9,0,1.6-0.7,1.6-1.6S65.6,82.7,64.7,82.7z M37.7,82.7
			c1.9-2.2,3.1-5.4,3.3-9.5h12.7c0.2,4.1,1.4,7.3,3.3,9.5H37.7z"/>
	</g>
</g>
<g>
	<g>
		<path class="st0" d="M75.5,47.1l-3.8-3.8l2.1-2.1c0.4-0.4,0.6-1,0.4-1.5c-0.1-0.5-0.5-1-1.1-1.1l-15.8-4.7c-0.6-0.2-1.2,0-1.6,0.4
			c-0.4,0.4-0.6,1-0.4,1.6l4.7,15.8c0.2,0.5,0.6,0.9,1.1,1.1c0.5,0.1,1.1,0,1.5-0.4l2.2-2.2l3.8,3.8c0.3,0.3,0.7,0.5,1.1,0.5
			c0.4,0,0.8-0.2,1.1-0.5l4.5-4.5C76.1,48.7,76.1,47.7,75.5,47.1z M69.9,50.5L66.4,47c-0.4-0.4-0.9-0.6-1.5-0.6
			c-0.5,0-1.1,0.2-1.5,0.6l-1.1,1.1l-3.1-10.4l10.4,3.1L68.4,42c-0.3,0.3-0.5,0.8-0.5,1.3c0,0.5,0.2,0.9,0.5,1.3l3.7,3.7L69.9,50.5z
			"/>
	</g>
</g>
<g>
	<g>
		<path class="st0" d="M66.3,13.2H22.1c-0.9,0-1.6,0.7-1.6,1.6v7.9c0,0.9,0.7,1.6,1.6,1.6h44.2c0.9,0,1.6-0.7,1.6-1.6v-7.9
			C67.9,13.9,67.2,13.2,66.3,13.2z M64.7,21.1H23.7v-4.7h41.1V21.1z"/>
	</g>
</g>
<g>
	<g>
		<path class="st0" d="M41.1,30.6H28.4c-0.9,0-1.6,0.7-1.6,1.6v6.3c0,0.9,0.7,1.6,1.6,1.6h12.6c0.9,0,1.6-0.7,1.6-1.6v-6.3
			C42.6,31.3,41.9,30.6,41.1,30.6z M39.5,36.9H30v-3.2h9.5V36.9z"/>
	</g>
</g>
<g>
	<g>
		<path class="st0" d="M66.3,13.2H22.1c-0.9,0-1.6,0.7-1.6,1.6v30c0,0.9,0.7,1.6,1.6,1.6h37.6c0.5,0,1-0.2,1.3-0.6
			c0.3-0.4,0.4-0.9,0.2-1.4l-2-6.7l6.7,2c0.5,0.1,1,0.1,1.4-0.2c0.4-0.3,0.6-0.8,0.6-1.3V14.8C67.9,13.9,67.2,13.2,66.3,13.2z
			 M64.7,36l-7.4-2.2c-0.6-0.2-1.2,0-1.6,0.4c-0.4,0.4-0.6,1-0.4,1.6l2.2,7.4H23.7V16.4h41.1V36z"/>
	</g>
</g>
</svg>
