<?xml version="1.0" encoding="utf-8"?>
<!-- Generator: Adobe Illustrator 21.0.2, SVG Export Plug-In . SVG Version: 6.00 Build 0)  -->
<svg version="1.1" id="Capa_1" xmlns="http://www.w3.org/2000/svg" xmlns:xlink="http://www.w3.org/1999/xlink" x="0px" y="0px"
	 viewBox="0 0 110 110" style="enable-background:new 0 0 110 110;" xml:space="preserve">
<style type="text/css">
	.st0{fill:#212121;}
</style>
<g>
	<g>
		<path class="st0" d="M108.2,18.3h-44c-1,0-1.8,0.8-1.8,1.8v16.5c0,1,0.8,1.8,1.8,1.8c0.2,0,0.4,0,0.6-0.1l2.3-0.8
			c2.5-0.8,5.2,0.5,6,3c0.8,2.5-0.5,5.2-3,6c-1,0.3-2,0.3-3,0l-2.3-0.8c-1-0.3-2,0.2-2.3,1.2c-0.1,0.2-0.1,0.4-0.1,0.6v14.7H47.7
			c-1,0-1.8,0.8-1.8,1.8c0,0.2,0,0.4,0.1,0.6l0.8,2.3c0.8,2.5-0.5,5.2-3,6c-2.5,0.8-5.2-0.5-6-3c-0.3-1-0.3-2,0-3l0.8-2.3
			c0.3-1-0.2-2-1.2-2.3c-0.2-0.1-0.4-0.1-0.6-0.1H20.2c-1,0-1.8,0.8-1.8,1.8v44c0,1,0.8,1.8,1.8,1.8h88c1,0,1.8-0.8,1.8-1.8v-88
			C110,19.2,109.2,18.3,108.2,18.3z M62.4,91.1c-0.1,0.2-0.1,0.4-0.1,0.6v14.7H22V66h12.1c-1.4,4.4,1.1,9.2,5.5,10.6
			c4.4,1.4,9.2-1.1,10.6-5.5c0.5-1.7,0.5-3.4,0-5.1h12.1v14.7c0,1,0.8,1.8,1.8,1.8c0.2,0,0.4,0,0.6-0.1l2.3-0.8c2.5-0.8,5.2,0.5,6,3
			c0.8,2.5-0.5,5.2-3,6c-1,0.3-2,0.3-3,0l-2.3-0.8C63.8,89.6,62.7,90.1,62.4,91.1z M106.3,106.3H66V94.2c4.4,1.4,9.2-1.1,10.6-5.5
			c1.4-4.4-1.1-9.2-5.5-10.6c-1.7-0.5-3.4-0.5-5.1,0V66h14.7c1,0,1.8-0.8,1.8-1.8c0-0.2,0-0.4-0.1-0.6l-0.8-2.3
			c-0.8-2.5,0.5-5.2,3-6c2.5-0.8,5.2,0.5,6,3c0.3,1,0.3,2,0,3l-0.8,2.3c-0.3,1,0.2,2,1.2,2.3c0.2,0.1,0.4,0.1,0.6,0.1h14.7
			L106.3,106.3L106.3,106.3z M106.3,62.3H94.2c1.4-4.4-1.1-9.2-5.5-10.6c-4.4-1.4-9.2,1.1-10.6,5.5c-0.5,1.7-0.5,3.4,0,5.1H66V50.2
			c2.5,0.8,5.3,0.4,7.5-1.2c3.8-2.7,4.7-8,2-11.8c-2.1-3-6-4.3-9.5-3.1V22h40.3V62.3z"/>
	</g>
</g>
<g>
	<g>
		<path class="st0" d="M52.7,15.8c-1.7-0.5-3.4-0.5-5.1,0v-14c0-1-0.8-1.8-1.8-1.8h-44C0.8,0,0,0.8,0,1.8v44c0,1,0.8,1.8,1.8,1.8h14
			c-1.4,4.4,1.1,9.2,5.5,10.6s9.2-1.1,10.6-5.5c0.5-1.7,0.5-3.4,0-5.1h14c1,0,1.8-0.8,1.8-1.8v-14c4.4,1.4,9.2-1.1,10.6-5.5
			C59.6,21.9,57.2,17.2,52.7,15.8z M51.7,28.4c-1,0.3-2,0.3-3,0l-2.3-0.8c-1-0.3-2,0.2-2.3,1.2C44,28.9,44,29.1,44,29.3V44H29.3
			c-1,0-1.8,0.8-1.8,1.8c0,0.2,0,0.4,0.1,0.6l0.8,2.3c0.8,2.5-0.5,5.2-3,6c-2.5,0.8-5.2-0.5-6-3c-0.3-1-0.3-2,0-3l0.8-2.3
			c0.3-1-0.2-2-1.2-2.3C18.7,44,18.5,44,18.3,44H3.7V3.7H44v14.7c0,1,0.8,1.8,1.8,1.8c0.2,0,0.4,0,0.6-0.1l2.3-0.8
			c2.5-0.8,5.2,0.5,6,3C55.5,24.9,54.2,27.5,51.7,28.4z"/>
	</g>
</g>
</svg>
