<?xml version="1.0" encoding="utf-8"?>
<!-- Generator: Adobe Illustrator 21.0.2, SVG Export Plug-In . SVG Version: 6.00 Build 0)  -->
<svg version="1.1" id="Capa_1" xmlns="http://www.w3.org/2000/svg" xmlns:xlink="http://www.w3.org/1999/xlink" x="0px" y="0px"
	 viewBox="0 0 123 95" style="enable-background:new 0 0 123 95;" xml:space="preserve">
<style type="text/css">
	.st0{fill:#212121;}
</style>
<g>
	<g>
		<path class="st0" d="M77.9,24.6h-8.2v-3.1c2.6-2.3,4.1-5.7,4.1-9.2c0-3.7-1.6-7.1-4.5-9.5c-2.8-2.3-6.6-3.3-10.3-2.6
			c-4.8,0.9-8.7,4.8-9.6,9.6c-0.9,4.4,0.6,8.8,3.8,11.7v3.1h-8.2c-3.4,0-6.1,2.8-6.1,6.1v22.6c0,1.1,0.9,2,2,2h41
			c1.1,0,2.1-0.9,2.1-2V30.7C84.1,27.4,81.3,24.6,77.9,24.6z M79.9,51.2H43V30.7c0-1.1,0.9-2,2-2h10.3c1.1,0,2.1-0.9,2.1-2.1v-6.1
			c0-0.6-0.3-1.3-0.8-1.6c-2.6-1.9-3.7-5.1-3.1-8.2c0.6-3.2,3.2-5.7,6.4-6.4c2.5-0.5,4.9,0.1,6.9,1.7c1.9,1.6,3,3.9,3,6.3
			c0,2.6-1.2,5-3.3,6.6c-0.5,0.4-0.8,1-0.8,1.6v6.1c0,1.1,0.9,2.1,2.1,2.1h10.3c1.1,0,2,0.9,2,2V51.2z"/>
	</g>
</g>
<g>
	<g>
		<path class="st0" d="M25.4,27.1c-0.5,0.4-0.8,1-0.8,1.6v6.1c0,1.1,0.9,2,2,2h8.2v-4.1h-6.1v-3.1c2.6-2.3,4.1-5.7,4.1-9.2
			c0-3.7-1.6-7.1-4.5-9.5c-2.8-2.3-6.6-3.3-10.3-2.6c-4.8,0.9-8.7,4.8-9.6,9.6c-0.9,4.4,0.6,8.8,3.8,11.7v3.1H6.2
			c-3.4,0-6.2,2.8-6.2,6.1v14.4c0,1.1,0.9,2,2,2h32.8v-4.1H4.1V38.9c0-1.1,0.9-2,2.1-2h8.2c1.1,0,2-0.9,2-2v-6.1
			c0-0.6-0.3-1.3-0.8-1.6c-2.6-1.9-3.7-5.1-3.1-8.2c0.6-3.2,3.2-5.7,6.4-6.4c2.5-0.5,4.9,0.1,6.9,1.7c1.9,1.6,3,3.9,3,6.3
			C28.7,23.1,27.5,25.5,25.4,27.1z"/>
	</g>
</g>
<g>
	<g>
		<path class="st0" d="M116.8,32.8h-6.2v-3.1c3.3-2.9,4.7-7.3,3.8-11.7c-1-4.8-4.8-8.6-9.6-9.6c-3.7-0.7-7.4,0.2-10.3,2.6
			c-2.8,2.3-4.5,5.8-4.5,9.5c0,3.5,1.5,6.8,4.1,9.2v3.1h-6.2v4.1h8.2c1.1,0,2.1-0.9,2.1-2v-6.1c0-0.6-0.3-1.3-0.8-1.6
			c-2.1-1.5-3.3-4-3.3-6.6c0-2.5,1.1-4.8,3-6.3c1.9-1.6,4.4-2.2,6.9-1.7c3.2,0.6,5.7,3.2,6.4,6.4c0.6,3.2-0.6,6.3-3.1,8.2
			c-0.5,0.4-0.8,1-0.8,1.6v6.1c0,1.1,0.9,2,2.1,2h8.2c1.1,0,2.1,0.9,2.1,2v12.3H88.2v4.1h32.8c1.1,0,2.1-0.9,2.1-2V38.9
			C123,35.6,120.2,32.8,116.8,32.8z"/>
	</g>
</g>
<g>
	<g>
		<path class="st0" d="M110.7,63.5v-4.1H61.5c-1.1,0-2,0.9-2,2.1c0,5.7,4.6,10.3,10.2,10.3h6.2V74l-14.3,1.8l-17.5-3.9l-3.7-3.7
			c-4.2-4.2-11-4.2-15.2,0c-0.8,0.8-0.8,2.1,0,2.9l14.4,14.4c0.2,0.2,0.4,0.4,0.7,0.5l20.5,8.2c0.2,0.1,0.5,0.1,0.8,0.1
			c0.1,0,0.2,0,0.3,0l24.4-4.1h24.4v-4.1H94.3V63.5H110.7z M90.2,86.1h-4.1c-0.1,0-0.2,0-0.3,0l-24,4l-19.6-7.8L29.8,69.9
			c2.5-1.3,5.6-0.9,7.7,1.2l4.1,4.1c0.3,0.3,0.6,0.5,1,0.6l18.5,4.1c0.2,0.1,0.5,0.1,0.7,0l16.4-2.1c1-0.1,1.8-1,1.8-2v-6.2
			c0-1.1-0.9-2-2.1-2h-8.2c-2.7,0-5-1.7-5.8-4.1h26.3V86.1z"/>
	</g>
</g>
</svg>
