<?xml version="1.0" encoding="utf-8"?>
<!-- Generator: Adobe Illustrator 21.0.2, SVG Export Plug-In . SVG Version: 6.00 Build 0)  -->
<svg version="1.1" id="Capa_1" xmlns="http://www.w3.org/2000/svg" xmlns:xlink="http://www.w3.org/1999/xlink" x="0px" y="0px"
	 viewBox="0 0 115 115" style="enable-background:new 0 0 115 115;" xml:space="preserve">
<style type="text/css">
	.st0{fill:#212121;}
</style>
<g>
	<g>
		<path class="st0" d="M57.5,0.1C51.1,0.1,46,5.2,46,11.5S51.1,23,57.5,23C63.8,23,69,17.9,69,11.5C69,5.2,63.8,0.1,57.5,0.1z
			 M57.5,19.2c-4.2,0-7.7-3.4-7.7-7.7s3.4-7.7,7.7-7.7s7.7,3.4,7.7,7.7S61.7,19.2,57.5,19.2z"/>
	</g>
</g>
<g>
	<g>
		<path class="st0" d="M65.1,25h-0.5l-0.4,0.2c-4.3,2.1-9.3,2.1-13.6,0L50.3,25h-0.5c-5.3,0-9.6,4.3-9.6,9.6V46
			c0,3.2,2.6,5.7,5.7,5.7h23c3.2,0,5.7-2.6,5.7-5.7V34.5C74.7,29.2,70.4,25,65.1,25z M70.9,46c0,1.1-0.9,1.9-1.9,1.9H46
			c-1.1,0-1.9-0.9-1.9-1.9V34.5c0-3,2.3-5.5,5.3-5.7c5.1,2.4,11,2.4,16.1,0c3,0.2,5.3,2.7,5.3,5.7V46z"/>
	</g>
</g>
<g>
	<g>
		<path class="st0" d="M97.7,63.3c-6.3,0-11.5,5.1-11.5,11.5c0,6.3,5.1,11.5,11.5,11.5c6.3,0,11.5-5.1,11.5-11.5
			C109.2,68.4,104.1,63.3,97.7,63.3z M97.7,82.4c-4.2,0-7.7-3.4-7.7-7.7c0-4.2,3.4-7.7,7.7-7.7c4.2,0,7.7,3.4,7.7,7.7
			C105.4,79,101.9,82.4,97.7,82.4z"/>
	</g>
</g>
<g>
	<g>
		<path class="st0" d="M105.4,88.2h-0.5l-0.4,0.2c-4.3,2.1-9.3,2.1-13.6,0l-0.4-0.2H90c-5.3,0-9.6,4.3-9.6,9.6v11.5
			c0,3.2,2.6,5.7,5.7,5.7h23c3.2,0,5.7-2.6,5.7-5.7V97.8C114.9,92.5,110.7,88.2,105.4,88.2z M111.1,109.3c0,1.1-0.9,1.9-1.9,1.9h-23
			c-1.1,0-1.9-0.9-1.9-1.9V97.8c0-3,2.3-5.5,5.3-5.7c5.1,2.4,11,2.4,16.1,0c3,0.2,5.3,2.7,5.3,5.7V109.3z"/>
	</g>
</g>
<g>
	<g>
		<path class="st0" d="M17.2,63.3c-6.3,0-11.5,5.1-11.5,11.5c0,6.3,5.1,11.5,11.5,11.5s11.5-5.1,11.5-11.5
			C28.7,68.4,23.6,63.3,17.2,63.3z M17.2,82.4c-4.2,0-7.7-3.4-7.7-7.7c0-4.2,3.4-7.7,7.7-7.7s7.7,3.4,7.7,7.7
			C24.9,79,21.5,82.4,17.2,82.4z"/>
	</g>
</g>
<g>
	<g>
		<path class="st0" d="M24.9,88.2h-0.5L24,88.4c-4.3,2.1-9.3,2.1-13.6,0L10,88.2H9.6c-5.3,0-9.6,4.3-9.6,9.6v11.5
			c0,3.2,2.6,5.7,5.7,5.7h23c3.2,0,5.7-2.6,5.7-5.7V97.8C34.5,92.5,30.2,88.2,24.9,88.2z M30.7,109.3c0,1.1-0.9,1.9-1.9,1.9h-23
			c-1.1,0-1.9-0.9-1.9-1.9V97.8c0-3,2.3-5.5,5.3-5.7c5.1,2.4,11,2.4,16.1,0c3,0.2,5.3,2.7,5.3,5.7V109.3z"/>
	</g>
</g>
<g>
	<g>
		<path class="st0" d="M76.5,97.3C76.5,97.3,76.5,97.3,76.5,97.3c-0.4-1-1.5-1.4-2.5-1l0,0c-8.7,3.6-18.3,4.3-27.3,1.9l1.8-0.5
			c1-0.3,1.6-1.4,1.3-2.4c-0.3-1-1.4-1.6-2.4-1.3l-7.7,2.2c0,0,0,0-0.1,0c-0.2,0.1-0.3,0.2-0.5,0.3c-0.1,0-0.1,0.1-0.2,0.1
			c-0.2,0.2-0.4,0.4-0.5,0.7c-0.1,0.3-0.2,0.5-0.1,0.8c0,0.3,0.1,0.5,0.2,0.8c0,0,0,0.1,0,0.1l3.8,7.3c0.5,0.9,1.6,1.3,2.6,0.8
			c0.9-0.5,1.3-1.6,0.8-2.6l-1.6-3c10.3,3.1,21.4,2.5,31.3-1.7C76.4,99.4,76.9,98.3,76.5,97.3z"/>
	</g>
</g>
<g>
	<g>
		<path class="st0" d="M108.6,50.4c-0.7-0.7-2-0.7-2.7,0l-2.7,2.7C101.6,36.4,91,21.8,75.5,15.2c-1-0.4-2.1,0-2.5,1
			c-0.4,1,0,2.1,1,2.5c13.9,5.9,23.6,18.8,25.3,33.9l-2.2-2.2c-0.8-0.7-2-0.7-2.7,0c-0.7,0.7-0.7,1.9,0,2.7l5.7,5.7
			c0.7,0.7,2,0.8,2.7,0c0,0,0,0,0,0l5.7-5.7C109.4,52.4,109.4,51.2,108.6,50.4z"/>
	</g>
</g>
<g>
	<g>
		<path class="st0" d="M42.1,16.6c0-0.1,0-0.2,0-0.3c0,0,0,0,0,0c0,0,0,0,0,0c-0.1-0.1-0.1-0.2-0.2-0.3c-0.1-0.1-0.1-0.2-0.2-0.3
			c-0.1-0.1-0.2-0.2-0.4-0.3c-0.1-0.1-0.1-0.1-0.2-0.2l-7.7-3.5c-1-0.4-2.1,0.1-2.5,1c-0.4,0.9,0,2,0.9,2.4l4,1.8
			c-14.9,8-24.3,23.6-24.2,40.5c0,1.1,0.9,1.9,1.9,1.9s1.9-0.9,1.9-1.9c0-14.9,7.9-28.7,20.7-36.3l-1.4,2.9c-0.5,1-0.1,2.1,0.9,2.6
			c0.3,0.1,0.5,0.2,0.8,0.2c0.7,0,1.4-0.4,1.7-1.1l3.8-8c0,0,0,0,0-0.1c0-0.1,0.1-0.3,0.1-0.4c0-0.1,0.1-0.2,0.1-0.3
			C42.1,16.9,42.1,16.8,42.1,16.6z"/>
	</g>
</g>
</svg>
