<?xml version="1.0" encoding="utf-8"?>
<!-- Generator: Adobe Illustrator 21.0.2, SVG Export Plug-In . SVG Version: 6.00 Build 0)  -->
<svg version="1.1" id="Layer_1" xmlns="http://www.w3.org/2000/svg" xmlns:xlink="http://www.w3.org/1999/xlink" x="0px" y="0px"
	 viewBox="0 0 117 111" style="enable-background:new 0 0 117 111;" xml:space="preserve">
<style type="text/css">
	.st0{fill:#212121;}
</style>
<g>
	<g>
		<g>
			<path class="st0" d="M100.3,42c0-23.2-18.7-41.9-41.8-41.9S16.7,18.8,16.7,41.9c0,0,0,0,0,0.1C7.4,42.5,0,50.3,0,59.7v2.1
				c0,9.8,7.9,17.8,17.8,17.8h0.9l7.4,11.8c5.2,8.4,14.1,13.3,23.9,13.3h1.5c0.9,3.6,4.2,6.3,8,6.3c4.6,0,8.4-3.8,8.4-8.4
				s-3.8-8.4-8.4-8.4c-3.9,0-7.1,2.7-8,6.3H50c-8.4,0-16-4.3-20.4-11.4l-6.1-9.5h1.5c2.3,0,4.2-1.9,4.2-4.2V46.1
				c0-2.3-1.9-4.2-4.2-4.2h-4.2c0-20.8,16.8-37.6,37.6-37.6s37.6,16.8,37.6,37.6h-4.2c-2.3,0-4.2,1.9-4.2,4.2v29.3
				c0,2.3,1.9,4.2,4.2,4.2h7.3c9.8,0,17.8-7.9,17.8-17.8v-2.1C117,50.3,109.6,42.5,100.3,42z M59.5,98.3c2.3,0,4.2,1.9,4.2,4.2
				s-1.9,4.2-4.2,4.2s-4.2-1.9-4.2-4.2S57.2,98.3,59.5,98.3z M25.1,46.1v29.3h-7.3c-7.5,0-13.6-6.1-13.6-13.6v-2.1
				c0-7.5,6.1-13.6,13.6-13.6H25.1z M112.8,61.8c0,7.5-6.1,13.6-13.6,13.6h-7.3V46.1h7.3c7.5,0,13.6,6.1,13.6,13.6V61.8z"/>
			<path class="st0" d="M75.8,15.9c-0.2-0.1-0.5-0.3-0.8-0.5c-0.3-0.2-0.6-0.4-0.8-0.5c-0.9-0.6-2.3-0.3-2.8,0.7
				c-0.5,1-0.3,2.2,0.7,2.8c0.2,0.1,0.5,0.3,0.8,0.5c0.3,0.2,0.6,0.4,0.9,0.5c0.3,0.2,0.7,0.3,1,0.3c0.7,0,1.4-0.3,1.8-1
				C77.2,17.8,76.9,16.5,75.8,15.9z"/>
			<path class="st0" d="M58.5,10.6c-8.9,0-17.2,3.9-23,10.6c-0.7,0.8-0.6,2.2,0.2,2.9c0.4,0.3,0.8,0.5,1.4,0.5
				c0.6,0,1.1-0.2,1.6-0.7c5-5.7,12.2-9.1,19.8-9.1c1.9,0,3.8,0.2,5.6,0.6c1.1,0.2,2.2-0.5,2.5-1.6c0.3-1-0.5-2.2-1.6-2.5
				C62.9,10.8,60.7,10.6,58.5,10.6z"/>
		</g>
	</g>
</g>
</svg>
