<?xml version="1.0" encoding="utf-8"?>
<!-- Generator: Adobe Illustrator 21.0.2, SVG Export Plug-In . SVG Version: 6.00 Build 0)  -->
<svg version="1.1" id="Capa_1" xmlns="http://www.w3.org/2000/svg" xmlns:xlink="http://www.w3.org/1999/xlink" x="0px" y="0px"
	 viewBox="0 0 95 95" style="enable-background:new 0 0 95 95;" xml:space="preserve">
<style type="text/css">
	.st0{fill:#212121;}
</style>
<g>
	<path class="st0" d="M94.5,44.5h-4.6V23.4c0-5.1-4.1-9.2-9.2-9.2h-6.2L68.2,2.8c-1-1.7-2.8-2.8-4.8-2.8c-0.9,0-1.9,0.2-2.7,0.7
		L36.4,14.2H9.2c-5.1,0-9.2,4.1-9.2,9.2v62.9c0,5.1,4.1,9.2,9.2,9.2h71.6c5.1,0,9.2-4.1,9.2-9.2V67.8h4.6L94.5,44.5L94.5,44.5z
		 M80.8,17.9c2.8,0,5.1,2.1,5.4,4.9h-6.9l-2.7-4.9H80.8z M62.5,3.9c0.9-0.5,2-0.1,2.5,0.7l10.1,18.2H28.5L62.5,3.9z M86.3,86.3
		c0,3-2.5,5.5-5.5,5.5H9.2c-3,0-5.5-2.5-5.5-5.5V23.4c0-3,2.5-5.5,5.5-5.5h20.6L21,22.8H10.3c-1,0-1.8,0.8-1.8,1.8
		c0,1,0.8,1.8,1.8,1.8h4.1h67h4.9v18H72.9c-6.2,0-11.3,5.1-11.3,11.3v0.8c0,6.2,5.1,11.3,11.3,11.3h13.4L86.3,86.3L86.3,86.3z
		 M90.9,64.2h-0.9H72.9c-4.2,0-7.6-3.4-7.6-7.6v-0.8c0-4.2,3.4-7.6,7.6-7.6h17.1h0.9V64.2z M78.5,56.3c0,2.2-1.8,4-4,4
		c-2.2,0-4-1.8-4-4s1.8-4,4-4C76.7,52.3,78.5,54.1,78.5,56.3z"/>
</g>
</svg>
