<?xml version="1.0" encoding="utf-8"?>
<!-- Generator: Adobe Illustrator 21.0.2, SVG Export Plug-In . SVG Version: 6.00 Build 0)  -->
<svg version="1.1" id="Layer_1" xmlns="http://www.w3.org/2000/svg" xmlns:xlink="http://www.w3.org/1999/xlink" x="0px" y="0px"
	 viewBox="0 0 105 53" style="enable-background:new 0 0 105 53;" xml:space="preserve">
<style type="text/css">
	.st0{fill:#212121;}
</style>
<g>
	<g>
		<path class="st0" d="M81,0.6c-0.6,0-1.3-0.1-1.8-0.1C79,0.5,58.7-1,50.5,25.9C43.4,49.4,26.8,48.3,26,48.3c-0.3,0-0.7,0-1,0
			C13.3,47.7,4.2,38.2,4.2,26.5C4.2,14.5,14,4.7,26,4.7c7.4,0,14.3,3.7,18.3,10l3.5-2.3C43,5,34.8,0.5,26,0.5c-14.3,0-26,11.6-26,26
			c0,13.9,10.9,25.3,24.8,25.9c0.4,0,0.8,0,1,0c0,0,0.3,0,0.7,0c3.7,0,20.7-1.3,28-25.4C61.6,3.6,78.2,4.7,79,4.7
			c0.6,0,1.1,0,1.6,0.1c11.3,0.8,20.1,10.4,20.1,21.7c0,12-9.8,21.8-21.8,21.8c-7.4,0-14.3-3.7-18.3-10l-3.5,2.3
			C62,48,70.2,52.5,79,52.5c14.3,0,26-11.6,26-26C105,13,94.5,1.6,81,0.6z"/>
	</g>
</g>
</svg>
