<?xml version="1.0" encoding="utf-8"?>
<!-- Generator: Adobe Illustrator 21.0.2, SVG Export Plug-In . SVG Version: 6.00 Build 0)  -->
<svg version="1.1" id="Layer_1" xmlns="http://www.w3.org/2000/svg" xmlns:xlink="http://www.w3.org/1999/xlink" x="0px" y="0px"
	 viewBox="0 0 116 94" style="enable-background:new 0 0 116 94;" xml:space="preserve">
<style type="text/css">
	.st0{fill:#212121;}
</style>
<g transform="translate(1 1)">
	<g>
		<g>
			<path class="st0" d="M61.1,64.4h30.5c1.1,0,1.9-0.8,1.9-1.9V45.3c0-1.1-0.8-1.9-1.9-1.9H61.1c-1.1,0-1.9,0.8-1.9,1.9v17.2
				C59.2,63.6,59.9,64.4,61.1,64.4z M63,47.2h26.7v13.4H63V47.2z"/>
			<path class="st0" d="M9.5,39.6h15.3c1.1,0,1.9-0.8,1.9-1.9c0-1.1-0.8-1.9-1.9-1.9H9.5c-1.1,0-1.9,0.8-1.9,1.9
				C7.6,38.8,8.4,39.6,9.5,39.6z"/>
			<path class="st0" d="M32.5,39.6h15.3c1.1,0,1.9-0.8,1.9-1.9c0-1.1-0.8-1.9-1.9-1.9H32.5c-1.1,0-1.9,0.8-1.9,1.9
				C30.5,38.8,31.3,39.6,32.5,39.6z"/>
			<path class="st0" d="M9.5,47.2h24.8c1.1,0,1.9-0.8,1.9-1.9s-0.8-1.9-1.9-1.9H9.5c-1.1,0-1.9,0.8-1.9,1.9S8.4,47.2,9.5,47.2z"/>
			<path class="st0" d="M47.7,43.4H42c-1.1,0-1.9,0.8-1.9,1.9c0,1.1,0.8,1.9,1.9,1.9h5.7c1.1,0,1.9-0.8,1.9-1.9
				C49.6,44.1,48.9,43.4,47.7,43.4z"/>
			<path class="st0" d="M112.8,19.7c-1.3-1.7-3.1-2.7-5.2-2.9l-4.6-0.6v-5.4V7.1c0-4.2-3.4-7.6-7.6-7.6H7.6C3.4-0.5,0,2.9,0,7.1v3.8
				v15.3v42c0,3.4,2.3,6.4,5.5,7.3c-0.1,3.9,2.8,7.2,6.7,7.6l88.2,9.9c0.2,0,0.6,0,0.8,0c3.8,0,7.3-2.9,7.6-6.5l5.7-61.3
				C114.7,23.3,114.2,21.2,112.8,19.7z M3.8,12.8h95.4v5v6.5H3.8V12.8z M7.6,3.3h87.8c2.1,0,3.8,1.7,3.8,3.8V9H3.8V7.1
				C3.8,5,5.5,3.3,7.6,3.3z M3.8,68.2V28.1h95.4v40.1c0,2.1-1.7,3.8-3.8,3.8H7.8H7.6C5.5,72,3.8,70.3,3.8,68.2z M110.7,24.5
				L105,85.7c-0.2,2.1-2.1,3.6-4.2,3.4l-88-9.9c-1.9-0.2-3.2-1.7-3.4-3.4h86.1c4.2,0,7.6-3.4,7.6-7.6v-42v-6.3l4.4,0.4
				c1,0,1.9,0.6,2.5,1.3C110.5,22.4,110.9,23.5,110.7,24.5z"/>
		</g>
	</g>
</g>
</svg>
