<?xml version="1.0" encoding="utf-8"?>
<!-- Generator: Adobe Illustrator 21.0.2, SVG Export Plug-In . SVG Version: 6.00 Build 0)  -->
<svg version="1.1" id="Capa_1" xmlns="http://www.w3.org/2000/svg" xmlns:xlink="http://www.w3.org/1999/xlink" x="0px" y="0px"
	 viewBox="0 0 80 100" style="enable-background:new 0 0 80 100;" xml:space="preserve">
<style type="text/css">
	.st0{fill:#212121;}
</style>
<g>
	<path class="st0" d="M65,41.7H23.3c-0.9,0-1.7,0.7-1.7,1.7s0.7,1.7,1.7,1.7H65c0.9,0,1.7-0.7,1.7-1.7S65.9,41.7,65,41.7z"/>
	<path class="st0" d="M23.3,31.7H40c0.9,0,1.7-0.7,1.7-1.7c0-0.9-0.7-1.7-1.7-1.7H23.3c-0.9,0-1.7,0.7-1.7,1.7
		C21.7,30.9,22.4,31.7,23.3,31.7z"/>
	<path class="st0" d="M65,55H23.3c-0.9,0-1.7,0.7-1.7,1.7s0.7,1.7,1.7,1.7H65c0.9,0,1.7-0.7,1.7-1.7S65.9,55,65,55z"/>
	<path class="st0" d="M65,68.3H23.3c-0.9,0-1.7,0.7-1.7,1.7s0.7,1.7,1.7,1.7H65c0.9,0,1.7-0.7,1.7-1.7S65.9,68.3,65,68.3z"/>
	<path class="st0" d="M65,81.7H23.3c-0.9,0-1.7,0.7-1.7,1.7s0.7,1.7,1.7,1.7H65c0.9,0,1.7-0.7,1.7-1.7S65.9,81.7,65,81.7z"/>
	<path class="st0" d="M71.7,24.3V0H0v91.7h8.3v8.3H80V32.6L71.7,24.3z M56.7,14l15,15l2.6,2.6H56.7V14z M3.3,88.3v-85h65V21
		L55.7,8.3H8.3v80H3.3z M11.7,96.7v-5v-80h41.7V35h23.3v61.7H11.7z"/>
</g>
</svg>
