<?xml version="1.0" encoding="utf-8"?>
<!-- Generator: Adobe Illustrator 21.0.2, SVG Export Plug-In . SVG Version: 6.00 Build 0)  -->
<svg version="1.1"
	 id="svg2" inkscape:version="0.48+devel r" sodipodi:docname="РќРѕРІС‹Р№ РґРѕРєСѓРјРµРЅС‚ 1" xmlns:cc="http://creativecommons.org/ns#" xmlns:dc="http://purl.org/dc/elements/1.1/" xmlns:inkscape="http://www.inkscape.org/namespaces/inkscape" xmlns:rdf="http://www.w3.org/1999/02/22-rdf-syntax-ns#" xmlns:sodipodi="http://sodipodi.sourceforge.net/DTD/sodipodi-0.dtd" xmlns:svg="http://www.w3.org/2000/svg"
	 xmlns="http://www.w3.org/2000/svg" xmlns:xlink="http://www.w3.org/1999/xlink" x="0px" y="0px" viewBox="0 0 86 86"
	 style="enable-background:new 0 0 86 86;" xml:space="preserve">
<style type="text/css">
	.st0{fill:#C60C30;}
</style>
<sodipodi:namedview  bordercolor="#666666" borderlayer="false" borderopacity="1.0" fit-margin-bottom="0" fit-margin-left="0" fit-margin-right="0" fit-margin-top="0" height="0px" id="base" inkscape:current-layer="layer1" inkscape:cx="-70.182094" inkscape:cy="78.047794" inkscape:document-units="px" inkscape:pageopacity="0.0" inkscape:pageshadow="2" inkscape:window-height="1008" inkscape:window-maximized="1" inkscape:window-width="1920" inkscape:window-x="-3" inkscape:window-y="-3" inkscape:zoom="0.98994949" pagecolor="#ffffff" showgrid="false" width="0px">
	</sodipodi:namedview>
<g id="layer1" transform="translate(-76.221179,-152.76972)" inkscape:groupmode="layer" inkscape:label="Layer 1">
	
		<path id="path821" inkscape:connector-curvature="0" sodipodi:nodetypes="sssscsssssssscssssssccssssssssssscsssssccsssssssss" class="st0" d="
		M110.9,238.3c-7.5-1.6-14.5-5-20-9.9c-14.1-12.5-18.5-32.3-11-49.8c1.8-4.3,4.8-8.7,8.5-12.5l3.3-3.3l0.2,19.6
		c0.2,18.8,0.3,19.7,1.2,22.1c1.8,4.7,3.7,7.7,7,11c8.5,8.4,20.9,10.5,31.4,5.3c9.9-4.9,16.2-15.5,15.4-26.3
		c-0.5-7.2-2.9-12.5-8.2-17.8c-4-4-8.6-6.6-13.7-7.7c-5.2-1.1-4.9-1.2-4.9,3.1v3.8l2.8,0.5c11,2,18.2,12.8,15.9,23.7
		c-0.7,3.5-2.4,6.5-5,9.4c-4,4.3-9.6,6.3-14.4,6.3c-8.1,0-14.8-4.6-18.1-11.4c0,0-0.9-1.9-1.1-3.1c-1.6-7-0.6-21.9-0.6-21.9
		l-0.1-21.7l1.3-0.7c0.7-0.4,1.4-0.7,1.5-0.7s0.3,10,0.3,22.1c0,0-1.6,15.9,0.4,22.1c0.3,0.9,0.8,2.4,0.8,2.4
		c1.7,3.4,4.4,6.4,7.9,8.1c2.7,1.3,4,1.8,7.9,1.8c2.6,0,4.9-0.8,7.5-2c3.1-1.4,6.6-5.2,7.9-8.6c3.6-9.5-1.4-19.7-11.1-22.5
		c-4-1.2-3.9-1.2-3.9,3.1v3.8l1.9,0.5c6.8,1.8,8.9,11,3.6,15.7c-1.9,1.7-3.6,2.4-6.6,2.4c-3.2,0-6.3-1.9-7.8-4.9
		c-0.9-1.8-1-3.5-1-4.3c0-7.2-0.2-20-0.2-20l-0.1-22.1l1-0.2c0.5-0.1,2.7-0.5,4.9-0.7c7.2-0.9,17.9,1.4,25.1,5.6
		c9.8,5.6,17.2,15.2,20.3,26.3c1.1,3.8,1.2,4.9,1.2,11.1c0,6.1-0.1,7.3-1.2,11c-4.2,15.1-14.9,25.9-30.1,30.5
		c-3.2,1-4.7,1.1-10.4,1.3C115.9,238.8,113,238.7,110.9,238.3L110.9,238.3z"/>
</g>
</svg>
