<?xml version="1.0" encoding="utf-8"?>
<!-- Generator: Adobe Illustrator 21.0.2, SVG Export Plug-In . SVG Version: 6.00 Build 0)  -->
<svg version="1.1" id="Слой_1" xmlns="http://www.w3.org/2000/svg" xmlns:xlink="http://www.w3.org/1999/xlink" x="0px" y="0px"
	 viewBox="0 0 69 74" style="enable-background:new 0 0 69 74;" xml:space="preserve">
<style type="text/css">
	.st0{fill:url(#SVGID_1_);}
	.st1{fill:url(#SVGID_2_);}
	.st2{fill:url(#SVGID_3_);}
	.st3{fill:url(#SVGID_4_);}
</style>
<g>
	
		<linearGradient id="SVGID_1_" gradientUnits="userSpaceOnUse" x1="-41.2212" y1="48.14" x2="-41.2212" y2="47.8711" gradientTransform="matrix(92.2818 0 0 -178.5439 3860.2629 8595.1113)">
		<stop  offset="0" style="stop-color:#73B723"/>
		<stop  offset="1" style="stop-color:#D8EE61"/>
	</linearGradient>
	<path class="st0" d="M59.6,0c5,2.5,9.3,9.2,9.1,18.3C68,29.5,59.9,39.1,51.1,48c-0.5-10.8-2.8-17.7-6.5-27.4
		C41.1,10.8,51.3,0.3,59.6,0z"/>
	
		<linearGradient id="SVGID_2_" gradientUnits="userSpaceOnUse" x1="-40.5686" y1="48.9431" x2="-40.7603" y2="48.7448" gradientTransform="matrix(93.816 0 0 -129.8399 3850.8533 6400.9624)">
		<stop  offset="0" style="stop-color:#98C9EA"/>
		<stop  offset="0.6886" style="stop-color:#026FB2"/>
		<stop  offset="1" style="stop-color:#086EB6"/>
	</linearGradient>
	<path class="st1" d="M32.6,47.6c2.7-3.3,4.6-6.3,5.9-9c9.1,4.8,7,3.9,11.3,8.9c0,0.2,0,0.3,0,0.5c0.4,7-4.8,23.3-25,25.5
		C23.5,62.6,28.1,53.3,32.6,47.6z"/>
	
		<linearGradient id="SVGID_3_" gradientUnits="userSpaceOnUse" x1="-40.2429" y1="48.2718" x2="-40.012" y2="48.1007" gradientTransform="matrix(156.0025 0 0 -128.7695 6277.7222 6223.021)">
		<stop  offset="0" style="stop-color:#D73721"/>
		<stop  offset="1" style="stop-color:#F7D768"/>
	</linearGradient>
	<path class="st2" d="M0.1,6.8c14.4-5.7,29.9,0.1,38.8,12.3c0.9,1.2,1.7,2.4,2.5,3.7c1.4,8.9,0.3,13.9-2.4,16.5
		c-1.8-0.9-3.7-1.7-5.7-2.4c-4.7-1.7-9.1-2.9-15.3-4.7C3.1,28-0.6,15.3,0.1,6.8z"/>
	
		<linearGradient id="SVGID_4_" gradientUnits="userSpaceOnUse" x1="-41.9302" y1="48.7568" x2="-41.7802" y2="48.6204" gradientTransform="matrix(42.8774 0 0 -97.3628 1838.7151 4779.6953)">
		<stop  offset="0" style="stop-color:#D4C883"/>
		<stop  offset="1" style="stop-color:#A1D1A7"/>
	</linearGradient>
	<path class="st3" d="M40.8,21.9c0.1,0.1,0.2,0.3,0.3,0.4l0.1,0.2c0.2,0.4,0.5,0.7,0.7,1.1l0,0.1l0.1,0.1l0.1,0.1l0.2,0.3l0,0
		l0.2,0.4l0,0c0.2,0.3,0.3,0.6,0.5,0.8l0,0l0.2,0.3l0,0l0.2,0.3l0.1,0.1l0.1,0.2l0.1,0.2l0.1,0.2c0.1,0.2,0.2,0.5,0.4,0.7l0,0.1
		c0.2,0.4,0.4,0.9,0.6,1.3l0.2,0.3l0,0l0.1,0.2l0.1,0.3l0.1,0.2l0.1,0.2l0.1,0.2l0.2,0.4l0,0l0.2,0.4l0,0c0.2,0.4,0.4,0.9,0.5,1.3
		l0,0l0.1,0.4l0,0l0.1,0.2c0.1,0.2,0.2,0.5,0.3,0.7l0,0.1c0.1,0.3,0.2,0.6,0.3,0.8l0,0.1c0.1,0.3,0.2,0.5,0.3,0.8l0,0.1l0,0l0.1,0.4
		l0,0l0.1,0.4l0.1,0.4l0,0l0.1,0.3l0,0.1L48,38c0.1,0.2,0.1,0.5,0.2,0.7l0,0.2l0.1,0.4l0,0c0.1,0.5,0.2,0.9,0.3,1.4l0,0l0,0
		c0.1,0.6,0.3,1.2,0.4,1.8l0,0.1c0.2,0.9,0.3,1.8,0.5,2.7l0,0c0,0.3,0.1,0.6,0.1,0.8l0,0.1l0,0.4v0l0,0.4l0,0.1l0,0.3l0,0.1l0,0
		l0,0.4c-3.2-4.1-7-6.9-11.5-9.1C42,31.6,41.5,26.5,40.8,21.9"/>
</g>
</svg>
