<?xml version="1.0" encoding="utf-8"?>
<!-- Generator: Adobe Illustrator 21.0.2, SVG Export Plug-In . SVG Version: 6.00 Build 0)  -->
<svg version="1.1" id="Слой_1" xmlns="http://www.w3.org/2000/svg" xmlns:xlink="http://www.w3.org/1999/xlink" x="0px" y="0px"
	 viewBox="0 0 82 84" style="enable-background:new 0 0 82 84;" xml:space="preserve">
<style type="text/css">
	.st0{fill:#E44D26;}
	.st1{fill:#F16529;}
	.st2{fill:#EBEBEB;}
	.st3{fill:#FFFFFF;}
</style>
<title>HTML5 Logo</title>
<path d="M16.8,0h3.8v3.7H24V0h3.8v11.3H24V7.5h-3.4v3.8h-3.8 M32.8,3.8h-3.3V0h10.5v3.8h-3.3v7.5h-3.8 M41.6,0h4L48,4l2.4-4h4v11.3
	h-3.8V5.7l-2.6,4.1l-2.6-4.1v5.6h-3.7 M56.2,0H60v7.6h5.3v3.7h-9.1"/>
<path class="st0" d="M16.7,77.3l-5.4-60.8h59.5l-5.4,60.7L41,84"/>
<path class="st1" d="M41,78.8V21.5h24.3l-4.6,51.8"/>
<path class="st2" d="M22.3,28.9H41v7.4H30.5l0.7,7.6H41v7.4H24.3 M24.7,55.2h7.5l0.5,6l8.3,2.2v7.8l-15.3-4.3"/>
<path class="st3" d="M59.6,28.9H41v7.4h18 M58.3,44H41v7.4h9.2l-0.9,9.7L41,63.4v7.7l15.3-4.2"/>
</svg>
