<?xml version="1.0" encoding="utf-8"?>
<!-- Generator: Adobe Illustrator 21.0.2, SVG Export Plug-In . SVG Version: 6.00 Build 0)  -->
<svg version="1.1" id="Capa_1" xmlns="http://www.w3.org/2000/svg" xmlns:xlink="http://www.w3.org/1999/xlink" x="0px" y="0px"
	 viewBox="0 0 96 96" style="enable-background:new 0 0 96 96;" xml:space="preserve">
<style type="text/css">
	.st0{fill:#212121;}
</style>
<g>
	<g>
		<path class="st0" d="M47.1,81.1c-0.3-0.3-0.8-0.5-1.3-0.5c-0.5,0-1,0.2-1.3,0.5c-0.3,0.3-0.5,0.8-0.5,1.3c0,0.5,0.2,1,0.5,1.3
			c0.3,0.4,0.8,0.5,1.3,0.5c0.5,0,1-0.2,1.3-0.5c0.3-0.3,0.5-0.8,0.5-1.3C47.7,82,47.5,81.5,47.1,81.1z"/>
	</g>
</g>
<g>
	<g>
		<path class="st0" d="M56.1,63.9V50.1c0-0.6-0.3-1.2-0.8-1.6c-0.5-0.3-1.2-0.4-1.7-0.2l-32.3,13H10.8C4.8,61.3,0,66.2,0,72.1
			s4.8,10.8,10.8,10.8H12v11.3c0,1,0.8,1.9,1.9,1.9h7.7c1,0,1.9-0.8,1.9-1.9V83.8l30.1,12.1c0.2,0.1,0.5,0.1,0.7,0.1
			c0.4,0,0.7-0.1,1-0.3c0.5-0.3,0.8-0.9,0.8-1.6V80.3c3.8-0.9,6.6-4.2,6.6-8.2C62.6,68.1,59.8,64.7,56.1,63.9z M19.7,92.2h-3.9v-9.4
			h3.9L19.7,92.2L19.7,92.2z M19.7,79.1h-8.9c-3.9,0-7-3.1-7-7c0-3.9,3.1-7,7-7h8.9L19.7,79.1z M52.3,91.3L52.3,91.3L23.4,79.7V64.5
			l20.5-8.3v18.6c0,1,0.8,1.9,1.9,1.9s1.9-0.8,1.9-1.9V54.7l4.6-1.9V91.3z M56.1,76.4v-8.6c1.7,0.7,2.8,2.4,2.8,4.3
			S57.7,75.7,56.1,76.4z"/>
	</g>
</g>
<g>
	<g>
		<path class="st0" d="M80.5,70.3H69.9c-1,0-1.9,0.8-1.9,1.9s0.8,1.9,1.9,1.9h10.6c1,0,1.9-0.8,1.9-1.9S81.6,70.3,80.5,70.3z"/>
	</g>
</g>
<g>
	<g>
		<path class="st0" d="M71.8,56.5c-0.7-0.7-1.9-0.7-2.7,0l-3.7,3.7c-0.7,0.7-0.7,1.9,0,2.7c0.4,0.4,0.8,0.5,1.3,0.5
			c0.5,0,1-0.2,1.3-0.5l3.7-3.7C72.5,58.5,72.5,57.3,71.8,56.5z"/>
	</g>
</g>
<g>
	<g>
		<path class="st0" d="M72,84.9l-3.8-3.8c-0.7-0.7-1.9-0.7-2.7,0c-0.7,0.7-0.7,1.9,0,2.7l3.8,3.8c0.4,0.4,0.8,0.5,1.3,0.5
			s1-0.2,1.3-0.5C72.7,86.9,72.7,85.7,72,84.9z"/>
	</g>
</g>
<g>
	<g>
		<path class="st0" d="M88.5,0H53.6c-4.1,0-7.5,3.4-7.5,7.5v0.7H14.6c-2.5,0-4.5,2-4.5,4.5v29.6c0,2.5,2,4.5,4.5,4.5h1.9v5.8
			c0,0.8,0.5,1.4,1.2,1.7c0.2,0.1,0.5,0.1,0.7,0.1c0.5,0,1-0.2,1.3-0.5l7.1-7.1h37.2c2.5,0,4.5-2,4.5-4.5v-5.6h19.9
			c4.1,0,7.5-3.4,7.5-7.5V7.5C96,3.4,92.6,0,88.5,0z M64.8,42.4c0,0.4-0.3,0.7-0.7,0.7h-38c-0.5,0-1,0.2-1.3,0.5l-4.4,4.4V45
			c0-1-0.8-1.9-1.9-1.9h-3.8c-0.4,0-0.7-0.3-0.7-0.7V12.7c0-0.4,0.3-0.7,0.7-0.7h31.5v17.2c0,4.1,3.4,7.5,7.5,7.5h11.2V42.4z
			 M92.3,29.2c0,2.1-1.7,3.7-3.7,3.7H53.6c-2.1,0-3.7-1.7-3.7-3.7V7.5c0-2.1,1.7-3.7,3.7-3.7h34.9c2.1,0,3.7,1.7,3.7,3.7V29.2z"/>
	</g>
</g>
<g>
	<g>
		<path class="st0" d="M78.6,16.8L65.8,9.3c-0.6-0.3-1.3-0.3-1.9,0c-0.6,0.3-0.9,1-0.9,1.6v14.8c0,0.7,0.4,1.3,0.9,1.6
			c0.3,0.2,0.6,0.3,0.9,0.3s0.6-0.1,0.9-0.3L78.6,20c0.6-0.3,0.9-1,0.9-1.6C79.5,17.7,79.2,17.1,78.6,16.8z M66.7,22.5v-8.3l7.2,4.2
			L66.7,22.5z"/>
	</g>
</g>
<g>
	<g>
		<path class="st0" d="M40.2,19.7H21.5c-1,0-1.9,0.8-1.9,1.9s0.8,1.9,1.9,1.9h18.7c1,0,1.9-0.8,1.9-1.9S41.3,19.7,40.2,19.7z"/>
	</g>
</g>
<g>
	<g>
		<path class="st0" d="M41.5,30.7c-0.3-0.3-0.8-0.5-1.3-0.5c-0.5,0-1,0.2-1.3,0.5c-0.3,0.3-0.5,0.8-0.5,1.3c0,0.5,0.2,1,0.5,1.3
			c0.3,0.3,0.8,0.5,1.3,0.5c0.5,0,1-0.2,1.3-0.5c0.3-0.3,0.5-0.8,0.5-1.3C42.1,31.6,41.9,31.1,41.5,30.7z"/>
	</g>
</g>
<g>
	<g>
		<path class="st0" d="M33.2,30.2H21.5c-1,0-1.9,0.8-1.9,1.9c0,1,0.8,1.9,1.9,1.9h11.7c1,0,1.9-0.8,1.9-1.9
			C35.1,31,34.2,30.2,33.2,30.2z"/>
	</g>
</g>
</svg>
