<?xml version="1.0" encoding="utf-8"?>
<!-- Generator: Adobe Illustrator 21.0.2, SVG Export Plug-In . SVG Version: 6.00 Build 0)  -->
<svg version="1.1" id="Capa_1" xmlns="http://www.w3.org/2000/svg" xmlns:xlink="http://www.w3.org/1999/xlink" x="0px" y="0px"
	 viewBox="0 0 102 102" style="enable-background:new 0 0 102 102;" xml:space="preserve">
<style type="text/css">
	.st0{fill:#212121;}
</style>
<g>
	<g>
		<g>
			<path class="st0" d="M100.3,88.4h-1.7V35.7c0-0.9-0.8-1.7-1.7-1.7H5.1c-0.9,0-1.7,0.8-1.7,1.7v52.7H1.7c-0.9,0-1.7,0.8-1.7,1.7
				v3.4c0,4.7,3.8,8.5,8.5,8.5h85c4.7,0,8.5-3.8,8.5-8.5v-3.4C102,89.2,101.2,88.4,100.3,88.4z M6.8,37.4h88.4v51H64.6
				c-0.5,0-0.9,0.2-1.2,0.5l-2.9,2.9h-19l-2.9-2.9c-0.3-0.3-0.8-0.5-1.2-0.5H6.8V37.4z M98.6,93.5c0,2.8-2.3,5.1-5.1,5.1h-85
				c-2.8,0-5.1-2.3-5.1-5.1v-1.7h33.3l2.9,2.9c0.3,0.3,0.8,0.5,1.2,0.5h20.4c0.5,0,0.9-0.2,1.2-0.5l2.9-2.9h33.3V93.5z"/>
			<path class="st0" d="M37.5,73.6L58,54.8l20.4,11.9l15.1-15.1V39.1h-85v39.2l17-13.3L37.5,73.6z M11.9,71.3V42.5h78.2v7.7
				L77.9,62.4L57.6,50.6L37.3,69.2l-11.8-8.4L11.9,71.3z"/>
			<path class="st0" d="M23.8,32.3c0.9,0,1.7-0.8,1.7-1.7v-3.7l5.9-1c0.7-0.1,1.2-0.6,1.4-1.3c0.5-2,1.2-3.9,2.3-5.6
				c0.4-0.6,0.3-1.3-0.1-1.9l-3.5-4.9l2.8-2.8l4.9,3.5c0.6,0.4,1.3,0.4,1.9,0.1c1.7-1.1,3.6-1.9,5.6-2.3c0.7-0.2,1.2-0.7,1.3-1.4
				l1-5.9H53l1,5.9c0.1,0.7,0.6,1.2,1.3,1.4c2,0.5,3.9,1.2,5.6,2.3c0.6,0.4,1.3,0.3,1.9-0.1l4.9-3.5l2.8,2.8l-3.5,4.9
				c-0.4,0.6-0.4,1.3-0.1,1.9c1.1,1.7,1.9,3.6,2.3,5.6c0.2,0.7,0.7,1.2,1.4,1.3l5.9,1v3.7c0,0.9,0.8,1.7,1.7,1.7
				c0.9,0,1.7-0.8,1.7-1.7v-5.1c0-0.8-0.6-1.5-1.4-1.7l-6.2-1c-0.5-1.6-1.1-3.1-1.9-4.6l3.7-5.1c0.5-0.7,0.4-1.6-0.2-2.2L69,6.1
				c-0.6-0.6-1.5-0.7-2.2-0.2l-5.1,3.7c-1.5-0.8-3-1.4-4.6-1.9l-1-6.2C55.9,0.6,55.2,0,54.4,0h-6.8c-0.8,0-1.5,0.6-1.7,1.4l-1,6.2
				c-1.6,0.5-3.1,1.1-4.6,1.9l-5.1-3.7c-0.7-0.5-1.6-0.4-2.2,0.2l-4.8,4.8c-0.6,0.6-0.7,1.5-0.2,2.2l3.7,5.1c-0.8,1.5-1.4,3-1.9,4.6
				l-6.2,1c-0.8,0.1-1.4,0.8-1.4,1.7v5.1C22.1,31.5,22.9,32.3,23.8,32.3z"/>
			<path class="st0" d="M61.2,28.9c0,0.9,0.8,1.7,1.7,1.7s1.7-0.8,1.7-1.7c0-7.5-6.1-13.6-13.6-13.6s-13.6,6.1-13.6,13.6
				c0,0.9,0.8,1.7,1.7,1.7s1.7-0.8,1.7-1.7c0-5.6,4.6-10.2,10.2-10.2S61.2,23.3,61.2,28.9z"/>
			<path class="st0" d="M44.2,28.9c0,0.9,0.8,1.7,1.7,1.7c0.9,0,1.7-0.8,1.7-1.7c0-1.9,1.5-3.4,3.4-3.4c1.9,0,3.4,1.5,3.4,3.4
				c0,0.9,0.8,1.7,1.7,1.7s1.7-0.8,1.7-1.7c0-3.8-3-6.8-6.8-6.8C47.2,22.1,44.2,25.1,44.2,28.9z"/>
			<polygon class="st0" points="93.5,85 93.5,83.3 93.5,57.8 90.1,57.8 90.1,83.3 86.7,83.3 86.7,64.6 83.3,64.6 83.3,83.3 
				79.9,83.3 79.9,69.7 76.5,69.7 76.5,83.3 73.1,83.3 73.1,66.3 69.7,66.3 69.7,83.3 66.3,83.3 66.3,62.9 62.9,62.9 62.9,83.3 
				59.5,83.3 59.5,59.5 56.1,59.5 56.1,83.3 52.7,83.3 52.7,66.3 49.3,66.3 49.3,83.3 45.9,83.3 45.9,73.1 42.5,73.1 42.5,83.3 
				39.1,83.3 39.1,76.5 35.7,76.5 35.7,83.3 32.3,83.3 32.3,73.1 28.9,73.1 28.9,83.3 25.5,83.3 25.5,71.4 22.1,71.4 22.1,83.3 
				18.7,83.3 18.7,76.5 15.3,76.5 15.3,83.3 11.9,83.3 11.9,81.6 8.5,81.6 8.5,83.3 8.5,85 8.5,86.7 93.5,86.7 			"/>
		</g>
	</g>
</g>
</svg>
