<?xml version="1.0" encoding="utf-8"?>
<!-- Generator: Adobe Illustrator 21.0.2, SVG Export Plug-In . SVG Version: 6.00 Build 0)  -->
<svg version="1.1" id="Capa_1" xmlns="http://www.w3.org/2000/svg" xmlns:xlink="http://www.w3.org/1999/xlink" x="0px" y="0px"
	 viewBox="0 0 83 83" style="enable-background:new 0 0 83 83;" xml:space="preserve">
<style type="text/css">
	.st0{fill:#FFFFFF;}
</style>
<path class="st0" d="M73.9,0c-5,0-9.1,4.1-9.1,9.1c0,1.6,0.4,3,1.1,4.3L51.2,28.2c-2-1.6-4.6-2.5-7.4-2.5c-2.8,0-5.3,1-7.4,2.5
	L24.8,16.6c0.5-0.9,0.9-1.9,0.9-3c0-3.3-2.7-6-6-6s-6,2.7-6,6s2.7,6,6,6c1.1,0,2.1-0.3,3-0.9l11.6,11.6c-1.6,2-2.5,4.6-2.5,7.4
	s1,5.3,2.5,7.4L15.1,64.2c-1.6-1.5-3.7-2.4-6.1-2.4c-5,0-9.1,4.1-9.1,9.1c0,5,4.1,9.1,9.1,9.1s9.1-4.1,9.1-9.1c0-1.6-0.4-3-1.1-4.3
	l19.4-19.4c1.7,1.3,3.7,2.2,5.9,2.4V65c-4.3,0.7-7.5,4.4-7.5,8.9c0,5,4.1,9.1,9.1,9.1s9.1-4.1,9.1-9.1c0-4.5-3.3-8.2-7.5-8.9V49.7
	c2.2-0.3,4.2-1.1,5.9-2.4l11.6,11.6c-0.5,0.9-0.9,1.9-0.9,3c0,3.3,2.7,6,6,6s6-2.7,6-6c0-3.3-2.7-6-6-6c-1.1,0-2.1,0.3-3,0.9
	L53.3,45.1c1.6-2,2.5-4.6,2.5-7.4s-1-5.3-2.5-7.4l14.6-14.6c1.6,1.5,3.7,2.4,6.1,2.4c5,0,9.1-4.1,9.1-9.1S78.9,0,73.9,0z M16.6,13.6
	c0-1.7,1.4-3,3-3c1.7,0,3,1.4,3,3s-1.4,3-3,3C18,16.6,16.6,15.2,16.6,13.6z M9.1,77c-3.3,0-6-2.7-6-6s2.7-6,6-6s6,2.7,6,6
	S12.4,77,9.1,77z M49.8,73.9c0,3.3-2.7,6-6,6c-3.3,0-6-2.7-6-6s2.7-6,6-6C47.1,67.9,49.8,70.6,49.8,73.9z M43.8,46.8
	c-5,0-9.1-4.1-9.1-9.1s4.1-9.1,9.1-9.1s9.1,4.1,9.1,9.1S48.8,46.8,43.8,46.8z M70.9,61.9c0,1.7-1.4,3-3,3s-3-1.4-3-3s1.4-3,3-3
	S70.9,60.2,70.9,61.9z M73.9,15.1c-3.3,0-6-2.7-6-6s2.7-6,6-6s6,2.7,6,6S77.3,15.1,73.9,15.1z"/>
</svg>
