<?xml version="1.0" encoding="utf-8"?>
<!-- Generator: Adobe Illustrator 21.0.2, SVG Export Plug-In . SVG Version: 6.00 Build 0)  -->
<svg version="1.1" id="Capa_1" xmlns="http://www.w3.org/2000/svg" xmlns:xlink="http://www.w3.org/1999/xlink" x="0px" y="0px"
	 viewBox="0 0 71 71" style="enable-background:new 0 0 71 71;" xml:space="preserve">
<style type="text/css">
	.st0{fill:#FFFFFF;}
</style>
<g>
	<path class="st0" d="M70.6,33.1h-3.4V17.4c0-3.8-3.1-6.8-6.8-6.8h-4.6l-4.7-8.5C50.4,0.8,49,0,47.5,0c-0.7,0-1.4,0.2-2,0.5
		L27.4,10.6H7.2c-3.8,0-6.8,3.1-6.8,6.8v46.8c0,3.8,3.1,6.8,6.8,6.8h53.3c3.8,0,6.8-3.1,6.8-6.8V50.4h3.4V33.1L70.6,33.1z
		 M60.4,13.3c2.1,0,3.8,1.6,4,3.6h-5.1l-2-3.6H60.4z M46.9,2.9c0.6-0.4,1.5-0.1,1.9,0.5l7.5,13.5H21.6L46.9,2.9z M64.5,64.2
		c0,2.3-1.8,4.1-4.1,4.1H7.2c-2.3,0-4.1-1.8-4.1-4.1V17.4c0-2.3,1.8-4.1,4.1-4.1h15.3L16,17H8c-0.8,0-1.4,0.6-1.4,1.4
		s0.6,1.4,1.4,1.4h3.1h49.8h3.7v13.4h-10c-4.6,0-8.4,3.8-8.4,8.4v0.6c0,4.6,3.8,8.4,8.4,8.4h10L64.5,64.2L64.5,64.2z M67.9,47.7
		h-0.7H54.5c-3.1,0-5.7-2.5-5.7-5.7v-0.6c0-3.1,2.5-5.7,5.7-5.7h12.7h0.7V47.7z M58.7,41.9c0,1.7-1.3,3-3,3c-1.7,0-3-1.3-3-3
		s1.3-3,3-3C57.4,38.9,58.7,40.2,58.7,41.9z"/>
</g>
</svg>
