<?xml version="1.0" encoding="utf-8"?>
<!-- Generator: Adobe Illustrator 21.0.2, SVG Export Plug-In . SVG Version: 6.00 Build 0)  -->
<svg version="1.1" id="Capa_1" xmlns="http://www.w3.org/2000/svg" xmlns:xlink="http://www.w3.org/1999/xlink" x="0px" y="0px"
	 viewBox="0 0 63 69" style="enable-background:new 0 0 63 69;" xml:space="preserve">
<style type="text/css">
	.st0{fill:#FFFFFF;}
</style>
<g>
	<g>
		<path class="st0" d="M56.3,32.2c0.5,0,0.9-0.3,1-0.7l0,0L62,21.2c0.1-0.1,0.1-0.3,0.1-0.5V1.2C62.1,0.5,61.6,0,61,0c0,0,0,0,0,0
			H40.2c-0.4,0-0.8,0.2-1,0.6l-4.6,9.2h0c-0.1,0.2-0.1,0.3-0.1,0.5v9.2h-6.9V1.2c0-0.6-0.5-1.1-1.1-1.1c0,0,0,0,0,0H5.7
			c-0.4,0-0.8,0.2-1,0.6L0.1,9.8h0C0,10,0,10.2,0,10.4v20.7c0,0.6,0.5,1.1,1.1,1.1h9.2v4.6H5.7c-0.4,0-0.8,0.2-1,0.6l-4.6,9.2h0
			C0,46.8,0,47,0,47.2v20.7C0,68.5,0.5,69,1.1,69h20.7c0.5,0,0.9-0.3,1-0.7l0,0l4.3-9.6h7.3v9.2c0,0.6,0.5,1.2,1.1,1.2h20.7
			c0.5,0,0.9-0.3,1-0.7l0,0L62,58c0.1-0.1,0.1-0.3,0.1-0.5V38c0-0.6-0.5-1.1-1.1-1.2c0,0,0,0,0,0H47.1v-4.6H56.3z M59.8,20.5
			l-2.3,5.2v-15L59.8,6V20.5z M41,2.3h18.1l-3.4,6.9H37.5L41,2.3z M23,19.6v-8.9L25.3,6v13.5H23z M24.7,21.9L23,25.6v-3.8L24.7,21.9
			L24.7,21.9z M6.5,2.3h18.1l-3.4,6.9H3L6.5,2.3z M2.3,29.9V11.5h18.4v8H10.3v2.3h10.3v8H2.3z M6.5,39.1h3.9V46H3L6.5,39.1z
			 M20.7,66.7H2.3V48.3h8v10.3h2.3V48.3h8V66.7z M21.1,46h-8.5v-6.9h11.9L21.1,46z M23,62.4v-3.8h1.7L23,62.4z M25.3,56.4H23v-8.9
			l2.3-4.6V56.4z M34.6,46.6L34.6,46.6c-0.1,0.2-0.1,0.3-0.1,0.5v9.2h-6.9V38c0-0.6-0.5-1.1-1.1-1.1c0,0,0,0,0,0H12.6v-4.6h9.2
			c0.5,0,0.9-0.3,1-0.7l0,0l4.3-9.6h7.3v9.2c0,0.6,0.5,1.1,1.1,1.1h9.2v4.6h-4.6c-0.4,0-0.8,0.2-1,0.6L34.6,46.6z M44.8,39.1V46
			h-7.3l3.4-6.9H44.8z M55.2,66.7H36.8v-8h10.3v-2.3H36.8v-8h18.4V66.7z M59.8,57.3l-2.3,5.2v-15l2.3-4.6V57.3z M59.1,39.1L55.6,46
			h-8.5v-6.9H59.1z M44.8,19.6v10.3h-8V11.5h18.4v18.4h-8V19.6H44.8z"/>
	</g>
</g>
</svg>
