<?xml version="1.0" encoding="utf-8"?>
<!-- Generator: Adobe Illustrator 21.0.2, SVG Export Plug-In . SVG Version: 6.00 Build 0)  -->
<svg version="1.1" id="Capa_1" xmlns="http://www.w3.org/2000/svg" xmlns:xlink="http://www.w3.org/1999/xlink" x="0px" y="0px"
	 viewBox="0 0 76 76" style="enable-background:new 0 0 76 76;" xml:space="preserve">
<style type="text/css">
	.st0{fill:#212121;}
</style>
<g>
	<g>
		<path class="st0" d="M74.7,0H1.3C0.5,0,0,0.5,0,1.3v73.5C0,75.5,0.5,76,1.3,76h73.5c0.8,0,1.3-0.5,1.3-1.3V1.3
			C76,0.5,75.5,0,74.7,0z M73.5,73.5H2.5V12.7h70.9V73.5z M73.5,10.1H2.5V2.5h70.9V10.1z"/>
		<rect x="5.1" y="5.1" class="st0" width="2.5" height="2.5"/>
		<rect x="10.1" y="5.1" class="st0" width="2.5" height="2.5"/>
		<rect x="15.2" y="5.1" class="st0" width="2.5" height="2.5"/>
		<rect x="68.4" y="5.1" class="st0" width="2.5" height="2.5"/>
		<path class="st0" d="M6.3,70.9h63.3c0.8,0,1.3-0.5,1.3-1.3V16.5c0-0.8-0.5-1.3-1.3-1.3H6.3c-0.8,0-1.3,0.5-1.3,1.3v53.2
			C5.1,70.4,5.6,70.9,6.3,70.9z M7.6,17.7h60.8v50.7H7.6V17.7z"/>
		<rect x="10.1" y="20.3" class="st0" width="10.1" height="2.5"/>
		<rect x="22.8" y="20.3" class="st0" width="2.5" height="2.5"/>
		<rect x="27.9" y="20.3" class="st0" width="2.5" height="2.5"/>
		<rect x="32.9" y="20.3" class="st0" width="2.5" height="2.5"/>
		<rect x="38" y="20.3" class="st0" width="2.5" height="2.5"/>
		<rect x="43.1" y="20.3" class="st0" width="2.5" height="2.5"/>
		<path class="st0" d="M64.6,25.3H11.4c-0.8,0-1.3,0.5-1.3,1.3v15.2c0,0.8,0.5,1.3,1.3,1.3h53.2c0.8,0,1.3-0.5,1.3-1.3V26.6
			C65.9,25.8,65.4,25.3,64.6,25.3z M63.3,40.5H12.7V27.9h50.7V40.5z"/>
		<path class="st0" d="M24.1,45.6H11.4c-0.8,0-1.3,0.5-1.3,1.3v12.7c0,0.8,0.5,1.3,1.3,1.3h12.7c0.8,0,1.3-0.5,1.3-1.3V46.9
			C25.3,46.1,24.8,45.6,24.1,45.6z M22.8,58.3H12.7V48.1h10.1V58.3z"/>
		<path class="st0" d="M64.6,45.6H51.9c-0.8,0-1.3,0.5-1.3,1.3v12.7c0,0.8,0.5,1.3,1.3,1.3h12.7c0.8,0,1.3-0.5,1.3-1.3V46.9
			C65.9,46.1,65.4,45.6,64.6,45.6z M63.3,58.3H53.2V48.1h10.1V58.3z"/>
		<path class="st0" d="M44.3,45.6H31.7c-0.8,0-1.3,0.5-1.3,1.3v12.7c0,0.8,0.5,1.3,1.3,1.3h12.7c0.8,0,1.3-0.5,1.3-1.3V46.9
			C45.6,46.1,45.1,45.6,44.3,45.6z M43.1,58.3H32.9V48.1h10.1V58.3z"/>
		<rect x="11.4" y="63.3" class="st0" width="2.5" height="2.5"/>
		<rect x="16.5" y="63.3" class="st0" width="2.5" height="2.5"/>
		<rect x="21.5" y="63.3" class="st0" width="2.5" height="2.5"/>
		<rect x="31.7" y="63.3" class="st0" width="2.5" height="2.5"/>
		<rect x="36.7" y="63.3" class="st0" width="2.5" height="2.5"/>
		<rect x="41.8" y="63.3" class="st0" width="2.5" height="2.5"/>
		<rect x="51.9" y="63.3" class="st0" width="2.5" height="2.5"/>
		<rect x="57" y="63.3" class="st0" width="2.5" height="2.5"/>
		<rect x="62.1" y="63.3" class="st0" width="2.5" height="2.5"/>
	</g>
</g>
</svg>
