<?xml version="1.0" encoding="utf-8"?>
<!-- Generator: Adobe Illustrator 21.0.2, SVG Export Plug-In . SVG Version: 6.00 Build 0)  -->
<svg version="1.1" id="Capa_1" xmlns="http://www.w3.org/2000/svg" xmlns:xlink="http://www.w3.org/1999/xlink" x="0px" y="0px"
	 viewBox="0 0 103 103" style="enable-background:new 0 0 103 103;" xml:space="preserve">
<style type="text/css">
	.st0{fill:#FFFFFF;}
</style>
<path class="st0" d="M90.4,1.6c-6,0-10.9,4.9-10.9,10.9c0,1.9,0.5,3.6,1.3,5.2L63.2,35.5c-2.4-1.9-5.5-3-8.9-3c-3.4,0-6.4,1.2-8.9,3
	L31.4,21.6c0.6-1.1,1.1-2.3,1.1-3.6c0-4-3.2-7.2-7.2-7.2S18.1,14,18.1,18s3.2,7.2,7.2,7.2c1.3,0,2.5-0.4,3.6-1.1L42.8,38
	c-1.9,2.4-3,5.5-3,8.9s1.2,6.4,3,8.9l-23.1,23c-1.9-1.8-4.4-2.9-7.3-2.9c-6,0-10.9,4.9-10.9,10.9s4.9,10.9,10.9,10.9
	s10.9-4.9,10.9-10.9c0-1.9-0.5-3.6-1.3-5.2l23.3-23.3c2,1.6,4.4,2.6,7.1,2.9v18.5c-5.2,0.8-9,5.3-9,10.7c0,6,4.9,10.9,10.9,10.9
	s10.9-4.9,10.9-10.9c0-5.4-4-9.9-9-10.7V61.4c2.6-0.4,5-1.3,7.1-2.9l13.9,13.9c-0.6,1.1-1.1,2.3-1.1,3.6c0,4,3.2,7.2,7.2,7.2
	s7.2-3.2,7.2-7.2s-3.2-7.2-7.2-7.2c-1.3,0-2.5,0.4-3.6,1.1L65.7,55.8c1.9-2.4,3-5.5,3-8.9s-1.2-6.4-3-8.9l17.5-17.5
	c1.9,1.8,4.4,2.9,7.3,2.9c6,0,10.9-4.9,10.9-10.9S96.5,1.6,90.4,1.6z M21.6,18c0-2,1.7-3.6,3.6-3.6c2,0,3.6,1.7,3.6,3.6
	s-1.7,3.6-3.6,3.6S21.6,19.9,21.6,18z M12.6,94.2c-4,0-7.2-3.2-7.2-7.2c0-4,3.2-7.2,7.2-7.2s7.2,3.2,7.2,7.2
	C19.8,90.9,16.5,94.2,12.6,94.2z M61.5,90.4c0,4-3.2,7.2-7.2,7.2s-7.2-3.2-7.2-7.2c0-4,3.2-7.2,7.2-7.2S61.5,86.5,61.5,90.4z
	 M54.3,57.9c-6,0-10.9-4.9-10.9-10.9S48.3,36,54.3,36s10.9,4.9,10.9,10.9S60.3,57.9,54.3,57.9z M86.8,76c0,2-1.7,3.6-3.6,3.6
	s-3.6-1.7-3.6-3.6s1.7-3.6,3.6-3.6S86.8,74,86.8,76z M90.4,19.8c-4,0-7.2-3.2-7.2-7.2s3.2-7.2,7.2-7.2c4,0,7.2,3.2,7.2,7.2
	S94.5,19.8,90.4,19.8z"/>
</svg>
