<?xml version="1.0" encoding="utf-8"?>
<!-- Generator: Adobe Illustrator 21.0.2, SVG Export Plug-In . SVG Version: 6.00 Build 0)  -->
<svg version="1.1" id="Capa_1" xmlns="http://www.w3.org/2000/svg" xmlns:xlink="http://www.w3.org/1999/xlink" x="0px" y="0px"
	 viewBox="0 0 164 164" style="enable-background:new 0 0 164 164;" xml:space="preserve">
<style type="text/css">
	.st0{fill:#212121;}
</style>
<g>
	<g>
		<path class="st0" d="M161.6,79.6h-38.7v-5.5h10.4c1.3,0,2.4-1.1,2.4-2.4s-1.1-2.4-2.4-2.4h-10.4v-5.5h7.2c2.7,0,5.2-1.1,7.1-3
			l15.8-15.8c1,0.5,2.2,0.8,3.4,0.8c2,0,3.9-0.8,5.3-2.2c1.4-1.4,2.2-3.3,2.2-5.3s-0.8-3.9-2.2-5.3c-1.4-1.4-3.3-2.2-5.3-2.2
			c-2,0-3.9,0.8-5.3,2.2c-1.4,1.4-2.2,3.3-2.2,5.3c0,1.2,0.3,2.3,0.8,3.4l-15.8,15.8c-1,1-2.3,1.6-3.7,1.6h-7.2v-5.3
			c0-7-5.7-12.7-12.7-12.7h-5.3V19.8c3-1,5.1-3.8,5.1-7.1c0-4.2-3.4-7.5-7.5-7.5c-4.2,0-7.5,3.4-7.5,7.5c0,3.3,2.2,6.1,5.1,7.1v21.3
			h-5.5V30.6c0-1.3-1.1-2.4-2.4-2.4c-1.3,0-2.4,1.1-2.4,2.4v10.4h-5.5V2.4C84.4,1.1,83.3,0,82,0s-2.4,1.1-2.4,2.4v38.7h-5.5V30.6
			c0-1.3-1.1-2.4-2.4-2.4s-2.4,1.1-2.4,2.4v10.4h-5.5v-7.2c0-2.7-1.1-5.2-3-7.1L45.1,10.9c1.4-2.8,0.9-6.3-1.4-8.7
			C40.7-0.7,36-0.7,33,2.2c-2.9,2.9-2.9,7.7,0,10.7c1.5,1.5,3.4,2.2,5.3,2.2c1.1,0,2.3-0.3,3.3-0.8l15.8,15.8c1,1,1.6,2.3,1.6,3.7
			v7.2h-5.3c-1.1,0-2.1,0.1-3.2,0.4c-1.3,0.3-2.1,1.6-1.7,2.9c0.3,1.3,1.6,2.1,2.9,1.7c0.6-0.2,1.3-0.2,2-0.2h56.5
			c4.3,0,7.9,3.5,7.9,7.9v56.5c0,0.7-0.1,1.3-0.2,2c-0.3,1.3,0.4,2.6,1.7,2.9c0.2,0.1,0.4,0.1,0.6,0.1c1.1,0,2-0.7,2.3-1.8
			c0.3-1,0.4-2.1,0.4-3.2v-5.3h21.3c1,3,3.8,5.1,7.1,5.1c4.2,0,7.5-3.4,7.5-7.5s-3.4-7.5-7.5-7.5c-3.3,0-6.1,2.2-7.1,5.1h-21.3v-5.5
			h10.4c1.3,0,2.4-1.1,2.4-2.4c0-1.3-1.1-2.4-2.4-2.4h-10.4v-5.5h38.7c1.3,0,2.4-1.1,2.4-2.4S162.9,79.6,161.6,79.6z M154.5,36.4
			c0.5-0.5,1.2-0.8,1.9-0.8c0.7,0,1.4,0.3,1.9,0.8s0.8,1.2,0.8,1.9c0,0.7-0.3,1.4-0.8,1.9s-1.2,0.8-1.9,0.8c-0.7,0-1.4-0.3-1.9-0.8
			s-0.8-1.2-0.8-1.9S154,36.9,154.5,36.4z M40.3,9.5c-1.1,1.1-2.8,1.1-3.9,0c-1.1-1.1-1.1-2.8,0-3.9c0.5-0.5,1.2-0.8,1.9-0.8
			c0.7,0,1.4,0.3,1.9,0.8C41.3,6.7,41.3,8.4,40.3,9.5z M102.5,15.4c-1.5,0-2.7-1.2-2.7-2.7s1.2-2.7,2.7-2.7c1.5,0,2.7,1.2,2.7,2.7
			S104,15.4,102.5,15.4z M151.3,99.8c1.5,0,2.7,1.2,2.7,2.7c0,1.5-1.2,2.7-2.7,2.7c-1.5,0-2.7-1.2-2.7-2.7
			C148.6,101,149.8,99.8,151.3,99.8z"/>
	</g>
</g>
<g>
	<g>
		<path class="st0" d="M131,151.1c-2.3-2.3-5.9-2.8-8.7-1.4l-15.8-15.8c-1-1-1.6-2.3-1.6-3.7v-7.2h5.3c1.1,0,2.1-0.1,3.2-0.4
			c1.3-0.3,2.1-1.6,1.7-2.9c-0.3-1.3-1.6-2.1-2.9-1.7c-0.6,0.2-1.3,0.2-2,0.2H53.8c-4.3,0-7.9-3.5-7.9-7.9V53.8c0-0.7,0.1-1.3,0.2-2
			c0.3-1.3-0.4-2.6-1.7-2.9c-1.3-0.3-2.6,0.4-2.9,1.7c-0.3,1-0.4,2.1-0.4,3.2v5.3H19.8c-1-3-3.8-5.1-7.1-5.1c-4.2,0-7.5,3.4-7.5,7.5
			S8.5,69,12.7,69c3.3,0,6.1-2.2,7.1-5.1h21.3v5.5H30.6c-1.3,0-2.4,1.1-2.4,2.4c0,1.3,1.1,2.4,2.4,2.4h10.4v5.5H2.4
			C1.1,79.6,0,80.7,0,82c0,1.3,1.1,2.4,2.4,2.4h38.7v5.5H30.6c-1.3,0-2.4,1.1-2.4,2.4s1.1,2.4,2.4,2.4h10.4v5.5h-7.2
			c-2.7,0-5.2,1.1-7.1,3l-15.8,15.8c-1-0.5-2.2-0.8-3.4-0.8c-2,0-3.9,0.8-5.3,2.2c-1.4,1.4-2.2,3.3-2.2,5.3c0,2,0.8,3.9,2.2,5.3
			c1.4,1.4,3.3,2.2,5.3,2.2s3.9-0.8,5.3-2.2c1.4-1.4,2.2-3.3,2.2-5.3c0-1.2-0.3-2.3-0.8-3.4l15.8-15.8c1-1,2.3-1.6,3.7-1.6h7.2v5.3
			c0,7,5.7,12.7,12.7,12.7h5.3v21.3c-3,1-5.1,3.8-5.1,7.1c0,4.2,3.4,7.5,7.5,7.5c4.2,0,7.5-3.4,7.5-7.5c0-3.3-2.2-6.1-5.1-7.1v-21.3
			h5.5v10.4c0,1.3,1.1,2.4,2.4,2.4s2.4-1.1,2.4-2.4v-10.4h5.5v38.7c0,1.3,1.1,2.4,2.4,2.4s2.4-1.1,2.4-2.4v-38.7h5.5v10.4
			c0,1.3,1.1,2.4,2.4,2.4s2.4-1.1,2.4-2.4v-10.4h5.5v7.2c0,2.7,1.1,5.2,3,7.1l15.8,15.8c-1.4,2.8-0.9,6.3,1.4,8.7
			c1.5,1.5,3.4,2.2,5.3,2.2c1.9,0,3.9-0.7,5.3-2.2C133.9,158.9,133.9,154.1,131,151.1z M12.7,64.2c-1.5,0-2.7-1.2-2.7-2.7
			c0-1.5,1.2-2.7,2.7-2.7s2.7,1.2,2.7,2.7C15.4,63,14.2,64.2,12.7,64.2z M9.5,127.6c-0.5,0.5-1.2,0.8-1.9,0.8s-1.4-0.3-1.9-0.8
			s-0.8-1.2-0.8-1.9s0.3-1.4,0.8-1.9s1.2-0.8,1.9-0.8s1.4,0.3,1.9,0.8s0.8,1.2,0.8,1.9S10,127.1,9.5,127.6z M64.2,151.3
			c0,1.5-1.2,2.7-2.7,2.7s-2.7-1.2-2.7-2.7s1.2-2.7,2.7-2.7C63,148.6,64.2,149.8,64.2,151.3z M127.6,158.4c-1.1,1.1-2.8,1.1-3.9,0
			c-1.1-1.1-1.1-2.8,0-3.9c0.5-0.5,1.2-0.8,1.9-0.8c0.7,0,1.4,0.3,1.9,0.8C128.6,155.6,128.6,157.3,127.6,158.4z"/>
	</g>
</g>
<g>
	<g>
		<path class="st0" d="M107.5,75.6c0-5.1-3.8-9.5-8.9-10.9c0.2-0.6,0.2-1.3,0.2-1.9c0-4.9-4.3-8.8-9.6-8.8c-2.9,0-5.5,1.2-7.2,3
			c-1.8-1.8-4.3-3-7.2-3c-5.3,0-9.6,4-9.6,8.8c0,0.7,0.1,1.3,0.2,1.9c-5.1,1.4-8.9,5.8-8.9,10.9c0,2.5,0.9,4.9,2.5,6.8
			c-1.6,2.1-2.5,4.6-2.5,7.3c0,4.1,2.2,7.9,5.8,10.3c0,0,0,0,0,0c0,5.6,5,10.1,11.1,10.1c3.5,0,6.6-1.5,8.7-3.8
			c2,2.3,5.2,3.8,8.7,3.8c5.9,0,10.7-4.2,11-9.5c3.6-2.1,5.8-5.7,5.8-9.6c0-2.9-1.2-5.6-3.3-7.7C106.3,81.2,107.5,78.5,107.5,75.6z
			 M99,85.4c2.3,1.2,3.7,3.3,3.7,5.6c0,1.7-0.8,3.3-2.1,4.5c-1.3-2.3-3.5-4.2-6.3-5.1c-1.3-0.4-2.6,0.3-3,1.6
			c-0.4,1.3,0.3,2.6,1.6,3c2.4,0.8,4.1,2.8,4.1,5c0,2.9-2.8,5.3-6.3,5.3c-3.5,0-6.3-2.4-6.3-5.3V84.6c0-2.9,2.8-5.3,6.3-5.3
			c1.3,0,2.4-1.1,2.4-2.4s-1.1-2.4-2.4-2.4c-2.3,0-4.5,0.7-6.3,1.8v-3.1c0-1.3-1.1-2.4-2.4-2.4s-2.4,1.1-2.4,2.4v13.3
			c-0.8-0.5-1.7-0.9-2.7-1.2c-1.3-0.4-2.6,0.3-3,1.6c-0.4,1.3,0.3,2.6,1.6,3c2.4,0.8,4.1,2.8,4.1,5v5.1c0,2.9-2.8,5.3-6.3,5.3
			c-3.5,0-6.3-2.4-6.3-5.3c0-1.3,0.5-2.5,1.5-3.4c0.9-0.9,0.9-2.5,0-3.4s-2.5-0.9-3.4,0c-0.6,0.6-1.1,1.2-1.5,1.9
			c-1.5-1.4-2.4-3.3-2.4-5.3c0-3.6,2.8-6.7,6.8-7.6c1.3-0.3,2.1-1.6,1.8-2.9c-0.3-1.3-1.6-2.1-2.9-1.8c-1.6,0.4-3.1,1-4.4,1.8
			c-0.9-1.1-1.3-2.3-1.3-3.6c0-3.6,3.4-6.6,7.6-6.6c0,0,0,0,0.1,0c0.5,0,1.1-0.2,1.6-0.6c0.9-0.8,1.1-2.1,0.5-3.1c0,0,0-0.1-0.1-0.1
			c0,0,0,0,0,0c0-0.1-0.1-0.1-0.1-0.2c0,0,0,0,0,0c-0.4-0.5-0.9-1.3-0.9-2.3c0-2.2,2.2-4,4.8-4s4.8,1.8,4.8,4c0,1.3,1.1,2.4,2.4,2.4
			c1.3,0,2.4-1.1,2.4-2.4c0-2.2,2.2-4,4.8-4c2.7,0,4.8,1.8,4.8,4c0,0.6-0.2,1.1-0.4,1.5c-1.4,0.1-2.7,0.5-3.9,1
			c-1.2,0.5-1.8,1.9-1.3,3.1c0.5,1.2,1.9,1.8,3.1,1.3c1-0.4,2.2-0.7,3.3-0.7c0,0,0,0,0.1,0c0,0,0,0,0.1,0c4.2,0,7.6,3,7.6,6.6
			c0,2.3-1.4,4.4-3.7,5.6c-0.8,0.4-1.3,1.2-1.3,2.1C97.7,84.2,98.2,85,99,85.4z"/>
	</g>
</g>
</svg>
