<?xml version="1.0" encoding="utf-8"?>
<!-- Generator: Adobe Illustrator 21.0.2, SVG Export Plug-In . SVG Version: 6.00 Build 0)  -->
<svg version="1.1" id="Capa_1" xmlns="http://www.w3.org/2000/svg" xmlns:xlink="http://www.w3.org/1999/xlink" x="0px" y="0px"
	 viewBox="0 0 100 100" style="enable-background:new 0 0 100 100;" xml:space="preserve">
<style type="text/css">
	.st0{fill:#FFFFFF;}
</style>
<g>
	<g>
		<path class="st0" d="M49.8,34.1c-7.1,0-12.9,5.8-12.9,12.9s5.8,12.9,12.9,12.9S62.7,54,62.7,46.9S56.9,34.1,49.8,34.1z M49.8,56.6
			c-5.3,0-9.6-4.3-9.6-9.6s4.3-9.6,9.6-9.6s9.6,4.3,9.6,9.6S55.2,56.6,49.8,56.6z"/>
	</g>
</g>
<g>
	<g>
		<path class="st0" d="M88.4,71.1V59.8H70l-0.8-1.5c0.6-1.1,1.1-2.2,1.6-3.3h6.3c9.8,0,17.7-7.9,17.7-17.7c0-8.7-6.1-15.9-14.5-17.4
			C79.7,9,70.6,0.3,59.5,0.3c-7.1,0-13.7,3.6-17.5,9.5c-2.1-0.9-4.3-1.4-6.6-1.4c-8.3,0-15.2,6.4-16,14.5c-8.1,0.8-14.5,7.7-14.5,16
			C4.8,47.8,12,55,20.9,55h7.9c0.4,1.1,1,2.3,1.6,3.3l-0.8,1.5H14.5v14.5H0V100h32.2V74.3H17.7V63h11.9l5.2,5.2l3.7-1.9
			c1.8,1,3.7,1.8,5.7,2.4l1.3,4h8.7l1.3-4c2-0.5,3.9-1.3,5.7-2.4l3.7,1.9l5.2-5.2h15.1v8H74V100h25.7V71.1H88.4z M3.2,79.8l8.8,8.8
			l-8.8,6.6V79.8z M6.4,96.8l7.9-5.9l1.8,1.8l1.8-1.8l7.9,5.9H6.4z M28.9,95.2l-8.8-6.6l8.8-8.8V95.2z M26.7,77.5L16.1,88.1
			L5.5,77.5H26.7z M20.9,51.8C13.8,51.8,8,46,8,38.9S13.8,26,20.9,26h1.6v-1.6c0-7.1,5.8-12.9,12.9-12.9c2.2,0,4.5,0.6,6.4,1.7
			l1.4,0.8l0.8-1.4C47.1,7,53,3.5,59.5,3.5c9.8,0,17.7,7.9,17.7,17.6l0,1.6l1.4,0.1c7.4,0.7,13,6.9,13,14.4c0,8-6.5,14.5-14.5,14.5
			h-3l1.3-0.4v-8.7l-4-1.3c-0.5-2-1.3-3.9-2.4-5.7l1.9-3.7l-6.2-6.2l-3.7,1.9c-1.8-1-3.7-1.8-5.7-2.4l-1.3-4h-8.7l-1.3,4
			c-2,0.5-3.9,1.3-5.7,2.4l-3.7-1.9l-6.2,6.2l1.9,3.7c-1,1.8-1.8,3.7-2.4,5.7l-4,1.3v8.7l1.3,0.5H20.9z M68.7,51.1
			c-0.5,2.2-1.4,4.4-2.6,6.3l-0.5,0.8l1.6,3.3l-2.9,2.9L61,62.7l-0.8,0.5c-1.9,1.3-4.1,2.1-6.3,2.6L53.1,66l-1.2,3.5h-4.1L46.6,66
			l-0.9-0.2c-2.2-0.5-4.4-1.4-6.3-2.6l-0.8-0.5l-3.3,1.6l-2.9-2.9l1.6-3.3l-0.5-0.8c-1.3-1.9-2.1-4.1-2.6-6.3l-0.2-0.9L27.3,49v-4.1
			l3.5-1.2l0.2-0.9c0.5-2.2,1.4-4.4,2.6-6.3l0.5-0.8l-1.6-3.3l2.9-2.9l3.3,1.6l0.8-0.5c1.9-1.3,4.1-2.1,6.3-2.6l0.9-0.2l1.2-3.5h4.1
			l1.2,3.5l0.9,0.2c2.2,0.5,4.4,1.4,6.3,2.6l0.8,0.5l3.3-1.6l2.9,2.9l-1.6,3.3l0.5,0.8c1.3,1.9,2.1,4.1,2.6,6.3l0.2,0.9l3.5,1.2V49
			l-3.5,1.2L68.7,51.1z M96.5,96.8H77.2V74.3h19.3V96.8z"/>
	</g>
</g>
<g>
	<g>
		<rect x="80.4" y="77.5" class="st0" width="12.9" height="3.2"/>
	</g>
</g>
<g>
	<g>
		<rect x="80.4" y="83.9" class="st0" width="12.9" height="3.2"/>
	</g>
</g>
<g>
	<g>
		<rect x="90" y="90.4" class="st0" width="3.2" height="3.2"/>
	</g>
</g>
<g>
	<g>
		<rect x="80.4" y="90.4" class="st0" width="6.4" height="3.2"/>
	</g>
</g>
<g>
	<g>
		<path class="st0" d="M59.5,6.8V10c5.7,0,10.5,4.2,11.2,9.8l3.2-0.4C72.9,12.2,66.8,6.8,59.5,6.8z"/>
	</g>
</g>
<g>
	<g>
		<path class="st0" d="M14.5,38.9h-3.2c0,5.3,4.3,9.6,9.6,9.6v-3.2C17.4,45.3,14.5,42.5,14.5,38.9z"/>
	</g>
</g>
</svg>
