<?xml version="1.0" encoding="utf-8"?>
<!-- Generator: Adobe Illustrator 21.0.2, SVG Export Plug-In . SVG Version: 6.00 Build 0)  -->
<svg version="1.1" id="Capa_1" xmlns="http://www.w3.org/2000/svg" xmlns:xlink="http://www.w3.org/1999/xlink" x="0px" y="0px"
	 viewBox="0 0 99 99" style="enable-background:new 0 0 99 99;" xml:space="preserve">
<style type="text/css">
	.st0{fill:#FFFFFF;}
</style>
<g>
	<path class="st0" d="M17.3,10.1c-4.1,0-7.4,3.3-7.4,7.4s3.3,7.4,7.4,7.4s7.4-3.3,7.4-7.4S21.4,10.1,17.3,10.1z M17.3,21.7
		c-2.3,0-4.1-1.8-4.1-4.1s1.9-4.1,4.1-4.1s4.1,1.8,4.1,4.1S19.6,21.7,17.3,21.7z"/>
	<circle class="st0" cx="82.5" cy="15.1" r="1.6"/>
	<circle class="st0" cx="75.9" cy="15.1" r="1.6"/>
	<circle class="st0" cx="85.8" cy="20" r="1.6"/>
	<circle class="st0" cx="79.2" cy="20" r="1.6"/>
	<circle class="st0" cx="69.3" cy="15.1" r="1.6"/>
	<circle class="st0" cx="72.6" cy="20" r="1.6"/>
	<circle class="st0" cx="62.7" cy="15.1" r="1.6"/>
	<circle class="st0" cx="66" cy="20" r="1.6"/>
	<circle class="st0" cx="56.1" cy="15.1" r="1.6"/>
	<circle class="st0" cx="59.4" cy="20" r="1.6"/>
	<path class="st0" d="M17.3,41.5c-4.1,0-7.4,3.3-7.4,7.4s3.3,7.4,7.4,7.4s7.4-3.3,7.4-7.4S21.4,41.5,17.3,41.5z M17.3,53
		c-2.3,0-4.1-1.8-4.1-4.1c0-2.3,1.9-4.1,4.1-4.1s4.1,1.8,4.1,4.1C21.5,51.2,19.6,53,17.3,53z"/>
	<path class="st0" d="M17.3,72.8c-4.1,0-7.4,3.3-7.4,7.4c0,4.1,3.3,7.4,7.4,7.4s7.4-3.3,7.4-7.4C24.8,76.1,21.4,72.8,17.3,72.8z
		 M17.3,84.4c-2.3,0-4.1-1.8-4.1-4.1s1.9-4.1,4.1-4.1s4.1,1.8,4.1,4.1S19.6,84.4,17.3,84.4z"/>
	<path class="st0" d="M99,27.2V7.8c0-4.2-3.4-7.6-7.6-7.6H7.6C3.4,0.2,0,3.6,0,7.8v19.4c0,2.4,1.2,4.6,2.9,6c-1.8,1.4-2.9,3.5-2.9,6
		v19.4c0,2.4,1.2,4.6,2.9,6c-1.8,1.4-2.9,3.5-2.9,6v19.4c0,4.2,3.4,7.6,7.6,7.6h46c4.4,0.8,9.3,1.2,14.1,1.2
		C82,98.8,97,95.1,98.8,88c0.1-0.2,0.2-0.5,0.2-0.7V72.4v-0.6v-0.6V57.5v-0.6v-0.6V42.1v-0.6c0-0.2-0.1-0.5-0.2-0.7
		c-0.6-2.4-2.7-4.5-5.9-6.1C96.4,34,99,30.9,99,27.2z M3.3,58.6V39.2c0-2.4,1.9-4.3,4.3-4.3H42c-3,1.6-5,3.6-5.6,5.9
		c-0.1,0.2-0.2,0.4-0.2,0.7v0.6v14.2v0.6v0.6v5.4H7.6C5.2,62.9,3.3,61,3.3,58.6z M40.6,48.5c0.1,0,0.2,0.1,0.2,0.1
		c0.3,0.2,0.6,0.4,0.9,0.5c0.1,0,0.2,0.1,0.3,0.1c0.4,0.2,0.8,0.4,1.2,0.6c0.1,0,0.1,0.1,0.2,0.1c0.4,0.2,0.7,0.3,1.1,0.5
		c0.1,0,0.2,0.1,0.3,0.1c0.5,0.2,0.9,0.4,1.4,0.5c0,0,0.1,0,0.1,0c0.5,0.2,0.9,0.3,1.4,0.5c0.1,0,0.3,0.1,0.4,0.1
		c0.5,0.1,1,0.3,1.5,0.4c0,0,0.1,0,0.1,0c0.5,0.1,1.1,0.3,1.6,0.4c0.1,0,0.3,0.1,0.4,0.1c0.5,0.1,0.9,0.2,1.4,0.3
		c0.1,0,0.2,0,0.3,0.1c0.6,0.1,1.1,0.2,1.7,0.3c0.1,0,0.3,0,0.4,0.1c0.5,0.1,1,0.1,1.5,0.2c0.1,0,0.3,0,0.4,0.1
		c0.6,0.1,1.2,0.1,1.8,0.2c0.1,0,0.2,0,0.4,0c0.5,0,1,0.1,1.5,0.1c0.2,0,0.3,0,0.5,0c0.6,0,1.2,0.1,1.8,0.1c0.1,0,0.2,0,0.3,0
		c0.5,0,1.1,0,1.6,0.1c0.2,0,0.3,0,0.5,0c0.6,0,1.2,0,1.8,0c0.6,0,1.2,0,1.8,0c0.2,0,0.3,0,0.5,0c0.5,0,1.1,0,1.6-0.1
		c0.1,0,0.2,0,0.3,0c0.6,0,1.2-0.1,1.8-0.1c0.2,0,0.3,0,0.5,0c0.5,0,1-0.1,1.5-0.1c0.1,0,0.2,0,0.4,0c0.6-0.1,1.2-0.1,1.8-0.2
		c0.1,0,0.3,0,0.4-0.1c0.5-0.1,1-0.1,1.5-0.2c0.1,0,0.3,0,0.4-0.1c0.6-0.1,1.2-0.2,1.7-0.3c0.1,0,0.2,0,0.3-0.1
		c0.5-0.1,1-0.2,1.4-0.3c0.1,0,0.3-0.1,0.4-0.1c0.5-0.1,1.1-0.3,1.6-0.4c0,0,0.1,0,0.1,0c0.5-0.1,1-0.3,1.5-0.4
		c0.1,0,0.3-0.1,0.4-0.1c0.5-0.1,1-0.3,1.4-0.5c0,0,0.1,0,0.1,0c0.5-0.2,0.9-0.3,1.4-0.5c0.1,0,0.2-0.1,0.3-0.1
		c0.4-0.2,0.8-0.3,1.1-0.5c0.1,0,0.1-0.1,0.2-0.1c0.4-0.2,0.8-0.4,1.2-0.6c0.1,0,0.2-0.1,0.3-0.1c0.3-0.2,0.6-0.4,0.9-0.5
		c0.1,0,0.2-0.1,0.2-0.1c0.3-0.2,0.7-0.4,1-0.7c0,0,0,0,0.1,0V56c0,0.2-0.1,0.4,0,0.6c0,0.1,0,0.2,0,0.4c0,0.2-0.1,0.4-0.1,0.5
		c0,0.1-0.1,0.3-0.1,0.4c-0.1,0.1-0.1,0.2-0.2,0.4c-0.1,0.1-0.1,0.2-0.2,0.4c-0.1,0.2-0.3,0.3-0.4,0.5c-0.1,0.1-0.1,0.1-0.2,0.2
		c-3.5,3.4-13.8,6.4-26.8,6.4c-13,0-23.3-3-26.8-6.4c-0.1-0.1-0.1-0.1-0.2-0.2c-0.2-0.2-0.3-0.3-0.4-0.5c-0.1-0.1-0.2-0.3-0.3-0.4
		c-0.1-0.1-0.1-0.2-0.2-0.4c-0.1-0.2-0.1-0.3-0.1-0.4c0-0.2-0.1-0.4-0.1-0.5c0-0.1,0-0.2,0-0.3c0-0.2,0-0.4,0-0.6v-8.2
		c0,0,0,0,0.1,0C40,48,40.3,48.3,40.6,48.5z M95.5,72.7c-0.1,0.1-0.1,0.2-0.2,0.4c-0.1,0.1-0.1,0.2-0.2,0.4
		c-0.1,0.2-0.3,0.3-0.4,0.5c-0.1,0.1-0.1,0.1-0.2,0.2c-3.5,3.4-13.8,6.4-26.8,6.4c-13,0-23.3-3-26.8-6.4c-0.1-0.1-0.1-0.1-0.2-0.2
		c-0.2-0.2-0.3-0.3-0.4-0.5c-0.1-0.1-0.2-0.3-0.3-0.4c-0.1-0.1-0.1-0.2-0.2-0.4c-0.1-0.2-0.1-0.3-0.1-0.4c0-0.2-0.1-0.3-0.1-0.5
		v-0.2c0-0.1,0-0.1,0-0.2c0-0.1,0-0.3,0-0.4l0-8.1v-0.3c0.1,0.1,0.1,0.1,0.2,0.1c0.2,0.2,0.4,0.3,0.6,0.5c0.2,0.1,0.4,0.2,0.6,0.4
		c0.3,0.2,0.6,0.4,0.9,0.5c0,0,0,0,0,0c3.4,1.9,8.2,3.2,13.4,4.1c0,0,0.1,0,0.1,0c1.7,0.3,3.4,0.5,5.2,0.6c0.4,0,0.7,0.1,1.1,0.1
		c0.4,0,0.7,0,1.1,0.1c0.5,0,1,0.1,1.5,0.1c0.3,0,0.6,0,0.9,0c0.8,0,1.6,0,2.4,0c0.8,0,1.6,0,2.4,0c0.3,0,0.6,0,0.9,0
		c0.5,0,1,0,1.5-0.1c0.4,0,0.7,0,1.1-0.1s0.7-0.1,1.1-0.1c1.8-0.2,3.5-0.4,5.2-0.6c0,0,0.1,0,0.1,0c5.7-0.9,10.8-2.4,14.3-4.6
		c0.2-0.1,0.4-0.2,0.6-0.4c0.2-0.1,0.4-0.3,0.6-0.5c0.1-0.1,0.2-0.1,0.2-0.2v8.2c0,0.2-0.1,0.4,0,0.6c0,0.1,0,0.2,0,0.4
		c0,0.2-0.1,0.4-0.1,0.5C95.6,72.5,95.5,72.6,95.5,72.7z M7.6,94.3c-2.4,0-4.3-1.9-4.3-4.3V70.5c0-2.4,1.9-4.3,4.3-4.3h28.7v4.9v0.6
		v0.6v14.8v1.7h0.5c0,0.1,0.1,0.1,0.1,0.2c0.1,0.1,0.1,0.2,0.2,0.4c0.1,0.2,0.3,0.5,0.5,0.7c0.2,0.2,0.4,0.5,0.6,0.7
		c0.1,0.1,0.2,0.2,0.3,0.3c0.6,0.7,1.4,1.3,2.3,1.8c0,0,0.1,0,0.1,0.1c0.6,0.4,1.3,0.8,2.1,1.2L7.6,94.3L7.6,94.3z M95.7,86.8
		c0,0.1,0,0.1,0,0.2c-0.7,4.1-12.1,8.5-28,8.5c-5.1,0-9.7-0.5-13.7-1.2l0,0c-8.2-1.6-12.7-4.2-14-6.4c0,0,0,0,0,0
		c-0.1-0.1-0.1-0.2-0.1-0.3c-0.1-0.2-0.2-0.4-0.2-0.6l0-9.5c0.1,0,0.1,0.1,0.2,0.1c0.2,0.2,0.4,0.3,0.6,0.5c0.2,0.1,0.4,0.2,0.6,0.4
		c0.3,0.2,0.6,0.4,0.9,0.5c0,0,0,0,0,0c3.4,1.9,8.2,3.2,13.4,4.1c0,0,0.1,0,0.1,0c1.7,0.3,3.4,0.5,5.2,0.6c0.4,0,0.7,0.1,1.1,0.1
		c0.4,0,0.7,0,1.1,0.1c0.5,0,1,0.1,1.5,0.1c0.3,0,0.6,0,0.9,0c0.8,0,1.6,0,2.4,0c0.8,0,1.6,0,2.4,0c0.3,0,0.6,0,0.9,0
		c0.5,0,1,0,1.5-0.1c0.4,0,0.7,0,1.1-0.1s0.7-0.1,1.1-0.1c1.8-0.2,3.5-0.4,5.2-0.6c0,0,0.1,0,0.1,0c5.7-0.9,10.8-2.4,14.3-4.6
		c0.2-0.1,0.4-0.2,0.6-0.4c0.2-0.1,0.4-0.3,0.6-0.5c0.1-0.1,0.2-0.1,0.2-0.2L95.7,86.8L95.7,86.8z M95.7,42.1c0,4.2-12,8.9-28,8.9
		c-16.1,0-28.1-4.7-28.1-8.9c0-0.2,0.1-0.4,0.1-0.6c0.1-0.2,0.2-0.4,0.3-0.7c0,0,0,0,0,0c0.5-0.9,1.7-1.9,3.4-2.9
		c0.1,0,0.1-0.1,0.2-0.1c0.3-0.2,0.6-0.3,0.9-0.5c0.4-0.2,0.8-0.4,1.2-0.5c0.1,0,0.2-0.1,0.2-0.1c1.9-0.8,4.2-1.4,6.8-2
		c0.8-0.2,1.6-0.3,2.5-0.5c0.2,0,0.4-0.1,0.7-0.1c7.4-1.1,16-1.1,23.4,0c0.2,0,0.5,0.1,0.7,0.1c0.8,0.1,1.7,0.3,2.5,0.5
		C90.5,36.4,95.7,39.3,95.7,42.1z M95.7,27.2c0,2.4-1.9,4.3-4.3,4.3h-7.6c-0.1,0-0.2,0-0.3-0.1c-1.1-0.2-2.2-0.4-3.3-0.6
		c-0.1,0-0.2,0-0.3-0.1c-3.9-0.6-8.1-0.9-12.1-0.9s-8.2,0.3-12.1,0.9c-0.1,0-0.2,0-0.3,0.1c-1.1,0.2-2.2,0.4-3.3,0.6
		c-0.1,0-0.2,0-0.3,0.1H7.6c-2.4,0-4.3-1.9-4.3-4.3V7.8c0-2.4,1.9-4.3,4.3-4.3h83.8c2.4,0,4.3,1.9,4.3,4.3V27.2z"/>
</g>
</svg>
