<?xml version="1.0" encoding="utf-8"?>
<!-- Generator: Adobe Illustrator 21.0.2, SVG Export Plug-In . SVG Version: 6.00 Build 0)  -->
<svg version="1.1" id="Layer_1" xmlns="http://www.w3.org/2000/svg" xmlns:xlink="http://www.w3.org/1999/xlink" x="0px" y="0px"
	 viewBox="0 0 102 90" style="enable-background:new 0 0 102 90;" xml:space="preserve">
<style type="text/css">
	.st0{fill:#FFFFFF;}
</style>
<g>
	<g>
		<path class="st0" d="M89.6,21.4V5c0-1.8-0.9-3.4-2.5-4.3c-1.6-0.9-3.4-0.9-5,0C66.9,9.1,50.4,14,33.1,15.3
			c-0.1,0-15.8,0.1-15.8,0.1c-3.9,0-7.2,3-7.6,6.8H6.4c-3.5,0-6.4,2.9-6.4,6.4v14C0,46.1,2.9,49,6.4,49h3.2c0.3,2.7,2.1,5.1,4.5,6.1
			l11.5,31.6c0.7,2,2.6,3.3,4.7,3.3h11.5c1.6,0,3.2-0.8,4.1-2.1c0.9-1.3,1.2-3,0.6-4.6l-9.8-27.1c16,1.7,31.3,6.5,45.4,14.4
			c0.8,0.4,1.6,0.7,2.5,0.7c0.9,0,1.8-0.2,2.6-0.7c1.6-0.9,2.5-2.5,2.5-4.3V49.8c7-0.9,12.4-6.9,12.4-14.2
			C102,28.3,96.6,22.3,89.6,21.4z M9.6,44.1H6.4c-0.8,0-1.5-0.7-1.5-1.5v-14c0-0.8,0.7-1.5,1.5-1.5h3.2V44.1z M16.1,50.6
			c-1-0.4-1.6-1.4-1.6-2.5v-25h0c0-1.5,1.2-2.8,2.8-2.8h13.4v30.5c0,0-13.5,0-13.6,0C16.6,50.8,16.5,50.8,16.1,50.6z M41.9,85
			C41.9,85,41.9,85,41.9,85C41.8,85.1,41.8,85.1,41.9,85l-11.6,0.1c0,0-0.1,0-0.1,0L19.6,55.8h11.6L41.9,85z M84.6,66.2
			C84.6,66.2,84.6,66.2,84.6,66.2c-0.1,0.1-0.2,0.1-0.2,0.1c-15.1-8.5-31.6-13.6-48.8-15.1V20.1c17.3-1.6,33.7-6.7,48.8-15.1
			c0,0,0.1,0,0.1,0c0.1,0,0.1,0.1,0.1,0.1V66.2z M89.6,44.8V26.4c4.3,0.9,7.5,4.6,7.5,9.2C97.1,40.1,93.8,43.9,89.6,44.8z"/>
	</g>
</g>
</svg>
