<?xml version="1.0" encoding="utf-8"?>
<!-- Generator: Adobe Illustrator 21.0.2, SVG Export Plug-In . SVG Version: 6.00 Build 0)  -->
<svg version="1.1" id="Capa_1" xmlns="http://www.w3.org/2000/svg" xmlns:xlink="http://www.w3.org/1999/xlink" x="0px" y="0px"
	 viewBox="0 0 168 155" style="enable-background:new 0 0 168 155;" xml:space="preserve">
<style type="text/css">
	.st0{fill:#212121;}
</style>
<g>
	<g>
		<path class="st0" d="M74.9,44.1c-0.6-0.6-1.4-0.9-2.3-0.9c-0.9,0-1.7,0.3-2.3,0.9c-0.6,0.6-1,1.4-1,2.3c0,0.9,0.3,1.7,1,2.3
			c0.6,0.6,1.4,0.9,2.3,0.9c0.9,0,1.7-0.3,2.3-0.9c0.6-0.6,1-1.4,1-2.3C75.8,45.6,75.5,44.7,74.9,44.1z"/>
	</g>
</g>
<g>
	<g>
		<path class="st0" d="M36.4,71.8c-6.8,0-12.4,5.5-12.4,12.4c0,1.8,1.5,3.3,3.3,3.3s3.3-1.5,3.3-3.3c0-3.2,2.6-5.9,5.9-5.9
			c3.2,0,5.9,2.6,5.9,5.9c0,3.2-2.6,5.9-5.9,5.9c-1.8,0-3.3,1.5-3.3,3.3c0,1.8,1.5,3.3,3.3,3.3c6.8,0,12.4-5.5,12.4-12.4
			C48.7,77.3,43.2,71.8,36.4,71.8z"/>
	</g>
</g>
<g>
	<g>
		<path class="st0" d="M84.8,10.3c-0.6-0.6-1.4-1-2.3-1s-1.7,0.3-2.3,1c-0.6,0.6-1,1.4-1,2.3c0,0.9,0.3,1.7,1,2.3
			c0.6,0.6,1.4,1,2.3,1c0.9,0,1.7-0.3,2.3-1c0.6-0.6,1-1.4,1-2.3C85.7,11.7,85.4,10.9,84.8,10.3z"/>
	</g>
</g>
<g>
	<g>
		<path class="st0" d="M140.4,10.3c-0.6-0.6-1.4-1-2.3-1c-0.9,0-1.7,0.3-2.3,1c-0.6,0.6-1,1.4-1,2.3s0.3,1.7,1,2.3
			c0.6,0.6,1.4,1,2.3,1s1.7-0.3,2.3-1c0.6-0.6,1-1.4,1-2.3S141,10.9,140.4,10.3z"/>
	</g>
</g>
<g>
	<g>
		<path class="st0" d="M164.7,148.5H65.2v-14.3c0-1.8-1.5-3.3-3.3-3.3h-5.1v-29.8c3.9-4.6,6.2-10.6,6.2-17c0-3.8-0.8-7.5-2.3-10.8
			l8.8-15.3c0.9-1.6,0.4-3.5-1.2-4.4c-1.6-0.9-3.5-0.4-4.4,1.2l-7.1,12.2c-4-4.8-9.7-8.2-16.2-9.3L72,19.1c2,3.2,5.4,5.4,9.3,5.8
			l-5.7,9.9c-0.9,1.6-0.4,3.5,1.2,4.4c0.5,0.3,1.1,0.4,1.6,0.4c1.1,0,2.2-0.6,2.8-1.6l8.4-14.4h36.7v7.5l-17.2,17.2
			c-1,1-1.2,2.6-0.6,3.8l6.8,12.5h-0.2c-4.2,0-7.6,3.4-7.6,7.6v12.9c0,1.9,1,3.6,2.6,4.6c1.6,1,3.5,1.1,5.2,0.2
			c0.8-0.4,1.6-0.6,2.4-0.6h0.4c3,0,5.5,2.5,5.5,5.5c0,3-2.5,5.5-5.5,5.5h-0.4c-0.9,0-1.7-0.2-2.4-0.6c-1.7-0.8-3.6-0.7-5.2,0.2
			c-1.6,1-2.6,2.7-2.6,4.6v12.9c0,4.2,3.4,7.6,7.6,7.6h11.4c-0.5,1.4-0.8,2.8-0.8,4.3v0.4c0,6.6,5.4,12,12,12c6.6,0,12-5.4,12-12
			v-0.4c0-1.5-0.3-2.9-0.8-4.3h11.4c4.2,0,7.6-3.4,7.6-7.6V72.3c0-4.1-3.2-7.4-7.2-7.6l6.8-12.5c0.7-1.3,0.5-2.8-0.6-3.8l-17.2-17.2
			V16.2c0.4-1.2,0.6-2.4,0.6-3.7c0-6.9-5.5-12.5-12.4-12.5c-2.1,0-4.1,0.5-5.8,1.5H88c-1.7-0.8-3.5-1.3-5.5-1.3
			c-6.2,0-11.4,4.7-12.2,10.7L32.4,57.7c-12.8,1.9-22.7,13-22.7,26.4c0,6.4,2.2,12.2,6,16.8l-7.1,30H4.8c-1.8,0-3.3,1.5-3.3,3.3
			v17.6c0,1.8,1.5,3.3,3.3,3.3H62h102.8c1.8,0,3.3-1.5,3.3-3.3S166.5,148.5,164.7,148.5z M161.5,72.3v45.2h0c0,0.6-0.5,1.1-1.1,1.1
			H155v-14.1c0-1.8-1.5-3.3-3.3-3.3s-3.3,1.5-3.3,3.3v14.1h-1.3c-1.9,0-3.7,1-4.7,2.7c-1,1.7-1,3.7,0,5.4c0.5,0.8,0.7,1.8,0.7,2.7
			v0.4c0,3-2.5,5.5-5.5,5.5c-3,0-5.5-2.5-5.5-5.5v-0.4c0-1,0.2-1.9,0.7-2.7c1-1.7,1-3.7,0-5.4c-1-1.7-2.8-2.7-4.7-2.7h-13.2
			c-0.6,0-1.1-0.5-1.1-1.1v-11.2c1.2,0.4,2.4,0.6,3.7,0.6h0.4c6.6,0,12-5.4,12-12c0-6.6-5.4-12-12-12h-0.4c-1.3,0-2.5,0.2-3.7,0.6
			V72.3c0-0.6,0.5-1.1,1.1-1.1h13.2c1.9,0,3.7-1,4.7-2.7c1-1.7,1-3.7,0-5.4c-0.5-0.8-0.7-1.8-0.7-2.7V60c0-3,2.5-5.5,5.5-5.5
			s5.5,2.5,5.5,5.5v0.4c0,1-0.2,1.9-0.7,2.7c-1,1.7-1,3.7,0,5.4c1,1.7,2.8,2.7,4.7,2.7h13.2C161,71.1,161.5,71.6,161.5,72.3z
			 M138.1,6.5c3.2,0,5.9,2.8,5.9,6c0,3.2-2.6,5.9-5.9,5.9s-5.9-2.6-5.9-5.9C132.2,9.3,134.9,6.5,138.1,6.5z M143.4,23.7v5.5h-10.6
			v-5.5h0c1.6,0.8,3.4,1.2,5.3,1.2S141.8,24.5,143.4,23.7z M145.3,35.7l15.5,15.5l-7.2,13.3c0,0,0,0.1-0.1,0.1h-4.5
			c0.5-1.4,0.8-2.8,0.8-4.3V60c0-6.6-5.4-12-12-12c-6.6,0-12,5.4-12,12v0.4c0,1.5,0.3,2.9,0.8,4.3h-3.9c0,0,0-0.1-0.1-0.1l-7.2-13.3
			l15.5-15.5C130.9,35.7,145.3,35.7,145.3,35.7z M94,8h32.6c-0.5,1.4-0.8,2.9-0.8,4.6c0,1.3,0.2,2.5,0.6,3.7v0.9H94
			c0.6-1.4,0.9-2.9,0.9-4.6S94.5,9.4,94,8z M82.5,6.7c3.2,0,5.9,2.6,5.9,5.9s-2.6,5.9-5.9,5.9s-5.9-2.6-5.9-5.9S79.2,6.7,82.5,6.7z
			 M36.4,63.9c7.5,0,14.1,4.2,17.6,10.3c0.1,0.4,0.3,0.7,0.6,1.1c1.3,2.7,2,5.7,2,8.8c0,11.1-9,20.2-20.2,20.2s-20.2-9-20.2-20.2
			S25.3,63.9,36.4,63.9z M21.2,106c4.3,3,9.6,4.8,15.2,4.8c5.1,0,9.9-1.5,14-4v24.1H15.3L21.2,106z M58.7,148.5H8v-11.1h50.7V148.5z
			"/>
	</g>
</g>
<g>
	<g>
		<path class="st0" d="M154,89.3c-0.6-0.6-1.4-1-2.3-1s-1.7,0.3-2.3,1c-0.6,0.6-1,1.4-1,2.3c0,0.9,0.3,1.7,1,2.3
			c0.6,0.6,1.4,1,2.3,1s1.7-0.3,2.3-1c0.6-0.6,1-1.4,1-2.3C155,90.8,154.6,89.9,154,89.3z"/>
	</g>
</g>
</svg>
