<?xml version="1.0" encoding="utf-8"?>
<!-- Generator: Adobe Illustrator 21.0.2, SVG Export Plug-In . SVG Version: 6.00 Build 0)  -->
<svg version="1.1" id="Capa_1" xmlns="http://www.w3.org/2000/svg" xmlns:xlink="http://www.w3.org/1999/xlink" x="0px" y="0px"
	 viewBox="0 0 149 149" style="enable-background:new 0 0 149 149;" xml:space="preserve">
<style type="text/css">
	.st0{fill:#212121;}
</style>
<g>
	<g>
		<path class="st0" d="M42.6,1.6h-23c-1.6,0-2.9,1.3-2.9,2.9v23c0,1.6,1.3,2.9,2.9,2.9h23c1.6,0,2.9-1.3,2.9-2.9v-23
			C45.5,2.9,44.2,1.6,42.6,1.6z M39.7,24.6H22.4V7.3h17.3L39.7,24.6L39.7,24.6z"/>
	</g>
</g>
<g>
	<g>
		<path class="st0" d="M77.1,1.6h-23c-1.6,0-2.9,1.3-2.9,2.9v23c0,1.6,1.3,2.9,2.9,2.9h23c1.6,0,2.9-1.3,2.9-2.9v-23
			C80,2.9,78.7,1.6,77.1,1.6z M74.2,24.6H57V7.3h17.3V24.6z"/>
	</g>
</g>
<g>
	<g>
		<path class="st0" d="M111.6,1.6h-23c-1.6,0-2.9,1.3-2.9,2.9v23c0,1.6,1.3,2.9,2.9,2.9h23c1.6,0,2.9-1.3,2.9-2.9v-23
			C114.5,2.9,113.2,1.6,111.6,1.6z M108.7,24.6H91.5V7.3h17.3V24.6z"/>
	</g>
</g>
<g>
	<g>
		<path class="st0" d="M114.5,62V39c0-1.6-1.3-2.9-2.9-2.9h-23c-1.6,0-2.9,1.3-2.9,2.9v5.7c-12.7-6.2-28-5.7-40.3,1.6V39
			c0-1.6-1.3-2.9-2.9-2.9h-23c-1.6,0-2.9,1.3-2.9,2.9v23c0,1.6,1.3,2.9,2.9,2.9h9C21.2,80.6,24,100,37,113c1,1,2,1.9,3,2.7
			l-26.2,26.2c-0.8,0.8-1.8,1.2-2.8,1.2s-2.1-0.4-2.8-1.2c-1.6-1.6-1.6-4.1,0-5.7l11.6-11.6c1.1-1.1,1.1-2.9,0-4.1
			c-1.1-1.1-2.9-1.1-4.1,0L4,132.1c-3.8,3.8-3.8,10,0,13.8c1.8,1.8,4.3,2.9,6.9,2.9s5.1-1,6.9-2.9l26.8-26.8
			c2.1,1.3,4.3,2.4,6.5,3.3v8.6c0,1.6,1.3,2.9,2.9,2.9h23c1.6,0,2.9-1.3,2.9-2.9v-7.5c2-0.6,3.9-1.4,5.8-2.3v9.8
			c0,1.6,1.3,2.9,2.9,2.9h23c1.6,0,2.9-1.3,2.9-2.9v-23c0-1.6-1.3-2.9-2.9-2.9h-8.2c2-3.2,3.5-6.7,4.6-10.3c0.4-1.5-0.4-3.1-2-3.6
			c-1.5-0.4-3.1,0.4-3.6,2c-1.7,5.9-4.9,11.4-9.3,15.8c-14.4,14.4-37.7,14.4-52.1,0c-14.4-14.4-14.4-37.7,0-52.1
			c14.4-14.4,37.7-14.4,52.1,0c4.8,4.8,8.1,10.7,9.7,17.3c0.4,1.5,1.9,2.5,3.5,2.1c1.5-0.4,2.5-1.9,2.1-3.5
			c-0.7-2.7-1.6-5.4-2.8-7.9h6C113.2,64.8,114.5,63.6,114.5,62z M91.5,117.8c2-1.4,3.9-3,5.7-4.8c0.7-0.7,1.4-1.4,2-2.2h9.6v17.3
			H91.5L91.5,117.8L91.5,117.8z M57,124.3c3.3,0.8,6.7,1.2,10.1,1.2c2.4,0,4.8-0.2,7.1-0.6v3.3H57L57,124.3L57,124.3z M39.7,50.3
			c-0.9,0.8-1.8,1.6-2.7,2.5c-2,2-3.7,4.1-5.2,6.3h-9.4V41.8h17.3L39.7,50.3L39.7,50.3z M102.3,59.1c-1.5-2.2-3.2-4.3-5.2-6.3
			c-1.8-1.8-3.7-3.4-5.7-4.8v-6.2h17.3v17.3L102.3,59.1L102.3,59.1z"/>
	</g>
</g>
<g>
	<g>
		<path class="st0" d="M146.1,36.1h-23c-1.6,0-2.9,1.3-2.9,2.9v23c0,1.6,1.3,2.9,2.9,2.9h23c1.6,0,2.9-1.3,2.9-2.9V39
			C149,37.4,147.7,36.1,146.1,36.1z M143.2,59.1H126V41.8h17.3V59.1z"/>
	</g>
</g>
<g>
	<g>
		<path class="st0" d="M146.1,70.6h-23c-1.6,0-2.9,1.3-2.9,2.9v23c0,1.6,1.3,2.9,2.9,2.9h23c1.6,0,2.9-1.3,2.9-2.9v-23
			C149,71.9,147.7,70.6,146.1,70.6z M143.2,93.6H126V76.4h17.3V93.6z"/>
	</g>
</g>
<g>
	<g>
		<path class="st0" d="M146.1,105.1h-23c-1.6,0-2.9,1.3-2.9,2.9v23c0,1.6,1.3,2.9,2.9,2.9h23c1.6,0,2.9-1.3,2.9-2.9v-23
			C149,106.4,147.7,105.1,146.1,105.1z M143.2,128.1H126v-17.3h17.3V128.1z"/>
	</g>
</g>
<g>
	<g>
		<path class="st0" d="M27.8,112.4c-0.5-0.5-1.3-0.8-2-0.8c-0.8,0-1.5,0.3-2,0.8c-0.5,0.5-0.8,1.3-0.8,2c0,0.8,0.3,1.5,0.8,2
			c0.5,0.5,1.3,0.8,2,0.8c0.8,0,1.5-0.3,2-0.8c0.5-0.5,0.8-1.3,0.8-2C28.6,113.7,28.3,113,27.8,112.4z"/>
	</g>
</g>
<g>
	<g>
		<path class="st0" d="M106.8,80c-1.6,0-2.9,1.3-2.9,2.9l0,0.2c0,1.6,1.3,2.9,2.9,2.9c0,0,0,0,0,0c1.6,0,2.9-1.3,2.9-2.9l0-0.3
			C109.6,81.3,108.4,80,106.8,80z"/>
	</g>
</g>
<g>
	<g>
		<path class="st0" d="M87.8,62.2c-11.4-11.4-30-11.4-41.5,0c-5.5,5.5-8.6,12.9-8.6,20.7s3.1,15.2,8.6,20.7s12.9,8.6,20.7,8.6
			s15.2-3.1,20.7-8.6c5.5-5.5,8.6-12.9,8.6-20.7S93.4,67.7,87.8,62.2z M45.5,92.5c-1.3-3-2-6.2-2-9.6c0-3.4,0.7-6.6,2-9.6V92.5z
			 M67.1,106.5c-3.3,0-6.6-0.7-9.5-2h19C73.6,105.8,70.4,106.5,67.1,106.5z M78.9,98.8H51.3V71.1h27.6V98.8z M81.8,65.4H51.3
			c4.5-4,10.1-6,15.8-6c5.9,0,11.8,2.2,16.3,6.6C82.9,65.6,82.4,65.4,81.8,65.4z M84.6,98.7V68.3c0-0.6-0.2-1.2-0.5-1.7
			c4.2,4.4,6.6,10.2,6.6,16.3C90.7,88.8,88.5,94.3,84.6,98.7z"/>
	</g>
</g>
</svg>
