<?xml version="1.0" encoding="utf-8"?>
<!-- Generator: Adobe Illustrator 21.0.2, SVG Export Plug-In . SVG Version: 6.00 Build 0)  -->
<svg version="1.1" id="Layer_1" xmlns="http://www.w3.org/2000/svg" xmlns:xlink="http://www.w3.org/1999/xlink" x="0px" y="0px"
	 viewBox="0 0 115 115" style="enable-background:new 0 0 115 115;" xml:space="preserve">
<style type="text/css">
	.st0{fill:#212121;}
</style>
<g>
	<g>
		<g>
			<path class="st0" d="M19.9,93.9c2.8-2,4.7-5.3,4.7-9c0-6.1-4.9-11-11-11s-11,4.9-11,11c0,3.7,1.9,7,4.7,9
				c-3.9,2.2-6.5,6.4-6.5,11.1v9.2h25.6v-9.2C26.4,100.3,23.7,96.2,19.9,93.9z M6.2,85c0-4,3.3-7.3,7.3-7.3s7.3,3.3,7.3,7.3
				s-3.3,7.3-7.3,7.3S6.2,89,6.2,85z M22.7,110.6H4.4v-5.5c0-5,4.1-9.2,9.2-9.2s9.2,4.1,9.2,9.2V110.6z"/>
			<path class="st0" d="M49.1,93.9c2.8-2,4.7-5.3,4.7-9c0-6.1-4.9-11-11-11s-11,4.9-11,11c0,3.7,1.9,7,4.7,9
				c-3.9,2.2-6.5,6.4-6.5,11.1v9.2h25.6v-9.2C55.7,100.3,53,96.2,49.1,93.9z M35.5,85c0-4,3.3-7.3,7.3-7.3s7.3,3.3,7.3,7.3
				s-3.3,7.3-7.3,7.3S35.5,89,35.5,85z M52,110.6H33.7v-5.5c0-5,4.1-9.2,9.2-9.2s9.2,4.1,9.2,9.2V110.6z"/>
			<path class="st0" d="M78.4,93.9c2.8-2,4.7-5.3,4.7-9c0-6.1-4.9-11-11-11s-11,4.9-11,11c0,3.7,1.9,7,4.7,9
				c-3.9,2.2-6.5,6.4-6.5,11.1v9.2H85v-9.2C85,100.3,82.3,96.2,78.4,93.9z M64.8,85c0-4,3.3-7.3,7.3-7.3c4,0,7.3,3.3,7.3,7.3
				s-3.3,7.3-7.3,7.3C68.1,92.3,64.8,89,64.8,85z M81.3,110.6H63v-5.5c0-5,4.1-9.2,9.2-9.2s9.2,4.1,9.2,9.2V110.6z"/>
			<path class="st0" d="M107.7,93.9c2.8-2,4.7-5.3,4.7-9c0-6.1-4.9-11-11-11s-11,4.9-11,11c0,3.7,1.9,7,4.7,9
				c-3.9,2.2-6.5,6.4-6.5,11.1v9.2h25.6v-9.2C114.3,100.3,111.6,96.2,107.7,93.9z M94.1,85c0-4,3.3-7.3,7.3-7.3s7.3,3.3,7.3,7.3
				s-3.3,7.3-7.3,7.3S94.1,89,94.1,85z M110.6,110.6H92.3v-5.5c0-5,4.1-9.2,9.2-9.2s9.2,4.1,9.2,9.2V110.6z"/>
			<path class="st0" d="M92.3,63c4,0,7.3,3.3,7.3,7.3h3.7c0-4.7-2.9-8.7-7.1-10.2c10.6-5,18-15.7,18-28.2c0-17.2-14-31.1-31.1-31.1
				H31.9c-17.2,0-31.1,14-31.1,31.1c0,12.5,7.4,23.2,18,28.2c-4.1,1.6-7.1,5.6-7.1,10.2h3.7c0-4,3.3-7.3,7.3-7.3H30v-0.1
				c0.6,0,1.2,0.1,1.8,0.1H41v7.3h3.7V63h25.6v7.3H74V63h9.2c0.6,0,1.2-0.1,1.8-0.1V63H92.3z M83.1,59.3H31.9
				C16.7,59.3,4.4,47,4.4,31.9S16.7,4.4,31.9,4.4h51.3c15.1,0,27.5,12.3,27.5,27.5S98.3,59.3,83.1,59.3z"/>
			<rect x="41" y="15.4" class="st0" width="33" height="3.7"/>
			<rect x="41" y="22.7" class="st0" width="33" height="3.7"/>
			<rect x="41" y="30" class="st0" width="33" height="3.7"/>
			<rect x="41" y="37.4" class="st0" width="33" height="3.7"/>
			<rect x="41" y="44.7" class="st0" width="25.6" height="3.7"/>
			<rect x="70.3" y="44.7" class="st0" width="3.7" height="3.7"/>
			<path class="st0" d="M105.1,22.7c0-3-2.5-5.5-5.5-5.5s-5.5,2.5-5.5,5.5c0,1.5,0.6,2.9,1.6,3.9L91,39.2c-0.2,0-0.4-0.1-0.5-0.1
				c-1.6,0-3,0.7-4,1.7l-5.2-1.1V8.1H33.7v21.3L30,28.6c0-0.1,0-0.2,0-0.3c0-3-2.5-5.5-5.5-5.5s-5.5,2.5-5.5,5.5
				c0,1,0.3,1.9,0.7,2.7l-3.5,4.7c-0.3,0-0.6-0.1-0.9-0.1c-3,0-5.5,2.5-5.5,5.5s2.5,5.5,5.5,5.5s5.5-2.5,5.5-5.5
				c0-1.4-0.5-2.7-1.4-3.6l3.1-4.1c0.6,0.2,1.3,0.4,2,0.4c1.6,0,3-0.7,4-1.7l5.2,1.1v22.6h47.6V43.5l3.7,0.8c0,0.1,0,0.2,0,0.3
				c0,3,2.5,5.5,5.5,5.5s5.5-2.5,5.5-5.5c0-1.5-0.6-2.9-1.6-3.9l4.7-12.6c0.2,0,0.4,0.1,0.5,0.1C102.6,28.2,105.1,25.7,105.1,22.7z
				 M15.4,42.9c-1,0-1.8-0.8-1.8-1.8s0.8-1.8,1.8-1.8s1.8,0.8,1.8,1.8S16.4,42.9,15.4,42.9z M24.5,30c-1,0-1.8-0.8-1.8-1.8
				c0-1,0.8-1.8,1.8-1.8c1,0,1.8,0.8,1.8,1.8C26.4,29.2,25.6,30,24.5,30z M77.6,52H37.4V11.7h40.3V52z M90.5,46.5
				c-1,0-1.8-0.8-1.8-1.8c0-1,0.8-1.8,1.8-1.8s1.8,0.8,1.8,1.8C92.3,45.7,91.5,46.5,90.5,46.5z M99.6,24.5c-1,0-1.8-0.8-1.8-1.8
				c0-1,0.8-1.8,1.8-1.8s1.8,0.8,1.8,1.8C101.4,23.7,100.6,24.5,99.6,24.5z"/>
		</g>
	</g>
</g>
</svg>
