<?xml version="1.0" encoding="utf-8"?>
<!-- Generator: Adobe Illustrator 21.0.2, SVG Export Plug-In . SVG Version: 6.00 Build 0)  -->
<svg version="1.1" id="Capa_1" xmlns="http://www.w3.org/2000/svg" xmlns:xlink="http://www.w3.org/1999/xlink" x="0px" y="0px"
	 viewBox="0 0 98 98" style="enable-background:new 0 0 98 98;" xml:space="preserve">
<style type="text/css">
	.st0{fill:#212121;}
</style>
<g>
	<g>
		<path class="st0" d="M51.4,46.6c-0.7-0.7-2-0.7-2.7,0c-0.7,0.7-0.7,2,0,2.7c0.7,0.7,2,0.7,2.7,0C52.2,48.5,52.2,47.3,51.4,46.6z"
			/>
	</g>
</g>
<g>
	<g>
		<path class="st0" d="M75.8,22.2c-3.7-3.7-9.8-3.7-13.5,0c-3.7,3.7-3.7,9.8,0,13.5c3.7,3.7,9.8,3.7,13.5,0
			C79.5,32,79.5,26,75.8,22.2z M73.1,33c-2.2,2.2-5.9,2.2-8.1,0c-2.2-2.2-2.2-5.9,0-8.1c2.2-2.2,5.9-2.2,8.1,0
			C75.3,27.2,75.3,30.8,73.1,33z"/>
	</g>
</g>
<g>
	<g>
		<path class="st0" d="M97.4,0.6C97.1,0.2,96.5,0,96,0c-0.4,0-10.7,0.4-23,4.8c-9.8,3.5-18,8.4-24.3,14.7c-1.4,1.4-2.8,2.9-4.1,4.5
			c-6.2-3.7-11.3-2.5-14.4-0.8c-7.3,3.9-11.8,14.5-11.8,22.1c0,0.8,0.5,1.5,1.2,1.8c0.2,0.1,0.5,0.1,0.7,0.1c0.5,0,1-0.2,1.4-0.6
			c3.8-3.8,8.6-3.6,10.1-3.4l0.7,0.7c-1.3,3.1-2.4,6.3-3.2,9.3c-0.3,1.1-0.2,2.3,0.2,3.3c-1.8,0.8-3.6,2.1-5.2,3.6
			c-4.9,4.9-5.9,16.9-6,17.4c0,0.6,0.2,1.1,0.6,1.5c0.4,0.4,0.8,0.6,1.4,0.6c0.1,0,0.1,0,0.2,0c0.5,0,12.5-1,17.4-6
			c1.5-1.5,2.8-3.3,3.6-5.2c1.1,0.4,2.3,0.5,3.3,0.2c3-0.8,6.2-1.8,9.3-3.2l0.7,0.7c0.2,1.5,0.4,6.3-3.4,10.1
			c-0.5,0.5-0.7,1.4-0.4,2.1c0.3,0.7,1,1.2,1.8,1.2c7.6,0,18.2-4.5,22.1-11.8c1.7-3.2,2.8-8.2-0.8-14.4c1.6-1.3,3.1-2.7,4.5-4.1
			C84.8,43,89.8,34.8,93.2,25C97.6,12.7,98,2.4,98,2C98,1.5,97.8,0.9,97.4,0.6z M22.7,41.1c1.2-5.8,4.6-12.1,9.3-14.6
			c3.1-1.7,6.6-1.5,10.2,0.5c-3.1,4.1-5.8,8.5-8,13.1c0,0-0.4-0.5-1-0.6C32.9,39.5,27.8,38.4,22.7,41.1z M35.2,70.9
			c-2.6,2.6-8.8,4-12.7,4.6c0.6-3.9,2-10.1,4.6-12.7c1.5-1.5,3.2-2.6,4.9-3.2l6.4,6.4C37.8,67.8,36.7,69.5,35.2,70.9z M43.9,65
			c-0.6,0.1-1.2-0.1-1.7-0.5c-2.5-2.5-3.4-3.4-3.7-3.7c-0.6-0.6-1.9-1.9-4.9-4.9c-0.5-0.5-0.7-1.1-0.5-1.7c0.6-2.4,1.4-4.8,2.4-7.3
			l15.8,15.8C48.7,63.6,46.3,64.4,43.9,65z M71.5,66c-2.5,4.7-8.8,8.1-14.6,9.3c1.8-3.5,2.2-7.8,1.6-10.5c-0.2-0.6-0.6-0.9-0.6-1
			c4.6-2.2,9-4.9,13.1-8C73,59.5,73.1,62.9,71.5,66z M75.8,46.6c-1.7,1.7-3.6,3.4-5.5,5c-4.7,3.8-9.8,6.9-15.3,9.5L37,43
			c2.5-5.5,5.7-10.6,9.5-15.3c1.6-1.9,3.2-3.8,5-5.5c5.7-5.7,13-10.2,21.8-13.4l16,16C86,33.6,81.5,40.9,75.8,46.6z M90.6,20.8
			L77.2,7.4C84.5,5.1,90.8,4.3,94,4C93.7,7.2,92.9,13.5,90.6,20.8z"/>
	</g>
</g>
<g>
	<g>
		<path class="st0" d="M46,79.1c-0.7-0.7-2-0.7-2.7,0l-5.4,5.4c-0.7,0.7-0.7,2,0,2.7c0.7,0.7,2,0.7,2.7,0l5.4-5.4
			C46.8,81,46.8,79.8,46,79.1z"/>
	</g>
</g>
<g>
	<g>
		<path class="st0" d="M18.9,52c-0.7-0.7-2-0.7-2.7,0l-5.4,5.4c-0.7,0.7-0.7,2,0,2.7c0.7,0.7,2,0.7,2.7,0l5.4-5.4
			C19.7,54,19.7,52.7,18.9,52z"/>
	</g>
</g>
<g>
	<g>
		<path class="st0" d="M32.5,81.8c-0.7-0.7-2-0.7-2.7,0l-13,13c-0.7,0.7-0.7,2,0,2.7c0.7,0.7,2,0.7,2.7,0l13-13
			C33.2,83.7,33.2,82.5,32.5,81.8z"/>
	</g>
</g>
<g>
	<g>
		<path class="st0" d="M17.2,81.8c-0.7-0.7-2-0.7-2.7,0l-13,13c-0.7,0.7-0.7,2,0,2.7c0.7,0.7,2,0.7,2.7,0l13-13
			C17.9,83.7,17.9,82.5,17.2,81.8z"/>
	</g>
</g>
<g>
	<g>
		<path class="st0" d="M16.2,65.5c-0.7-0.7-2-0.7-2.7,0l-13,13c-0.7,0.7-0.7,2,0,2.7c0.7,0.7,2,0.7,2.7,0l13-13
			C17,67.5,17,66.3,16.2,65.5z"/>
	</g>
</g>
<g>
	<g>
		<path class="st0" d="M59.5,38.5c-0.7-0.7-2-0.7-2.7,0l-2.7,2.7c-0.7,0.7-0.7,2,0,2.7c0.7,0.7,2,0.7,2.7,0l2.7-2.7
			C60.3,40.4,60.3,39.2,59.5,38.5z"/>
	</g>
</g>
</svg>
