<?xml version="1.0" encoding="utf-8"?>
<!-- Generator: Adobe Illustrator 21.0.2, SVG Export Plug-In . SVG Version: 6.00 Build 0)  -->
<svg version="1.1" id="Capa_1" xmlns="http://www.w3.org/2000/svg" xmlns:xlink="http://www.w3.org/1999/xlink" x="0px" y="0px"
	 viewBox="0 0 122 106" style="enable-background:new 0 0 122 106;" xml:space="preserve">
<style type="text/css">
	.st0{fill:#212121;}
</style>
<g>
	<g>
		<path class="st0" d="M115.9,53h-2V10.3c0-5.6-4.6-10.2-10.2-10.2H18.3c-5.6,0-10.2,4.6-10.2,10.2v30.5h-2c-3.4,0-6.1,2.7-6.1,6.1
			v52.9c0,3.4,2.7,6.1,6.1,6.1h77.3c1.1,0,2-0.9,2-2c0-5.6-4.6-10.2-10.2-10.2h-6.1V81.5h24.4v18.3c0,3.4,2.7,6.1,6.1,6.1h16.3
			c3.4,0,6.1-2.7,6.1-6.1V59.1C122,55.7,119.3,53,115.9,53z M44.7,99.8c0,1.1-0.9,2-2,2H6.1c-1.1,0-2-0.9-2-2v-2h40.7V99.8z
			 M44.7,93.7H4.1V46.9c0-1.1,0.9-2,2-2h36.6c1.1,0,2,0.9,2,2V93.7z M75.2,97.7c2.6,0,4.9,1.6,5.8,4.1H48.4c0.2-0.7,0.4-1.3,0.4-2
			v-2H75.2z M48.8,93.7V81.5h4.1v12.2H48.8z M56.9,93.7V81.5h8.1v12.2H56.9z M93.5,77.4H48.8V65.2h44.7V77.4z M93.5,59.1v2H48.8
			V46.9c0-1-0.2-1.9-0.7-2.8c0,0,0.1,0,0.1-0.1l20.1-20.1c0.8-0.8,0.8-2.1,0-2.9c-0.8-0.8-2-0.8-2.8,0L45.3,41.2
			c0,0.1-0.1,0.1-0.1,0.2c-0.8-0.4-1.6-0.6-2.5-0.6H12.2V10.3c0-3.4,2.7-6.1,6.1-6.1h85.4c3.4,0,6.1,2.7,6.1,6.1V53H99.6
			C96.3,53,93.5,55.7,93.5,59.1z M117.9,99.8c0,1.1-0.9,2-2,2H99.6c-1.1,0-2-0.9-2-2v-2h20.3V99.8z M117.9,93.7H97.6V59.1
			c0-1.1,0.9-2,2-2h16.3c1.1,0,2,0.9,2,2V93.7z"/>
	</g>
</g>
<g>
	<g>
		<path class="st0" d="M24.3,65.5c-0.8-0.8-2.1-0.8-2.9,0l-8.6,8.6c-0.8,0.8-0.8,2.1,0,2.9c0.8,0.8,2.1,0.8,2.9,0c0,0,0,0,0,0
			l8.6-8.6C24.7,67.8,23.9,66.6,24.3,65.5z"/>
	</g>
</g>
<g>
	<g>
		<path class="st0" d="M36.4,65.5c-0.8-0.8-2-0.8-2.8,0L25,74.2c-0.8,0.8-0.8,2.1,0,2.9c0.8,0.8,2.1,0.8,2.9,0c0,0,0,0,0,0l8.6-8.6
			C37.3,67.6,37.3,66.3,36.4,65.5z"/>
	</g>
</g>
<g>
	<g>
		<path class="st0" d="M80.7,21.1c-0.8-0.8-2-0.8-2.8,0L57.7,41.2c-0.8,0.8-0.8,2.1-0.1,2.9c0.8,0.8,2.1,0.8,2.9,0.1
			c0,0,0,0,0.1-0.1l20.1-20.1C81.5,23.1,81.5,21.8,80.7,21.1z"/>
	</g>
</g>
<g>
	<g>
		<path class="st0" d="M112,71.1c-0.8-0.8-2-0.8-2.8,0l-5.8,5.8c-0.8,0.8-0.8,2.1,0,2.9c0.8,0.8,2.1,0.8,2.9,0c0,0,0,0,0,0l5.8-5.8
			C112.9,73.1,112.8,71.8,112,71.1z"/>
	</g>
</g>
<g>
	<g>
		<path class="st0" d="M61,69.3L61,69.3c-1.1,0-2,0.9-2,2c0,1.1,0.9,2,2,2c1.1,0,2-0.9,2-2S62.2,69.3,61,69.3z"/>
	</g>
</g>
<g>
	<g>
		<path class="st0" d="M65.1,8.3h-8.1c-1.1,0-2,0.9-2,2s0.9,2,2,2h8.1c1.1,0,2-0.9,2-2S66.2,8.3,65.1,8.3z"/>
	</g>
</g>
</svg>
