<?xml version="1.0" encoding="utf-8"?>
<!-- Generator: Adobe Illustrator 21.0.2, SVG Export Plug-In . SVG Version: 6.00 Build 0)  -->
<svg version="1.1" id="Capa_1" xmlns="http://www.w3.org/2000/svg" xmlns:xlink="http://www.w3.org/1999/xlink" x="0px" y="0px"
	 viewBox="0 0 82 74" style="enable-background:new 0 0 82 74;" xml:space="preserve">
<style type="text/css">
	.st0{fill:#01BB17;}
</style>
<g>
	<g>
		<path class="st0" d="M29.2,57.2c-4.6,0-8.4,3.8-8.4,8.4s3.8,8.4,8.4,8.4s8.4-3.8,8.4-8.4S33.9,57.2,29.2,57.2z M29.2,70.6
			c-2.8,0-5-2.3-5-5c0-2.8,2.3-5,5-5c2.8,0,5,2.3,5,5C34.3,68.4,32,70.6,29.2,70.6z M81,10.7c-0.3-0.4-0.8-0.6-1.3-0.6H15.8
			l-1.7-8.7C13.9,0.6,13.2,0,12.4,0H2.3C1.4,0,0.6,0.8,0.6,1.7s0.8,1.7,1.7,1.7H11l8.2,41c1.1,5.5,6,9.5,11.5,9.5H73
			c0.9,0,1.7-0.8,1.7-1.7s-0.8-1.7-1.7-1.7H30.8c-4,0-7.5-2.8-8.2-6.8v-0.2L74,37.3c2.3-0.3,4.1-2,4.4-4.3l3-21
			C81.4,11.5,81.3,11,81,10.7z M75,32.5c-0.1,0.8-0.7,1.3-1.5,1.4l-51.7,6.3l-5.4-26.8h61.3L75,32.5z M62.9,57.2
			c-4.6,0-8.4,3.8-8.4,8.4s3.8,8.4,8.4,8.4s8.4-3.8,8.4-8.4S67.5,57.2,62.9,57.2z M62.9,70.6c-2.8,0-5-2.3-5-5c0-2.8,2.3-5,5-5
			c2.7,0,5,2.3,5,5C67.9,68.4,65.6,70.6,62.9,70.6z"/>
	</g>
</g>
</svg>
