<?xml version="1.0" encoding="utf-8"?>
<!-- Generator: Adobe Illustrator 21.0.2, SVG Export Plug-In . SVG Version: 6.00 Build 0)  -->
<svg version="1.1" id="Capa_1" xmlns="http://www.w3.org/2000/svg" xmlns:xlink="http://www.w3.org/1999/xlink" x="0px" y="0px"
	 viewBox="0 0 71 71" style="enable-background:new 0 0 71 71;" xml:space="preserve">
<style type="text/css">
	.st0{fill:#01BB17;}
</style>
<g>
	<g>
		<path class="st0" d="M27.3,23.2c-0.9-4.1-4.6-7.2-8.9-7.2s-8,3-8.9,7.2c-2.8,0.9-4.8,3.5-4.8,6.5c0,3.8,3.1,6.9,6.9,6.9h13.7
			c3.8,0,6.9-3.1,6.9-6.9C32.1,26.7,30,24.1,27.3,23.2z M25.2,34.4H11.5c-2.5,0-4.6-2.1-4.6-4.6c0-2.2,1.6-4.1,3.7-4.5l0.8-0.3
			l0.1-0.8c0.5-3.4,3.4-5.9,6.8-5.9c2.9,0,5.5,1.9,6.5,4.6c-1.4,0.1-2.6,0.5-3.7,1.4l1.4,1.8c0.8-0.6,1.7-0.9,2.7-0.9
			c2.5,0,4.6,2.1,4.6,4.6C29.8,32.3,27.7,34.4,25.2,34.4z M13.7,25.2H16c0-1.3,1-2.3,2.3-2.3v-2.3C15.8,20.6,13.7,22.7,13.7,25.2z
			 M55,32.1c-5.1,0-9.2,4.1-9.2,9.2s4.1,9.2,9.2,9.2c2.4,0,4.7-1,6.5-2.7l-1.6-1.6c-1.3,1.3-3,2-4.9,2c-3.8,0-6.9-3.1-6.9-6.9
			c0-3.8,3.1-6.9,6.9-6.9c3.8,0,6.9,3.1,6.9,6.9c0,1.2-0.3,2.4-0.9,3.4l2,1.1c0.8-1.4,1.2-3,1.2-4.6C64.1,36.2,60,32.1,55,32.1z
			 M71,44.3v-6.2l-2.9-1c-0.2-0.8-0.5-1.5-0.9-2.2l1.4-2.8l-4.4-4.4L61.3,29c-0.7-0.4-1.5-0.7-2.2-0.9l-1-2.9h-2V5.7
			c0-3.2-2.6-5.7-5.7-5.7H20.6c-3.2,0-5.7,2.6-5.7,5.7v5.7H0v29.8h14.9v24c0,3.2,2.6,5.7,5.7,5.7h29.8c3.2,0,5.7-2.6,5.7-5.7v-8h2
			l1-2.9c0.8-0.2,1.5-0.5,2.2-0.9l2.8,1.4l4.4-4.4l-1.4-2.8c0.4-0.7,0.7-1.5,0.9-2.2L71,44.3z M17.2,5.7c0-1.9,1.5-3.4,3.4-3.4h29.8
			c1.9,0,3.4,1.5,3.4,3.4v1.1H17.2V5.7z M2.3,38.9V13.7h32.1v25.2H2.3z M53.8,65.3c0,1.9-1.5,3.4-3.4,3.4H20.6
			c-1.9,0-3.4-1.5-3.4-3.4v-3.4h36.6V65.3z M53.8,59.5H17.2V41.2h19.5V11.5H17.2V9.2h36.6v16h-2l-1,2.9c-0.8,0.2-1.5,0.5-2.2,0.9
			l-2.8-1.4L41.4,32l1.4,2.8c-0.4,0.7-0.7,1.5-0.9,2.2L39,38v6.2l2.9,1c0.2,0.8,0.5,1.5,0.9,2.2l-1.4,2.8l4.4,4.4l2.8-1.4
			c0.7,0.4,1.5,0.7,2.2,0.9l1,2.9h2V59.5z M66.2,43.6L66,44.2c-0.3,1-0.7,1.9-1.2,2.8l-0.3,0.5l1.2,2.4L63.6,52l-2.4-1.2l-0.5,0.3
			c-0.9,0.5-1.8,0.9-2.8,1.2l-0.6,0.2L56.4,55h-3l-0.9-2.5L52,52.3c-1-0.3-1.9-0.7-2.8-1.2l-0.5-0.3L46.3,52l-2.1-2.1l1.2-2.4
			L45.1,47c-0.5-0.9-0.9-1.8-1.2-2.8l-0.2-0.6l-2.5-0.9v-2.9l2.5-0.9l0.2-0.6c0.3-1,0.7-1.9,1.2-2.8l0.3-0.5l-1.2-2.4l2.1-2.1
			l2.4,1.2l0.5-0.3c0.9-0.5,1.8-0.9,2.8-1.2l0.6-0.2l0.9-2.5h3l0.9,2.5l0.6,0.2c1,0.3,1.9,0.7,2.8,1.2l0.5,0.3l2.4-1.2l2.1,2.1
			L64.6,35l0.3,0.5c0.5,0.9,0.9,1.8,1.2,2.8l0.2,0.6l2.5,0.9v2.9L66.2,43.6z M40.1,64.1h-9.2v2.3h9.2V64.1z M55,38.9
			c1.3,0,2.3,1,2.3,2.3h2.3c0-2.5-2.1-4.6-4.6-4.6s-4.6,2.1-4.6,4.6s2.1,4.6,4.6,4.6v-2.3c-1.3,0-2.3-1-2.3-2.3
			C52.7,40,53.7,38.9,55,38.9z"/>
	</g>
</g>
</svg>
