<?xml version="1.0" encoding="utf-8"?>
<!-- Generator: Adobe Illustrator 21.0.2, SVG Export Plug-In . SVG Version: 6.00 Build 0)  -->
<svg version="1.1" id="Слой_1" xmlns="http://www.w3.org/2000/svg" xmlns:xlink="http://www.w3.org/1999/xlink" x="0px" y="0px"
	 viewBox="0 0 144 23" style="enable-background:new 0 0 144 23;" xml:space="preserve">
<g>
	<path d="M11.4,13.8v9.1H0V0.2h6.8l4.5,4.5v4.5l-2.3,2.3L11.4,13.8z M6.8,9.3V4.7H4.5v4.5H6.8z M6.8,18.4v-4.5H4.5v4.5H6.8z"/>
	<path d="M13.6,22.9V0.2h4.5v22.7H13.6z"/>
	<path d="M20.5,22.9V4.7L25,0.2h6.8v4.5H25v13.6h2.3V9.3h4.5v13.6H20.5z"/>
	<path d="M43.2,22.9V0.2H50l4.5,4.5v13.6L50,22.9H43.2z M50,18.4V4.7h-2.3v13.6H50z"/>
	<path d="M63.7,22.9v-9.1h-2.3v9.1h-4.5V0.2h6.8l4.5,4.5v18.2H63.7z M63.7,9.3V4.7h-2.3v4.5H63.7z"/>
	<path d="M72.7,22.9V4.7h-3.3V0.2h11.4v4.5h-3.5v18.2H72.7z"/>
	<path d="M89.1,22.9v-9.1h-2.3v9.1h-4.5V0.2h6.8l4.5,4.5v18.2H89.1z M89.1,9.3V4.7h-2.3v4.5H89.1z"/>
	<path d="M116.4,13.8v9.1h-4.5v-9.1h-2.3v9.1h-4.5V0.2h4.5v9.1h2.3V0.2h4.5v9.1l-2.3,2.3L116.4,13.8z"/>
	<path d="M130.1,0.2v4.5h-6.8v4.5h6.8v4.5h-6.8v4.5h6.8v4.5h-6.8l-4.5-4.5V0.2H130.1z"/>
	<path d="M139.2,13.8h-6.8V0.2h4.5v9.1h2.3V0.2h4.5v18.2l-4.5,4.5h-6.8v-4.5h6.8V13.8z"/>
</g>
</svg>
