<?xml version="1.0" encoding="utf-8"?>
<!-- Generator: Adobe Illustrator 21.0.2, SVG Export Plug-In . SVG Version: 6.00 Build 0)  -->
<svg version="1.1" id="Capa_1" xmlns="http://www.w3.org/2000/svg" xmlns:xlink="http://www.w3.org/1999/xlink" x="0px" y="0px"
	 viewBox="0 0 94 114" style="enable-background:new 0 0 94 114;" xml:space="preserve">
<style type="text/css">
	.st0{fill:#212121;}
</style>
<g>
	<g>
		<path class="st0" d="M11.4,45.9c-1.2,0-2.2,1-2.2,2.2s1,2.2,2.2,2.2s2.2-1,2.2-2.2S12.6,45.9,11.4,45.9z"/>
	</g>
</g>
<g>
	<g>
		<path class="st0" d="M91.5,19.1c-24.3,0-37.3-13-41.6-17.2c-0.9-0.9-1.3-1.3-1.8-1.6c-0.7-0.4-1.6-0.4-2.3,0
			c-0.3,0.2-0.6,0.4-1.2,1c-1.6,1.5-5.3,5.2-11,8.8c-9.5,6-20,9-31.1,9c-1.2,0-2.2,1-2.2,2.2v29.2c0,14,4.4,27.4,12.8,38.6
			c9.1,12.2,20.9,21,33.3,24.7c0.2,0.1,0.4,0.1,0.6,0.1s0.4,0,0.6-0.1c12.4-3.7,24.2-12.5,33.3-24.7C89.3,78,93.8,64.6,93.8,50.6
			V21.4C93.8,20.1,92.8,19.1,91.5,19.1z M89.3,50.6c0,13.1-4.1,25.5-11.9,36C69,97.8,58.3,105.9,47,109.4
			c-11.3-3.6-22-11.7-30.4-22.9C8.8,76.1,4.7,63.6,4.7,50.6v-27c11.1-0.4,21.6-3.6,31.3-9.6C41.3,10.6,45,7.2,47,5.3
			c4.7,4.6,18,17.5,42.3,18.3V50.6z"/>
	</g>
</g>
<g>
	<g>
		<path class="st0" d="M82.9,27.6C70.6,26.2,59,21.3,48.3,12.8c-0.8-0.6-1.9-0.6-2.7,0C35,20.9,22.8,26.1,11.1,27.5
			c-1.1,0.1-2,1.1-2,2.2v9.4c0,1.2,1,2.2,2.2,2.2s2.2-1,2.2-2.2v-7.5c8.5-1.3,20.5-4.9,33.3-14.3c10.4,7.9,21.6,12.7,33.5,14.4v18.8
			c0,11.1-3.5,21.7-10.2,30.7C63.9,89.8,55.9,96,47,99.4c-8.9-3.3-16.9-9.6-23.2-18.1C18.4,74,15,65.6,14,56.7
			c-0.1-1.2-1.3-2.1-2.5-1.9c-1.2,0.1-2.1,1.3-1.9,2.5c1.1,9.6,4.8,18.8,10.6,26.6c7.1,9.5,16.1,16.4,26.1,19.9
			c0.2,0.1,0.5,0.1,0.7,0.1c0.3,0,0.5,0,0.7-0.1c10-3.5,19-10.4,26.1-19.9c7.2-9.7,11-21.2,11-33.3V29.8
			C84.9,28.7,84,27.7,82.9,27.6z"/>
	</g>
</g>
<g>
	<g>
		<path class="st0" d="M69.1,48.8c-0.3-0.8-1-1.4-1.8-1.5l-12.7-1.8l-5.7-11.5c-0.4-0.8-1.1-1.2-2-1.2c-0.8,0-1.6,0.5-2,1.2
			l-5.7,11.5l-12.7,1.8c-0.8,0.1-1.5,0.7-1.8,1.5c-0.3,0.8,0,1.7,0.6,2.3l9.2,9l-2.2,12.7c-0.1,0.8,0.2,1.7,0.9,2.2
			c0.4,0.3,0.8,0.4,1.3,0.4c0.4,0,0.7-0.1,1-0.3l11.4-6l11.4,6c0.8,0.4,1.7,0.3,2.3-0.2c0.7-0.5,1-1.3,0.9-2.2l-2.2-12.7l9.2-9
			C69.1,50.5,69.4,49.6,69.1,48.8z M55.4,57.7c-0.5,0.5-0.8,1.2-0.6,2l1.6,9.4l-8.4-4.4c-0.6-0.3-1.4-0.3-2.1,0L37.5,69l1.6-9.4
			c0.1-0.7-0.1-1.5-0.6-2l-6.8-6.6l9.4-1.4c0.7-0.1,1.4-0.6,1.7-1.2l4.2-8.5l4.2,8.5c0.3,0.7,1,1.1,1.7,1.2l9.4,1.4L55.4,57.7z"/>
	</g>
</g>
</svg>
